G04*
G04 #@! TF.GenerationSoftware,Altium Limited,Altium Designer,19.1.6 (110)*
G04*
G04 Layer_Physical_Order=2*
G04 Layer_Color=16711680*
%FSLAX44Y44*%
%MOMM*%
G71*
G01*
G75*
%ADD16C,0.4000*%
%ADD28C,0.6000*%
%ADD30C,1.6000*%
%ADD31C,1.2000*%
%ADD32R,1.2000X1.2000*%
%ADD33C,1.4000*%
%ADD34C,2.0000*%
%ADD35O,1.5000X2.0000*%
%ADD36C,1.5240*%
G04:AMPARAMS|DCode=37|XSize=3mm|YSize=4mm|CornerRadius=0.75mm|HoleSize=0mm|Usage=FLASHONLY|Rotation=90.000|XOffset=0mm|YOffset=0mm|HoleType=Round|Shape=RoundedRectangle|*
%AMROUNDEDRECTD37*
21,1,3.0000,2.5000,0,0,90.0*
21,1,1.5000,4.0000,0,0,90.0*
1,1,1.5000,1.2500,0.7500*
1,1,1.5000,1.2500,-0.7500*
1,1,1.5000,-1.2500,-0.7500*
1,1,1.5000,-1.2500,0.7500*
%
%ADD37ROUNDEDRECTD37*%
%ADD38C,1.5000*%
%ADD39C,3.0000*%
%ADD40R,2.0000X2.0000*%
%ADD41C,1.2700*%
G36*
X855000Y375000D02*
X255000D01*
Y1265000D01*
X621619D01*
X622385Y1263152D01*
X618400Y1259168D01*
X617516Y1257845D01*
X617302Y1256768D01*
X616011Y1256243D01*
X615206Y1256215D01*
X614775Y1256776D01*
X612791Y1258298D01*
X610480Y1259256D01*
X608000Y1259582D01*
X605520Y1259256D01*
X603209Y1258298D01*
X601224Y1256776D01*
X599702Y1254791D01*
X598744Y1252480D01*
X598418Y1250000D01*
X598744Y1247520D01*
X599702Y1245209D01*
X601224Y1243225D01*
X603209Y1241702D01*
X605520Y1240745D01*
X608000Y1240418D01*
X610480Y1240745D01*
X612791Y1241702D01*
X614775Y1243225D01*
X615206Y1243785D01*
X617206Y1243107D01*
Y1222667D01*
X463634Y1069096D01*
X461786Y1069861D01*
Y1078065D01*
X464402Y1080680D01*
X465286Y1082003D01*
X465596Y1083564D01*
X465596Y1083564D01*
Y1211793D01*
X465596Y1211793D01*
X465286Y1213354D01*
X464402Y1214677D01*
X446195Y1232884D01*
X444872Y1233768D01*
X443311Y1234079D01*
X443311Y1234079D01*
X422800D01*
Y1242000D01*
X399716D01*
X397940Y1242540D01*
X397024Y1242540D01*
X388400D01*
Y1230000D01*
X382400D01*
Y1242540D01*
X373776D01*
X372860Y1242540D01*
X371084Y1242000D01*
X348234D01*
X348000Y1242000D01*
X346166Y1241600D01*
X346000Y1241600D01*
X338742D01*
X337884Y1242884D01*
X332884Y1247884D01*
X331561Y1248768D01*
X330000Y1249078D01*
X330000Y1249078D01*
X290000D01*
X288439Y1248768D01*
X287116Y1247884D01*
X280834Y1241602D01*
X279950Y1240279D01*
X279640Y1238718D01*
X279640Y1238718D01*
Y1092200D01*
X279640Y1092200D01*
X279950Y1090639D01*
X280834Y1089316D01*
X288200Y1081950D01*
X289523Y1081066D01*
X291084Y1080756D01*
X291084Y1080756D01*
X318384D01*
X372997Y1026143D01*
X372977Y1026068D01*
X371945Y1024367D01*
X370000Y1024623D01*
X367510Y1024295D01*
X365189Y1023333D01*
X363196Y1021804D01*
X361667Y1019811D01*
X360917Y1018000D01*
X370000D01*
Y1015000D01*
X373000D01*
Y1005917D01*
X374811Y1006667D01*
X376804Y1008196D01*
X378333Y1010189D01*
X379295Y1012510D01*
X379623Y1015000D01*
X379367Y1016945D01*
X381068Y1017977D01*
X381143Y1017997D01*
X417562Y981578D01*
Y973063D01*
X415562Y972077D01*
X414539Y972862D01*
X412350Y973769D01*
X410000Y974078D01*
X407651Y973769D01*
X405461Y972862D01*
X403581Y971419D01*
X402139Y969539D01*
X401232Y967350D01*
X400923Y965000D01*
X401232Y962651D01*
X402139Y960462D01*
X403581Y958581D01*
X405461Y957139D01*
X407651Y956232D01*
X410000Y955923D01*
X412350Y956232D01*
X414539Y957139D01*
X415562Y957924D01*
X417562Y956937D01*
Y923744D01*
X415562Y922758D01*
X414811Y923334D01*
X413000Y924084D01*
Y915001D01*
Y905917D01*
X414811Y906667D01*
X415562Y907243D01*
X417562Y906257D01*
Y903360D01*
X417562Y903360D01*
X417872Y901799D01*
X418756Y900476D01*
X467198Y852033D01*
X466931Y850000D01*
X467206Y847911D01*
X468012Y845965D01*
X469294Y844294D01*
X470965Y843012D01*
X472911Y842206D01*
X475000Y841931D01*
X477088Y842206D01*
X479034Y843012D01*
X480705Y844294D01*
X481988Y845965D01*
X482794Y847911D01*
X483069Y850000D01*
X482794Y852088D01*
X481988Y854034D01*
X480705Y855705D01*
X479034Y856988D01*
X477088Y857794D01*
X475000Y858069D01*
X472966Y857801D01*
X425718Y905049D01*
Y983267D01*
X425583Y983948D01*
X426251Y984636D01*
X427355Y985240D01*
X429300Y984434D01*
Y991600D01*
X422134D01*
X422298Y991206D01*
X420602Y990073D01*
X322957Y1087718D01*
X321634Y1088602D01*
X320171Y1088893D01*
X319981Y1089212D01*
X319635Y1090330D01*
X319631Y1090912D01*
X322079Y1092921D01*
X324203Y1095510D01*
X325782Y1098463D01*
X326218Y1099902D01*
X343684D01*
X380191Y1063395D01*
X381845Y1062290D01*
X383796Y1061902D01*
X414387D01*
X415045Y1061045D01*
X416789Y1059706D01*
X418820Y1058865D01*
X421000Y1058578D01*
X423180Y1058865D01*
X425211Y1059706D01*
X426230Y1060488D01*
X428230Y1059557D01*
Y1028234D01*
X426230Y1027518D01*
X424643Y1028735D01*
X422211Y1029743D01*
X419600Y1030086D01*
X416990Y1029743D01*
X414557Y1028735D01*
X412468Y1027132D01*
X410865Y1025043D01*
X409857Y1022610D01*
X409514Y1020000D01*
X409857Y1017390D01*
X410865Y1014957D01*
X412468Y1012868D01*
X414557Y1011265D01*
X416990Y1010257D01*
X419600Y1009914D01*
X422211Y1010257D01*
X424643Y1011265D01*
X426320Y1012552D01*
X427858Y1012250D01*
X428284Y1012017D01*
X428494Y1011878D01*
X428540Y1011645D01*
X429424Y1010322D01*
X432713Y1007033D01*
X431758Y1005160D01*
X429548Y1004869D01*
X426984Y1003807D01*
X424783Y1002117D01*
X423093Y999915D01*
X422134Y997600D01*
X432300D01*
Y994600D01*
X435300D01*
Y983461D01*
X435400Y983332D01*
X435696Y982484D01*
X435520Y982308D01*
X434636Y980985D01*
X434326Y979424D01*
X434326Y979424D01*
Y949728D01*
X434326Y949728D01*
X434636Y948168D01*
X435520Y946844D01*
X456740Y925625D01*
X456596Y924485D01*
X455650Y923875D01*
X454495Y923465D01*
X453000Y924084D01*
Y915001D01*
Y905917D01*
X454811Y906667D01*
X455462Y907167D01*
X457462Y906180D01*
Y888859D01*
X457462Y888859D01*
X457772Y887299D01*
X458657Y885975D01*
X467198Y877433D01*
X466931Y875400D01*
X467206Y873311D01*
X468012Y871365D01*
X469294Y869694D01*
X470965Y868412D01*
X472911Y867606D01*
X475000Y867331D01*
X477088Y867606D01*
X479034Y868412D01*
X480705Y869694D01*
X481988Y871365D01*
X482794Y873311D01*
X483069Y875400D01*
X482794Y877488D01*
X481988Y879434D01*
X480705Y881105D01*
X479034Y882388D01*
X477088Y883194D01*
X475000Y883469D01*
X472966Y883201D01*
X465619Y890549D01*
Y897317D01*
X467619Y897714D01*
X468012Y896765D01*
X469294Y895094D01*
X470965Y893812D01*
X472911Y893006D01*
X475000Y892731D01*
X477088Y893006D01*
X479034Y893812D01*
X480705Y895094D01*
X481988Y896765D01*
X482794Y898711D01*
X483069Y900800D01*
X482801Y902833D01*
X488424Y908456D01*
X489308Y909779D01*
X489618Y911340D01*
X489618Y911340D01*
Y936740D01*
X489308Y938300D01*
X488424Y939624D01*
X487100Y940508D01*
X485540Y940818D01*
X471589D01*
X468177Y944230D01*
X469499Y945737D01*
X470965Y944612D01*
X472911Y943806D01*
X475000Y943531D01*
X477088Y943806D01*
X479034Y944612D01*
X480705Y945894D01*
X481988Y947565D01*
X482794Y949511D01*
X483069Y951600D01*
X482794Y953688D01*
X481988Y955634D01*
X480705Y957306D01*
X479034Y958588D01*
X477088Y959394D01*
X475000Y959669D01*
X472911Y959394D01*
X470965Y958588D01*
X469294Y957306D01*
X469120Y957079D01*
X467120Y957758D01*
Y970842D01*
X469120Y971521D01*
X469294Y971294D01*
X470965Y970012D01*
X472911Y969206D01*
X475000Y968931D01*
X477088Y969206D01*
X479034Y970012D01*
X480705Y971294D01*
X481988Y972965D01*
X482794Y974911D01*
X483069Y977000D01*
X482794Y979088D01*
X481988Y981034D01*
X480705Y982706D01*
X479034Y983988D01*
X477088Y984794D01*
X475000Y985069D01*
X472966Y984801D01*
X468390Y989377D01*
Y994867D01*
X470390Y995853D01*
X470965Y995412D01*
X472911Y994606D01*
X475000Y994331D01*
X477088Y994606D01*
X479034Y995412D01*
X480705Y996694D01*
X481988Y998365D01*
X482794Y1000311D01*
X483069Y1002400D01*
X482794Y1004488D01*
X481988Y1006434D01*
X480705Y1008105D01*
X479034Y1009388D01*
X477088Y1010194D01*
X475000Y1010469D01*
X472911Y1010194D01*
X470965Y1009388D01*
X470390Y1008947D01*
X468390Y1009933D01*
Y1019800D01*
X483000D01*
Y1035800D01*
X468390D01*
Y1062317D01*
X624168Y1218094D01*
X624168Y1218094D01*
X625052Y1219417D01*
X625362Y1220978D01*
X625362Y1220978D01*
Y1241715D01*
X627362Y1242658D01*
X628609Y1241702D01*
X630920Y1240745D01*
X633400Y1240418D01*
X635880Y1240745D01*
X636592Y1241040D01*
X835392Y1042241D01*
Y991159D01*
X810106Y965874D01*
X808133Y966691D01*
X805000Y967103D01*
X801868Y966691D01*
X798948Y965482D01*
X796442Y963558D01*
X794518Y961052D01*
X793309Y958132D01*
X792897Y955000D01*
X793309Y951867D01*
X794518Y948948D01*
X796442Y946441D01*
X798948Y944518D01*
X801868Y943309D01*
X805000Y942896D01*
X808133Y943309D01*
X811052Y944518D01*
X813559Y946441D01*
X815482Y948948D01*
X816691Y951867D01*
X817104Y955000D01*
X816691Y958132D01*
X815874Y960106D01*
X842354Y986586D01*
X843238Y987909D01*
X843548Y989470D01*
X843548Y989470D01*
Y1043930D01*
X843548Y1043930D01*
X843238Y1045491D01*
X842354Y1046814D01*
X842354Y1046814D01*
X642360Y1246807D01*
X642655Y1247520D01*
X642982Y1250000D01*
X642655Y1252480D01*
X641698Y1254791D01*
X640734Y1256048D01*
X641667Y1258048D01*
X650532D01*
X651466Y1256048D01*
X650502Y1254791D01*
X649544Y1252480D01*
X649218Y1250000D01*
X649544Y1247520D01*
X650502Y1245209D01*
X652024Y1243225D01*
X654009Y1241702D01*
X656320Y1240745D01*
X658800Y1240418D01*
X661280Y1240745D01*
X663591Y1241702D01*
X665575Y1243225D01*
X667098Y1245209D01*
X668055Y1247520D01*
X668382Y1250000D01*
X668055Y1252480D01*
X667098Y1254791D01*
X666134Y1256048D01*
X667067Y1258048D01*
X675932D01*
X676866Y1256048D01*
X675902Y1254791D01*
X674944Y1252480D01*
X674618Y1250000D01*
X674944Y1247520D01*
X675902Y1245209D01*
X677424Y1243225D01*
X679409Y1241702D01*
X681720Y1240745D01*
X684200Y1240418D01*
X686680Y1240745D01*
X688991Y1241702D01*
X690975Y1243225D01*
X692498Y1245209D01*
X693455Y1247520D01*
X693782Y1250000D01*
X693455Y1252480D01*
X692498Y1254791D01*
X691534Y1256048D01*
X692467Y1258048D01*
X695785D01*
X700639Y1253193D01*
X700344Y1252480D01*
X700018Y1250000D01*
X700344Y1247520D01*
X701302Y1245209D01*
X702824Y1243225D01*
X704809Y1241702D01*
X707120Y1240745D01*
X709600Y1240418D01*
X712080Y1240745D01*
X714391Y1241702D01*
X716375Y1243225D01*
X717898Y1245209D01*
X718855Y1247520D01*
X719182Y1250000D01*
X718855Y1252480D01*
X717898Y1254791D01*
X716375Y1256776D01*
X714391Y1258298D01*
X712080Y1259256D01*
X709600Y1259582D01*
X707120Y1259256D01*
X706407Y1258960D01*
X702215Y1263152D01*
X702981Y1265000D01*
X855000D01*
Y375000D01*
D02*
G37*
G36*
X457440Y1210104D02*
Y1155805D01*
X455440Y1155258D01*
X454276Y1156775D01*
X452291Y1158298D01*
X449980Y1159255D01*
X447500Y1159582D01*
X445020Y1159255D01*
X442709Y1158298D01*
X440725Y1156775D01*
X439202Y1154791D01*
X438245Y1152480D01*
X438126Y1151578D01*
X391874D01*
X391756Y1152480D01*
X390798Y1154791D01*
X389276Y1156775D01*
X387291Y1158298D01*
X384980Y1159255D01*
X382500Y1159582D01*
X380020Y1159255D01*
X377709Y1158298D01*
X375725Y1156775D01*
X374202Y1154791D01*
X373245Y1152480D01*
X372918Y1150000D01*
Y1145000D01*
X373245Y1142520D01*
X374202Y1140209D01*
X375725Y1138224D01*
X377709Y1136702D01*
X380020Y1135744D01*
X382500Y1135418D01*
X384980Y1135744D01*
X387291Y1136702D01*
X389276Y1138224D01*
X390798Y1140209D01*
X391756Y1142520D01*
X391874Y1143421D01*
X438126D01*
X438245Y1142520D01*
X439202Y1140209D01*
X440725Y1138224D01*
X442709Y1136702D01*
X445020Y1135744D01*
X447500Y1135418D01*
X449980Y1135744D01*
X452291Y1136702D01*
X454276Y1138224D01*
X455440Y1139741D01*
X457440Y1139195D01*
Y1111825D01*
X455440Y1111146D01*
X454661Y1112161D01*
X452564Y1113770D01*
X450500Y1114625D01*
Y1102500D01*
Y1090376D01*
X452564Y1091230D01*
X454661Y1092840D01*
X455440Y1093855D01*
X457440Y1093176D01*
Y1085253D01*
X454824Y1082638D01*
X453940Y1081315D01*
X453630Y1079754D01*
X453630Y1079754D01*
Y1028234D01*
X451630Y1027518D01*
X450043Y1028735D01*
X447611Y1029743D01*
X445000Y1030086D01*
X442389Y1029743D01*
X439957Y1028735D01*
X438386Y1027530D01*
X436386Y1028261D01*
Y1073658D01*
X436076Y1075219D01*
X435192Y1076542D01*
X435192Y1076542D01*
X383884Y1127850D01*
X382561Y1128734D01*
X381000Y1129044D01*
X381000Y1129044D01*
X351955D01*
X294400Y1186599D01*
Y1223019D01*
X295400Y1223792D01*
X297400Y1222878D01*
Y1218916D01*
X296860Y1217140D01*
X296860Y1215824D01*
Y1207600D01*
X309400D01*
Y1204600D01*
X312400D01*
Y1192060D01*
X331400D01*
Y1204600D01*
X337400D01*
Y1192060D01*
X346389D01*
X346940Y1192060D01*
X348551Y1193000D01*
X348940Y1193000D01*
X371400D01*
X373400Y1193000D01*
X374000Y1193000D01*
X396800D01*
X398800Y1193000D01*
X399400Y1193000D01*
X422800D01*
Y1216000D01*
X422800Y1217500D01*
X422800Y1219000D01*
Y1225922D01*
X441622D01*
X457440Y1210104D01*
D02*
G37*
G36*
X347382Y1122082D02*
X348705Y1121198D01*
X350266Y1120888D01*
X350266Y1120888D01*
X379311D01*
X383138Y1117060D01*
X382706Y1115752D01*
X382273Y1115097D01*
X379879Y1114782D01*
X377437Y1113770D01*
X375340Y1112161D01*
X373730Y1110063D01*
X372719Y1107621D01*
X372439Y1105500D01*
X394142D01*
X394560Y1105638D01*
X423026Y1077173D01*
X422092Y1075278D01*
X421000Y1075422D01*
X418820Y1075135D01*
X416789Y1074294D01*
X415045Y1072955D01*
X414387Y1072098D01*
X385908D01*
X349401Y1108605D01*
X347747Y1109710D01*
X345796Y1110098D01*
X326218D01*
X325782Y1111537D01*
X324203Y1114491D01*
X322079Y1117079D01*
X319490Y1119203D01*
X316537Y1120782D01*
X313333Y1121754D01*
X310000Y1122082D01*
X306667Y1121754D01*
X303463Y1120782D01*
X300509Y1119203D01*
X297921Y1117079D01*
X295797Y1114491D01*
X294218Y1111537D01*
X293246Y1108333D01*
X292918Y1105000D01*
X293246Y1101667D01*
X294218Y1098463D01*
X295797Y1095510D01*
X297921Y1092921D01*
X300369Y1090912D01*
X300366Y1090418D01*
X299792Y1088912D01*
X292773D01*
X287796Y1093889D01*
Y1179055D01*
X289644Y1179820D01*
X347382Y1122082D01*
D02*
G37*
%LPC*%
G36*
X735000Y1259582D02*
X732520Y1259256D01*
X730209Y1258298D01*
X728224Y1256776D01*
X726702Y1254791D01*
X725744Y1252480D01*
X725418Y1250000D01*
X725744Y1247520D01*
X726702Y1245209D01*
X728224Y1243225D01*
X730209Y1241702D01*
X732520Y1240745D01*
X735000Y1240418D01*
X737480Y1240745D01*
X739791Y1241702D01*
X741775Y1243225D01*
X743298Y1245209D01*
X744255Y1247520D01*
X744582Y1250000D01*
X744255Y1252480D01*
X743298Y1254791D01*
X741775Y1256776D01*
X739791Y1258298D01*
X737480Y1259256D01*
X735000Y1259582D01*
D02*
G37*
G36*
X684200Y1107182D02*
X681720Y1106855D01*
X679409Y1105898D01*
X677424Y1104376D01*
X675902Y1102391D01*
X674944Y1100080D01*
X674618Y1097600D01*
X674944Y1095120D01*
X675902Y1092809D01*
X677424Y1090825D01*
X679409Y1089302D01*
X681720Y1088345D01*
X684200Y1088018D01*
X686680Y1088345D01*
X688991Y1089302D01*
X690975Y1090825D01*
X692498Y1092809D01*
X693455Y1095120D01*
X693782Y1097600D01*
X693455Y1100080D01*
X692498Y1102391D01*
X690975Y1104376D01*
X688991Y1105898D01*
X686680Y1106855D01*
X684200Y1107182D01*
D02*
G37*
G36*
X608000D02*
X605520Y1106855D01*
X603209Y1105898D01*
X601224Y1104376D01*
X599702Y1102391D01*
X598744Y1100080D01*
X598418Y1097600D01*
X598744Y1095120D01*
X599702Y1092809D01*
X601224Y1090825D01*
X603209Y1089302D01*
X605520Y1088345D01*
X608000Y1088018D01*
X610480Y1088345D01*
X612791Y1089302D01*
X614775Y1090825D01*
X616298Y1092809D01*
X617255Y1095120D01*
X617582Y1097600D01*
X617255Y1100080D01*
X616298Y1102391D01*
X614775Y1104376D01*
X612791Y1105898D01*
X610480Y1106855D01*
X608000Y1107182D01*
D02*
G37*
G36*
X735000D02*
X732520Y1106855D01*
X730209Y1105898D01*
X728224Y1104376D01*
X726702Y1102391D01*
X725744Y1100080D01*
X725418Y1097600D01*
X725744Y1095120D01*
X726702Y1092809D01*
X728224Y1090825D01*
X730209Y1089302D01*
X731840Y1088626D01*
X731442Y1086626D01*
X726341D01*
X718560Y1094407D01*
X718855Y1095120D01*
X719182Y1097600D01*
X718855Y1100080D01*
X717898Y1102391D01*
X716375Y1104376D01*
X714391Y1105898D01*
X712080Y1106855D01*
X709600Y1107182D01*
X707120Y1106855D01*
X704809Y1105898D01*
X702824Y1104376D01*
X701302Y1102391D01*
X700344Y1100080D01*
X700018Y1097600D01*
X700344Y1095120D01*
X701302Y1092809D01*
X702824Y1090825D01*
X704809Y1089302D01*
X707120Y1088345D01*
X709600Y1088018D01*
X712080Y1088345D01*
X712792Y1088640D01*
X721768Y1079664D01*
X722800Y1078974D01*
X722738Y1077757D01*
X722468Y1076974D01*
X685193D01*
X667760Y1094407D01*
X668055Y1095120D01*
X668382Y1097600D01*
X668055Y1100080D01*
X667098Y1102391D01*
X665575Y1104376D01*
X663591Y1105898D01*
X661280Y1106855D01*
X658800Y1107182D01*
X656320Y1106855D01*
X654009Y1105898D01*
X652024Y1104376D01*
X650502Y1102391D01*
X649544Y1100080D01*
X649218Y1097600D01*
X649544Y1095120D01*
X650502Y1092809D01*
X652024Y1090825D01*
X654009Y1089302D01*
X656320Y1088345D01*
X658800Y1088018D01*
X661280Y1088345D01*
X661992Y1088640D01*
X680620Y1070012D01*
X681943Y1069128D01*
X683504Y1068818D01*
X732415D01*
X750126Y1051106D01*
X749309Y1049133D01*
X748897Y1046000D01*
X749309Y1042867D01*
X750518Y1039948D01*
X752442Y1037441D01*
X754949Y1035518D01*
X757868Y1034309D01*
X761000Y1033896D01*
X764133Y1034309D01*
X767052Y1035518D01*
X769559Y1037441D01*
X771482Y1039948D01*
X772691Y1042867D01*
X773104Y1046000D01*
X772691Y1049133D01*
X771482Y1052052D01*
X769559Y1054558D01*
X767052Y1056482D01*
X764133Y1057691D01*
X761000Y1058103D01*
X757868Y1057691D01*
X755894Y1056874D01*
X736988Y1075780D01*
X735956Y1076470D01*
X736018Y1077687D01*
X736288Y1078470D01*
X767763D01*
X795126Y1051106D01*
X794309Y1049133D01*
X793896Y1046000D01*
X794309Y1042867D01*
X795518Y1039948D01*
X797441Y1037441D01*
X799948Y1035518D01*
X802867Y1034309D01*
X806000Y1033896D01*
X807367Y1034076D01*
X808385Y1032300D01*
X807534Y1031000D01*
X648053D01*
X636583Y1042470D01*
X635260Y1043354D01*
X633699Y1043664D01*
X633699Y1043664D01*
X624586D01*
X623025Y1043354D01*
X621702Y1042470D01*
X621702Y1042470D01*
X606208Y1026976D01*
X605324Y1025653D01*
X605014Y1024092D01*
X605014Y1024092D01*
Y983858D01*
X605014Y983858D01*
X605324Y982297D01*
X606208Y980974D01*
X613066Y974116D01*
X613066Y974116D01*
X614389Y973232D01*
X615950Y972921D01*
X615950Y972922D01*
X623625D01*
X624874Y971294D01*
X625270Y970990D01*
X624772Y968852D01*
X624349Y968768D01*
X623026Y967884D01*
X623026Y967884D01*
X610526Y955384D01*
X609642Y954061D01*
X609332Y952500D01*
X609332Y952500D01*
Y850900D01*
X609332Y850900D01*
X609642Y849339D01*
X610526Y848016D01*
X625359Y833183D01*
X625329Y830746D01*
X625215Y830567D01*
X624874Y830305D01*
X624408Y829698D01*
X500400D01*
X498449Y829310D01*
X496795Y828205D01*
X475759Y807169D01*
X475000Y807269D01*
X472911Y806994D01*
X470965Y806188D01*
X469294Y804905D01*
X468828Y804298D01*
X453342D01*
X452689Y805149D01*
X450809Y806591D01*
X448619Y807498D01*
X446270Y807808D01*
X443920Y807498D01*
X443350Y807262D01*
X441153Y808517D01*
X441049Y809252D01*
X452318Y820521D01*
X468046D01*
X469294Y818894D01*
X470965Y817612D01*
X472911Y816806D01*
X475000Y816531D01*
X477088Y816806D01*
X479034Y817612D01*
X480705Y818894D01*
X481988Y820565D01*
X482794Y822511D01*
X483069Y824600D01*
X482794Y826688D01*
X481988Y828634D01*
X480705Y830305D01*
X479034Y831588D01*
X477088Y832394D01*
X475000Y832669D01*
X472911Y832394D01*
X470965Y831588D01*
X469294Y830305D01*
X468046Y828678D01*
X450629D01*
X449068Y828368D01*
X447745Y827484D01*
X435127Y814866D01*
X433279Y815631D01*
Y871363D01*
X432969Y872924D01*
X432085Y874247D01*
X374079Y932253D01*
Y956948D01*
X374539Y957138D01*
X376419Y958581D01*
X377862Y960461D01*
X378769Y962650D01*
X379078Y965000D01*
X378769Y967349D01*
X377862Y969539D01*
X376419Y971419D01*
X374539Y972861D01*
X372350Y973768D01*
X370000Y974078D01*
X367651Y973768D01*
X367190Y973577D01*
X360238Y980530D01*
X358915Y981414D01*
X357354Y981724D01*
X357354Y981724D01*
X306176D01*
X306176Y981724D01*
X304615Y981414D01*
X303292Y980530D01*
X303292Y980530D01*
X301841Y979078D01*
X291954D01*
X290706Y980705D01*
X289035Y981988D01*
X287089Y982794D01*
X285000Y983069D01*
X282912Y982794D01*
X280966Y981988D01*
X279294Y980705D01*
X278012Y979034D01*
X277206Y977088D01*
X276931Y975000D01*
X277206Y972911D01*
X278012Y970965D01*
X279294Y969294D01*
X280966Y968012D01*
X282912Y967206D01*
X285000Y966931D01*
X287089Y967206D01*
X289035Y968012D01*
X290706Y969294D01*
X291954Y970921D01*
X303530D01*
X303530Y970921D01*
X305091Y971232D01*
X306414Y972116D01*
X307866Y973568D01*
X318096D01*
X318775Y971568D01*
X318581Y971419D01*
X317139Y969539D01*
X316232Y967349D01*
X315923Y965000D01*
X316232Y962650D01*
X316360Y962340D01*
X287023Y933003D01*
X285000Y933269D01*
X282912Y932994D01*
X280966Y932188D01*
X279294Y930906D01*
X278012Y929235D01*
X277206Y927289D01*
X276931Y925200D01*
X277206Y923112D01*
X278012Y921166D01*
X279294Y919494D01*
X280966Y918212D01*
X282912Y917406D01*
X285000Y917131D01*
X287089Y917406D01*
X289035Y918212D01*
X290706Y919494D01*
X291988Y921166D01*
X292794Y923112D01*
X293069Y925200D01*
X292800Y927244D01*
X319074Y953518D01*
X320922Y952753D01*
Y934438D01*
X320922Y934438D01*
X321232Y932877D01*
X322116Y931554D01*
X389204Y864466D01*
X388438Y862619D01*
X371348D01*
X371348Y862619D01*
X369787Y862308D01*
X368464Y861424D01*
X368464Y861424D01*
X361860Y854820D01*
X360976Y853497D01*
X360666Y851936D01*
X360666Y851936D01*
Y625256D01*
X360666Y625256D01*
X360976Y623695D01*
X361860Y622372D01*
X376754Y607478D01*
X376754Y607478D01*
X378077Y606594D01*
X379256Y606360D01*
X379665Y605250D01*
X379690Y604284D01*
X377442Y602558D01*
X375518Y600052D01*
X374309Y597132D01*
X373897Y594000D01*
X374309Y590867D01*
X375518Y587948D01*
X377442Y585441D01*
X379949Y583518D01*
X382868Y582309D01*
X386000Y581896D01*
X389133Y582309D01*
X392052Y583518D01*
X394559Y585441D01*
X396482Y587948D01*
X397691Y590867D01*
X398104Y594000D01*
X397691Y597132D01*
X396482Y600052D01*
X394559Y602558D01*
X392310Y604284D01*
X392383Y605218D01*
X392863Y606284D01*
X446680D01*
X459847Y593116D01*
X461170Y592232D01*
X462731Y591921D01*
X462731Y591922D01*
X468046D01*
X469294Y590294D01*
X470965Y589012D01*
X472911Y588206D01*
X475000Y587931D01*
X477088Y588206D01*
X479034Y589012D01*
X479570Y589423D01*
X481570Y588436D01*
Y582937D01*
X477033Y578401D01*
X475000Y578669D01*
X472911Y578394D01*
X470965Y577588D01*
X469294Y576306D01*
X468012Y574634D01*
X467206Y572688D01*
X466931Y570600D01*
X467206Y568511D01*
X468012Y566565D01*
X469294Y564894D01*
X470965Y563612D01*
X472911Y562806D01*
X472610Y560846D01*
X398768D01*
X398768Y560846D01*
X397207Y560536D01*
X395884Y559652D01*
X391106Y554874D01*
X389132Y555691D01*
X386000Y556104D01*
X382867Y555691D01*
X379948Y554482D01*
X377441Y552558D01*
X375518Y550052D01*
X374309Y547133D01*
X373896Y544000D01*
X374309Y540867D01*
X375518Y537948D01*
X377441Y535441D01*
X379948Y533518D01*
X382867Y532309D01*
X386000Y531896D01*
X389132Y532309D01*
X392052Y533518D01*
X394558Y535441D01*
X396482Y537948D01*
X397691Y540867D01*
X398103Y544000D01*
X397691Y547133D01*
X396874Y549106D01*
X400457Y552690D01*
X468334D01*
X468934Y551575D01*
X469129Y550690D01*
X468012Y549234D01*
X467206Y547288D01*
X466931Y545200D01*
X467206Y543111D01*
X468012Y541165D01*
X469294Y539494D01*
X470965Y538212D01*
X472911Y537406D01*
X475000Y537131D01*
X477088Y537406D01*
X479034Y538212D01*
X480705Y539494D01*
X481988Y541165D01*
X482794Y543111D01*
X483069Y545200D01*
X482794Y547288D01*
X481988Y549234D01*
X480871Y550690D01*
X481066Y551575D01*
X481666Y552690D01*
X617322D01*
X622779Y547233D01*
X622511Y545200D01*
X622786Y543111D01*
X623592Y541165D01*
X624874Y539494D01*
X626545Y538212D01*
X628492Y537406D01*
X630580Y537131D01*
X632668Y537406D01*
X634614Y538212D01*
X636286Y539494D01*
X637568Y541165D01*
X638374Y543111D01*
X638649Y545200D01*
X638374Y547288D01*
X637568Y549234D01*
X636286Y550905D01*
X634614Y552188D01*
X632668Y552994D01*
X630580Y553269D01*
X628546Y553001D01*
X621896Y559652D01*
X620572Y560536D01*
X619012Y560846D01*
X619012Y560846D01*
X477390D01*
X477088Y562806D01*
X479034Y563612D01*
X480705Y564894D01*
X481988Y566565D01*
X482794Y568511D01*
X483069Y570600D01*
X482801Y572633D01*
X488532Y578364D01*
X488532Y578364D01*
X489416Y579687D01*
X489726Y581248D01*
X489726Y581248D01*
Y600257D01*
X489416Y601818D01*
X488532Y603141D01*
X488532Y603141D01*
X480205Y611468D01*
X479037Y612248D01*
X478860Y613306D01*
X478849Y613764D01*
X478951Y614377D01*
X479034Y614412D01*
X480705Y615694D01*
X481988Y617365D01*
X482794Y619311D01*
X483069Y621400D01*
X482794Y623488D01*
X481988Y625434D01*
X480705Y627105D01*
X479034Y628388D01*
X477088Y629194D01*
X475000Y629469D01*
X472911Y629194D01*
X470965Y628388D01*
X469294Y627105D01*
X468012Y625434D01*
X467206Y623488D01*
X466931Y621400D01*
X467206Y619311D01*
X468012Y617365D01*
X469294Y615694D01*
X470225Y614980D01*
X469775Y612981D01*
X468261Y612836D01*
X451088Y630010D01*
X449765Y630894D01*
X448204Y631204D01*
X448204Y631204D01*
X442470D01*
X442339Y633204D01*
X443133Y633309D01*
X446052Y634518D01*
X448559Y636441D01*
X450482Y638948D01*
X451691Y641867D01*
X452104Y645000D01*
X451691Y648133D01*
X450482Y651052D01*
X448559Y653559D01*
X447233Y654576D01*
X447912Y656576D01*
X459456D01*
X467198Y648833D01*
X466931Y646800D01*
X467206Y644711D01*
X468012Y642765D01*
X469294Y641094D01*
X470965Y639812D01*
X472911Y639006D01*
X475000Y638731D01*
X477088Y639006D01*
X479034Y639812D01*
X480705Y641094D01*
X481988Y642765D01*
X482794Y644711D01*
X483069Y646800D01*
X482794Y648888D01*
X481988Y650834D01*
X480705Y652505D01*
X479034Y653788D01*
X477088Y654594D01*
X475000Y654869D01*
X472966Y654601D01*
X464030Y663538D01*
X462706Y664422D01*
X461146Y664732D01*
X461146Y664732D01*
X402654D01*
X401093Y664422D01*
X399770Y663538D01*
X399770Y663538D01*
X391106Y654874D01*
X389133Y655691D01*
X386000Y656104D01*
X382868Y655691D01*
X379949Y654482D01*
X377442Y652559D01*
X377426Y652539D01*
X375426Y653218D01*
Y677659D01*
X380894Y683126D01*
X382868Y682309D01*
X386000Y681897D01*
X389133Y682309D01*
X392052Y683518D01*
X394559Y685442D01*
X396482Y687948D01*
X397691Y690867D01*
X398104Y694000D01*
X397989Y694875D01*
X399883Y695809D01*
X426376Y669316D01*
X426376Y669316D01*
X427699Y668432D01*
X429260Y668121D01*
X429260Y668121D01*
X468046D01*
X469294Y666494D01*
X470965Y665212D01*
X472911Y664406D01*
X475000Y664131D01*
X477088Y664406D01*
X479034Y665212D01*
X480705Y666494D01*
X481988Y668165D01*
X482794Y670111D01*
X483069Y672200D01*
X482794Y674288D01*
X481988Y676234D01*
X480705Y677906D01*
X479471Y678852D01*
X479627Y680499D01*
X479780Y680837D01*
X479865Y680970D01*
X480097Y681016D01*
X481420Y681900D01*
X495136Y695616D01*
X495136Y695616D01*
X496020Y696939D01*
X496330Y698500D01*
Y777538D01*
X496020Y779098D01*
X495136Y780422D01*
X495136Y780422D01*
X485484Y790073D01*
X484161Y790958D01*
X482600Y791268D01*
X482600Y791268D01*
X481090D01*
X480411Y793268D01*
X480705Y793494D01*
X481988Y795165D01*
X482794Y797111D01*
X483069Y799200D01*
X482969Y799959D01*
X502511Y819502D01*
X615906D01*
X616734Y817502D01*
X602116Y802884D01*
X601232Y801561D01*
X600922Y800000D01*
X600922Y800000D01*
Y625630D01*
X600922Y625630D01*
X601232Y624069D01*
X602116Y622746D01*
X617130Y607732D01*
X617130Y607732D01*
X618453Y606848D01*
X620014Y606538D01*
X734608D01*
X735927Y605034D01*
X735922Y605000D01*
X736232Y602651D01*
X737138Y600461D01*
X738581Y598581D01*
X740461Y597139D01*
X742650Y596232D01*
X745000Y595922D01*
X747349Y596232D01*
X749539Y597139D01*
X751419Y598581D01*
X752861Y600461D01*
X753052Y600922D01*
X758279D01*
X759584Y599616D01*
X760907Y598732D01*
X762468Y598422D01*
X762468Y598422D01*
X768126D01*
X768245Y597520D01*
X769202Y595209D01*
X770725Y593225D01*
X772709Y591702D01*
X775020Y590745D01*
X777500Y590418D01*
X779980Y590745D01*
X782291Y591702D01*
X784276Y593225D01*
X785798Y595209D01*
X786756Y597520D01*
X786874Y598422D01*
X833126D01*
X833245Y597520D01*
X834202Y595209D01*
X835725Y593225D01*
X837709Y591702D01*
X840020Y590745D01*
X842500Y590418D01*
X844980Y590745D01*
X847291Y591702D01*
X849276Y593225D01*
X850798Y595209D01*
X851756Y597520D01*
X852082Y600000D01*
Y605000D01*
X851756Y607480D01*
X850798Y609791D01*
X849276Y611776D01*
X847291Y613298D01*
X844980Y614256D01*
X842500Y614582D01*
X840020Y614256D01*
X837709Y613298D01*
X835725Y611776D01*
X834202Y609791D01*
X833245Y607480D01*
X833126Y606578D01*
X786874D01*
X786756Y607480D01*
X785798Y609791D01*
X784276Y611776D01*
X782291Y613298D01*
X779980Y614256D01*
X777500Y614582D01*
X775020Y614256D01*
X772709Y613298D01*
X770725Y611776D01*
X769202Y609791D01*
X768245Y607480D01*
X768126Y606578D01*
X764157D01*
X762852Y607884D01*
X761529Y608768D01*
X759968Y609078D01*
X759968Y609078D01*
X753052D01*
X752861Y609539D01*
X751419Y611419D01*
X749539Y612862D01*
X747349Y613768D01*
X745000Y614078D01*
X742650Y613768D01*
X742166Y613568D01*
X740945Y614384D01*
X739384Y614694D01*
X739384Y614694D01*
X638039D01*
X637053Y616694D01*
X637568Y617365D01*
X638374Y619311D01*
X638649Y621400D01*
X638381Y623433D01*
X716884Y701936D01*
X717768Y703259D01*
X718079Y704820D01*
X718078Y704820D01*
Y892701D01*
X720052Y893518D01*
X720780Y894077D01*
X721561Y894232D01*
X722648Y894959D01*
X723670Y894689D01*
X724648Y894156D01*
Y801274D01*
X724648Y801274D01*
X724958Y799713D01*
X725842Y798390D01*
X736422Y787810D01*
X736232Y787350D01*
X735922Y785000D01*
X736232Y782651D01*
X737138Y780461D01*
X738581Y778581D01*
X740461Y777139D01*
X742650Y776232D01*
X745000Y775923D01*
X747349Y776232D01*
X749539Y777139D01*
X751419Y778581D01*
X752861Y780461D01*
X753052Y780922D01*
X758279D01*
X759585Y779616D01*
X759585Y779616D01*
X760908Y778732D01*
X762468Y778421D01*
X768126D01*
X768245Y777520D01*
X769202Y775209D01*
X770725Y773224D01*
X772709Y771702D01*
X775020Y770744D01*
X777500Y770418D01*
X779980Y770744D01*
X782291Y771702D01*
X784276Y773224D01*
X785798Y775209D01*
X786756Y777520D01*
X786874Y778421D01*
X833126D01*
X833245Y777520D01*
X834202Y775209D01*
X835725Y773224D01*
X837709Y771702D01*
X840020Y770744D01*
X842500Y770418D01*
X844980Y770744D01*
X847291Y771702D01*
X849276Y773224D01*
X850798Y775209D01*
X851756Y777520D01*
X852082Y780000D01*
Y785000D01*
X851756Y787480D01*
X850798Y789791D01*
X849276Y791775D01*
X847291Y793298D01*
X844980Y794255D01*
X842500Y794582D01*
X840020Y794255D01*
X837709Y793298D01*
X835725Y791775D01*
X834202Y789791D01*
X833245Y787480D01*
X833126Y786578D01*
X786874D01*
X786756Y787480D01*
X785798Y789791D01*
X784276Y791775D01*
X782291Y793298D01*
X779980Y794255D01*
X777500Y794582D01*
X775020Y794255D01*
X772709Y793298D01*
X770725Y791775D01*
X769202Y789791D01*
X768245Y787480D01*
X768126Y786578D01*
X764158D01*
X762852Y787884D01*
X761529Y788768D01*
X759968Y789079D01*
X759968Y789079D01*
X753052D01*
X752861Y789539D01*
X751419Y791419D01*
X749539Y792862D01*
X747349Y793768D01*
X745000Y794078D01*
X742650Y793768D01*
X742190Y793578D01*
X732804Y802963D01*
Y873600D01*
X734804Y874429D01*
X736423Y872810D01*
X736232Y872350D01*
X735923Y870000D01*
X736232Y867651D01*
X737139Y865462D01*
X738581Y863581D01*
X740462Y862139D01*
X742651Y861232D01*
X745000Y860923D01*
X747350Y861232D01*
X749539Y862139D01*
X751419Y863581D01*
X752862Y865462D01*
X753053Y865922D01*
X758279D01*
X759585Y864616D01*
X759585Y864616D01*
X760908Y863732D01*
X762468Y863422D01*
X768126D01*
X768245Y862520D01*
X769202Y860209D01*
X770725Y858224D01*
X772709Y856702D01*
X775020Y855744D01*
X777500Y855418D01*
X779980Y855744D01*
X782291Y856702D01*
X784276Y858224D01*
X785798Y860209D01*
X786756Y862520D01*
X786874Y863422D01*
X833126D01*
X833245Y862520D01*
X834202Y860209D01*
X835725Y858224D01*
X837709Y856702D01*
X840020Y855744D01*
X842500Y855418D01*
X844980Y855744D01*
X847291Y856702D01*
X849276Y858224D01*
X850798Y860209D01*
X851756Y862520D01*
X852082Y865000D01*
Y870000D01*
X851756Y872480D01*
X850798Y874791D01*
X849276Y876775D01*
X847291Y878298D01*
X844980Y879255D01*
X842500Y879582D01*
X840020Y879255D01*
X837709Y878298D01*
X835725Y876775D01*
X834202Y874791D01*
X833245Y872480D01*
X833126Y871578D01*
X786874D01*
X786756Y872480D01*
X785798Y874791D01*
X784276Y876775D01*
X782291Y878298D01*
X779980Y879255D01*
X777500Y879582D01*
X775020Y879255D01*
X772709Y878298D01*
X770725Y876775D01*
X769202Y874791D01*
X768245Y872480D01*
X768126Y871578D01*
X764158D01*
X762852Y872884D01*
X761529Y873768D01*
X759968Y874079D01*
X759968Y874079D01*
X753053D01*
X752862Y874539D01*
X751419Y876419D01*
X749539Y877862D01*
X747350Y878769D01*
X745000Y879078D01*
X742651Y878769D01*
X742190Y878578D01*
X740424Y880344D01*
Y914400D01*
X740424Y914400D01*
X740114Y915961D01*
X739230Y917284D01*
X727430Y929084D01*
X726107Y929968D01*
X724546Y930278D01*
X724546Y930278D01*
X637534D01*
X636286Y931906D01*
X635158Y932771D01*
X635148Y932894D01*
X635625Y934830D01*
X636561Y935016D01*
X637884Y935900D01*
X655108Y953124D01*
X655108Y953124D01*
X655959Y954397D01*
X656125Y954426D01*
X658003Y954192D01*
X658309Y951867D01*
X659518Y948948D01*
X661442Y946441D01*
X663948Y944518D01*
X666868Y943309D01*
X670000Y942896D01*
X673133Y943309D01*
X676052Y944518D01*
X678559Y946441D01*
X680482Y948948D01*
X681691Y951867D01*
X682104Y955000D01*
X681691Y958132D01*
X680482Y961052D01*
X678559Y963558D01*
X676052Y965482D01*
X673133Y966691D01*
X670000Y967103D01*
X666868Y966691D01*
X663948Y965482D01*
X661442Y963558D01*
X659518Y961052D01*
X658309Y958132D01*
X658303Y958083D01*
X656303Y958215D01*
Y967527D01*
X659295Y970520D01*
X694598D01*
X694598Y970520D01*
X696159Y970830D01*
X697482Y971714D01*
X709894Y984126D01*
X711867Y983309D01*
X715000Y982896D01*
X718132Y983309D01*
X721052Y984518D01*
X723558Y986441D01*
X725482Y988948D01*
X726691Y991867D01*
X727103Y995000D01*
X726691Y998132D01*
X725482Y1001052D01*
X723558Y1003558D01*
X721052Y1005482D01*
X720835Y1005572D01*
X721233Y1007571D01*
X741661D01*
X749126Y1000106D01*
X748309Y998132D01*
X747896Y995000D01*
X748309Y991867D01*
X749518Y988948D01*
X751441Y986441D01*
X753948Y984518D01*
X756867Y983309D01*
X760000Y982896D01*
X763133Y983309D01*
X766052Y984518D01*
X768559Y986441D01*
X770482Y988948D01*
X771691Y991867D01*
X772104Y995000D01*
X771691Y998132D01*
X770482Y1001052D01*
X768559Y1003558D01*
X766052Y1005482D01*
X763133Y1006691D01*
X760000Y1007103D01*
X756867Y1006691D01*
X754894Y1005873D01*
X746234Y1014534D01*
X744911Y1015418D01*
X743350Y1015728D01*
X743350Y1015728D01*
X626749D01*
X626748Y1015728D01*
X625188Y1015418D01*
X623865Y1014534D01*
X623865Y1014534D01*
X617116Y1007785D01*
X616232Y1006462D01*
X615922Y1004901D01*
X615922Y1004901D01*
Y998679D01*
X615170Y998211D01*
X613170Y999323D01*
Y1022403D01*
X620786Y1030018D01*
X622680Y1029084D01*
X622511Y1027800D01*
X622786Y1025711D01*
X623592Y1023765D01*
X624874Y1022094D01*
X626545Y1020812D01*
X628492Y1020006D01*
X630580Y1019731D01*
X632668Y1020006D01*
X634614Y1020812D01*
X636286Y1022094D01*
X637568Y1023765D01*
X638374Y1025711D01*
X638444Y1026245D01*
X640556Y1026962D01*
X643480Y1024038D01*
X643480Y1024038D01*
X644803Y1023154D01*
X646364Y1022844D01*
X646364Y1022844D01*
X807991D01*
X808046Y1022711D01*
X809385Y1020967D01*
X811129Y1019628D01*
X813160Y1018787D01*
X815340Y1018500D01*
X817520Y1018787D01*
X819551Y1019628D01*
X821295Y1020967D01*
X822634Y1022711D01*
X823475Y1024742D01*
X823762Y1026922D01*
X823475Y1029102D01*
X822634Y1031133D01*
X821295Y1032877D01*
X819551Y1034216D01*
X817520Y1035057D01*
X815340Y1035344D01*
X815063Y1035308D01*
X814270Y1037221D01*
X814558Y1037441D01*
X816482Y1039948D01*
X817691Y1042867D01*
X818103Y1046000D01*
X817691Y1049133D01*
X816482Y1052052D01*
X814558Y1054558D01*
X812052Y1056482D01*
X809133Y1057691D01*
X806000Y1058103D01*
X802867Y1057691D01*
X800894Y1056874D01*
X772336Y1085432D01*
X771013Y1086316D01*
X769452Y1086626D01*
X769452Y1086626D01*
X738558D01*
X738160Y1088626D01*
X739791Y1089302D01*
X741775Y1090825D01*
X743298Y1092809D01*
X744255Y1095120D01*
X744582Y1097600D01*
X744255Y1100080D01*
X743298Y1102391D01*
X741775Y1104376D01*
X739791Y1105898D01*
X737480Y1106855D01*
X735000Y1107182D01*
D02*
G37*
G36*
X313000Y1072330D02*
Y1058000D01*
X327329D01*
X327286Y1058439D01*
X326283Y1061745D01*
X324654Y1064792D01*
X322463Y1067463D01*
X319792Y1069655D01*
X316745Y1071283D01*
X313438Y1072286D01*
X313000Y1072330D01*
D02*
G37*
G36*
X307000D02*
X306561Y1072286D01*
X303255Y1071283D01*
X300208Y1069655D01*
X297537Y1067463D01*
X295345Y1064792D01*
X293717Y1061745D01*
X292714Y1058439D01*
X292670Y1058000D01*
X307000D01*
Y1072330D01*
D02*
G37*
G36*
X327329Y1052000D02*
X313000D01*
Y1037671D01*
X313438Y1037714D01*
X316745Y1038717D01*
X319792Y1040346D01*
X322463Y1042538D01*
X324654Y1045208D01*
X326283Y1048255D01*
X327286Y1051562D01*
X327329Y1052000D01*
D02*
G37*
G36*
X307000D02*
X292670D01*
X292714Y1051562D01*
X293717Y1048255D01*
X295345Y1045208D01*
X297537Y1042538D01*
X300208Y1040346D01*
X303255Y1038717D01*
X306561Y1037714D01*
X307000Y1037671D01*
Y1052000D01*
D02*
G37*
G36*
X633400Y1107182D02*
X630920Y1106855D01*
X628609Y1105898D01*
X626624Y1104376D01*
X625102Y1102391D01*
X624144Y1100080D01*
X623818Y1097600D01*
X624144Y1095120D01*
X625102Y1092809D01*
X626624Y1090825D01*
X628609Y1089302D01*
X630920Y1088345D01*
X633400Y1088018D01*
X635880Y1088345D01*
X636592Y1088640D01*
X665634Y1059598D01*
X665634Y1059598D01*
X666250Y1059186D01*
X666168Y1056987D01*
X664948Y1056482D01*
X662442Y1054559D01*
X660518Y1052052D01*
X659309Y1049133D01*
X658897Y1046000D01*
X659309Y1042868D01*
X660518Y1039948D01*
X662442Y1037442D01*
X664948Y1035518D01*
X667868Y1034309D01*
X671000Y1033897D01*
X674133Y1034309D01*
X677052Y1035518D01*
X679559Y1037442D01*
X681482Y1039948D01*
X682691Y1042868D01*
X683104Y1046000D01*
X682691Y1049133D01*
X681482Y1052052D01*
X679559Y1054559D01*
X677154Y1056404D01*
X677141Y1056610D01*
X677988Y1058404D01*
X697829D01*
X705126Y1051106D01*
X704309Y1049133D01*
X703896Y1046000D01*
X704309Y1042867D01*
X705518Y1039948D01*
X707442Y1037441D01*
X709948Y1035518D01*
X712868Y1034309D01*
X716000Y1033896D01*
X719133Y1034309D01*
X722052Y1035518D01*
X724559Y1037441D01*
X726482Y1039948D01*
X727691Y1042867D01*
X728104Y1046000D01*
X727691Y1049133D01*
X726482Y1052052D01*
X724559Y1054558D01*
X722052Y1056482D01*
X719133Y1057691D01*
X716000Y1058103D01*
X712868Y1057691D01*
X710894Y1056874D01*
X702402Y1065366D01*
X701079Y1066250D01*
X699518Y1066560D01*
X699518Y1066560D01*
X670207D01*
X642360Y1094407D01*
X642655Y1095120D01*
X642982Y1097600D01*
X642655Y1100080D01*
X641698Y1102391D01*
X640175Y1104376D01*
X638191Y1105898D01*
X635880Y1106855D01*
X633400Y1107182D01*
D02*
G37*
G36*
X328000Y1024084D02*
Y1018000D01*
X334084D01*
X333333Y1019811D01*
X331804Y1021804D01*
X329811Y1023333D01*
X328000Y1024084D01*
D02*
G37*
G36*
X322000D02*
X320189Y1023333D01*
X318196Y1021804D01*
X316667Y1019811D01*
X315917Y1018000D01*
X322000D01*
Y1024084D01*
D02*
G37*
G36*
X334084Y1012000D02*
X328000D01*
Y1005917D01*
X329811Y1006667D01*
X331804Y1008196D01*
X333333Y1010189D01*
X334084Y1012000D01*
D02*
G37*
G36*
X367000D02*
X360917D01*
X361667Y1010189D01*
X363196Y1008196D01*
X365189Y1006667D01*
X367000Y1005917D01*
Y1012000D01*
D02*
G37*
G36*
X322000D02*
X315917D01*
X316667Y1010189D01*
X318196Y1008196D01*
X320189Y1006667D01*
X322000Y1005917D01*
Y1012000D01*
D02*
G37*
G36*
X805000Y1007103D02*
X801868Y1006691D01*
X798948Y1005482D01*
X796442Y1003558D01*
X794518Y1001052D01*
X793309Y998132D01*
X792897Y995000D01*
X793309Y991867D01*
X794518Y988948D01*
X796442Y986441D01*
X798948Y984518D01*
X801868Y983309D01*
X805000Y982896D01*
X808133Y983309D01*
X811052Y984518D01*
X813559Y986441D01*
X815482Y988948D01*
X816691Y991867D01*
X817104Y995000D01*
X816691Y998132D01*
X815482Y1001052D01*
X813559Y1003558D01*
X811052Y1005482D01*
X808133Y1006691D01*
X805000Y1007103D01*
D02*
G37*
G36*
X760000Y967103D02*
X756867Y966691D01*
X753948Y965482D01*
X751441Y963558D01*
X749518Y961052D01*
X748309Y958132D01*
X747896Y955000D01*
X748309Y951867D01*
X749518Y948948D01*
X751441Y946441D01*
X753948Y944518D01*
X756867Y943309D01*
X760000Y942896D01*
X763133Y943309D01*
X766052Y944518D01*
X768559Y946441D01*
X770482Y948948D01*
X771691Y951867D01*
X772104Y955000D01*
X771691Y958132D01*
X770482Y961052D01*
X768559Y963558D01*
X766052Y965482D01*
X763133Y966691D01*
X760000Y967103D01*
D02*
G37*
G36*
X715000D02*
X711867Y966691D01*
X708948Y965482D01*
X706441Y963558D01*
X704518Y961052D01*
X703309Y958132D01*
X702896Y955000D01*
X703309Y951867D01*
X704518Y948948D01*
X706441Y946441D01*
X708948Y944518D01*
X711867Y943309D01*
X715000Y942896D01*
X718132Y943309D01*
X721052Y944518D01*
X723558Y946441D01*
X725482Y948948D01*
X726691Y951867D01*
X727103Y955000D01*
X726691Y958132D01*
X725482Y961052D01*
X723558Y963558D01*
X721052Y965482D01*
X718132Y966691D01*
X715000Y967103D01*
D02*
G37*
G36*
X447000Y924084D02*
X445189Y923334D01*
X443196Y921805D01*
X441667Y919812D01*
X440917Y918000D01*
X447000D01*
Y924084D01*
D02*
G37*
G36*
X407000Y924084D02*
X405189Y923334D01*
X403196Y921805D01*
X401667Y919812D01*
X400917Y918000D01*
X407000D01*
Y924084D01*
D02*
G37*
G36*
Y912001D02*
X400917D01*
X401667Y910189D01*
X403196Y908196D01*
X405189Y906667D01*
X407000Y905917D01*
Y912001D01*
D02*
G37*
G36*
X447000Y912001D02*
X440917D01*
X441667Y910189D01*
X443196Y908196D01*
X445189Y906667D01*
X447000Y905917D01*
Y912001D01*
D02*
G37*
G36*
X804000Y916104D02*
X800867Y915691D01*
X797948Y914482D01*
X795441Y912559D01*
X793518Y910052D01*
X792309Y907133D01*
X791896Y904000D01*
X792309Y900868D01*
X793518Y897948D01*
X795441Y895442D01*
X797948Y893518D01*
X800867Y892309D01*
X804000Y891897D01*
X807132Y892309D01*
X810052Y893518D01*
X812558Y895442D01*
X814482Y897948D01*
X815691Y900868D01*
X816104Y904000D01*
X815691Y907133D01*
X814482Y910052D01*
X812558Y912559D01*
X810052Y914482D01*
X807132Y915691D01*
X804000Y916104D01*
D02*
G37*
G36*
X759000D02*
X755868Y915691D01*
X752949Y914482D01*
X750442Y912559D01*
X748518Y910052D01*
X747309Y907133D01*
X746897Y904000D01*
X747309Y900868D01*
X748518Y897948D01*
X750442Y895442D01*
X752949Y893518D01*
X755868Y892309D01*
X759000Y891897D01*
X762133Y892309D01*
X765052Y893518D01*
X767559Y895442D01*
X769482Y897948D01*
X770691Y900868D01*
X771104Y904000D01*
X770691Y907133D01*
X769482Y910052D01*
X767559Y912559D01*
X765052Y914482D01*
X762133Y915691D01*
X759000Y916104D01*
D02*
G37*
G36*
X335000Y907104D02*
X331867Y906691D01*
X328948Y905482D01*
X326442Y903559D01*
X324518Y901052D01*
X323309Y898133D01*
X322896Y895000D01*
X323309Y891867D01*
X324126Y889894D01*
X303284Y869052D01*
X302511Y869372D01*
X300000Y869703D01*
X297489Y869372D01*
X295148Y868403D01*
X293139Y866861D01*
X291597Y864851D01*
X290627Y862511D01*
X290297Y860000D01*
X290627Y857488D01*
X291597Y855148D01*
X293139Y853139D01*
X295148Y851597D01*
X297489Y850627D01*
X300000Y850297D01*
X302511Y850627D01*
X304851Y851597D01*
X306861Y853139D01*
X308403Y855148D01*
X309372Y857488D01*
X309703Y860000D01*
X309372Y862511D01*
X309052Y863284D01*
X329894Y884126D01*
X331867Y883309D01*
X335000Y882896D01*
X338133Y883309D01*
X341052Y884518D01*
X343559Y886441D01*
X345482Y888948D01*
X346691Y891867D01*
X347104Y895000D01*
X346691Y898133D01*
X345482Y901052D01*
X343559Y903559D01*
X341052Y905482D01*
X338133Y906691D01*
X335000Y907104D01*
D02*
G37*
G36*
X278000Y869754D02*
Y863000D01*
X284755D01*
X283875Y865124D01*
X282246Y867246D01*
X280124Y868875D01*
X278000Y869754D01*
D02*
G37*
G36*
X272000D02*
X269876Y868875D01*
X267754Y867246D01*
X266126Y865124D01*
X265246Y863000D01*
X272000D01*
Y869754D01*
D02*
G37*
G36*
X284755Y857000D02*
X278000D01*
Y850245D01*
X280124Y851125D01*
X282246Y852754D01*
X283875Y854876D01*
X284755Y857000D01*
D02*
G37*
G36*
X272000D02*
X265246D01*
X266126Y854876D01*
X267754Y852754D01*
X269876Y851125D01*
X272000Y850245D01*
Y857000D01*
D02*
G37*
G36*
X845500Y834625D02*
Y825500D01*
X852561D01*
X852282Y827621D01*
X851270Y830064D01*
X849661Y832161D01*
X847563Y833770D01*
X845500Y834625D01*
D02*
G37*
G36*
X839500D02*
X837437Y833770D01*
X835340Y832161D01*
X833730Y830064D01*
X832719Y827621D01*
X832439Y825500D01*
X839500D01*
Y834625D01*
D02*
G37*
G36*
X780500D02*
Y825500D01*
X787561D01*
X787282Y827621D01*
X786270Y830064D01*
X784661Y832161D01*
X782563Y833770D01*
X780500Y834625D01*
D02*
G37*
G36*
X774500D02*
X772437Y833770D01*
X770340Y832161D01*
X768730Y830064D01*
X767719Y827621D01*
X767439Y825500D01*
X774500D01*
Y834625D01*
D02*
G37*
G36*
X748000Y829083D02*
Y823000D01*
X754084D01*
X753333Y824811D01*
X751804Y826804D01*
X749811Y828333D01*
X748000Y829083D01*
D02*
G37*
G36*
X742000D02*
X740189Y828333D01*
X738196Y826804D01*
X736667Y824811D01*
X735917Y823000D01*
X742000D01*
Y829083D01*
D02*
G37*
G36*
X335000Y857104D02*
X331867Y856691D01*
X328948Y855482D01*
X326442Y853559D01*
X324518Y851052D01*
X323309Y848133D01*
X322896Y845000D01*
X323309Y841868D01*
X324518Y838948D01*
X326442Y836442D01*
X328650Y834747D01*
X329296Y832768D01*
X329330Y832598D01*
X315811Y819079D01*
X308723D01*
X308403Y819852D01*
X306861Y821861D01*
X304851Y823403D01*
X302511Y824372D01*
X300000Y824703D01*
X297489Y824372D01*
X295148Y823403D01*
X293139Y821861D01*
X291597Y819852D01*
X290627Y817512D01*
X290297Y815000D01*
X290627Y812489D01*
X291597Y810149D01*
X293139Y808139D01*
X295148Y806597D01*
X297489Y805628D01*
X300000Y805297D01*
X302511Y805628D01*
X304851Y806597D01*
X306861Y808139D01*
X308403Y810149D01*
X308723Y810922D01*
X317500D01*
X317500Y810922D01*
X319061Y811232D01*
X320384Y812116D01*
X337884Y829616D01*
X338768Y830939D01*
X339078Y832500D01*
X339078Y832500D01*
Y833701D01*
X341052Y834518D01*
X343559Y836442D01*
X345482Y838948D01*
X346691Y841868D01*
X347104Y845000D01*
X346691Y848133D01*
X345482Y851052D01*
X343559Y853559D01*
X341052Y855482D01*
X338133Y856691D01*
X335000Y857104D01*
D02*
G37*
G36*
X278000Y824755D02*
Y818000D01*
X284755D01*
X283875Y820124D01*
X282246Y822246D01*
X280124Y823875D01*
X278000Y824755D01*
D02*
G37*
G36*
X272000D02*
X269876Y823875D01*
X267754Y822246D01*
X266126Y820124D01*
X265246Y818000D01*
X272000D01*
Y824755D01*
D02*
G37*
G36*
X754084Y817000D02*
X748000D01*
Y810917D01*
X749811Y811667D01*
X751804Y813196D01*
X753333Y815189D01*
X754084Y817000D01*
D02*
G37*
G36*
X742000D02*
X735917D01*
X736667Y815189D01*
X738196Y813196D01*
X740189Y811667D01*
X742000Y810917D01*
Y817000D01*
D02*
G37*
G36*
X852561Y819500D02*
X845500D01*
Y810376D01*
X847563Y811230D01*
X849661Y812840D01*
X851270Y814937D01*
X852282Y817379D01*
X852561Y819500D01*
D02*
G37*
G36*
X839500D02*
X832439D01*
X832719Y817379D01*
X833730Y814937D01*
X835340Y812840D01*
X837437Y811230D01*
X839500Y810376D01*
Y819500D01*
D02*
G37*
G36*
X787561D02*
X780500D01*
Y810376D01*
X782563Y811230D01*
X784661Y812840D01*
X786270Y814937D01*
X787282Y817379D01*
X787561Y819500D01*
D02*
G37*
G36*
X774500D02*
X767439D01*
X767719Y817379D01*
X768730Y814937D01*
X770340Y812840D01*
X772437Y811230D01*
X774500Y810376D01*
Y819500D01*
D02*
G37*
G36*
X284755Y812000D02*
X278000D01*
Y805246D01*
X280124Y806125D01*
X282246Y807754D01*
X283875Y809876D01*
X284755Y812000D01*
D02*
G37*
G36*
X272000D02*
X265246D01*
X266126Y809876D01*
X267754Y807754D01*
X269876Y806125D01*
X272000Y805246D01*
Y812000D01*
D02*
G37*
G36*
X335000Y807104D02*
X331867Y806691D01*
X328948Y805482D01*
X326442Y803559D01*
X324518Y801052D01*
X323309Y798133D01*
X322896Y795000D01*
X323309Y791868D01*
X324126Y789894D01*
X310056Y775823D01*
X307470Y776067D01*
X306861Y776861D01*
X304851Y778403D01*
X302511Y779372D01*
X300000Y779703D01*
X297489Y779372D01*
X295148Y778403D01*
X293139Y776861D01*
X291597Y774852D01*
X290627Y772511D01*
X290297Y770000D01*
X290627Y767489D01*
X291597Y765148D01*
X293139Y763139D01*
X295148Y761597D01*
X297489Y760628D01*
X300000Y760297D01*
X302511Y760628D01*
X304851Y761597D01*
X306861Y763139D01*
X308403Y765148D01*
X308723Y765922D01*
X310000D01*
X310000Y765922D01*
X311561Y766232D01*
X312884Y767116D01*
X329894Y784127D01*
X331867Y783309D01*
X335000Y782897D01*
X338133Y783309D01*
X341052Y784518D01*
X343559Y786442D01*
X345482Y788948D01*
X346691Y791868D01*
X347104Y795000D01*
X346691Y798133D01*
X345482Y801052D01*
X343559Y803559D01*
X341052Y805482D01*
X338133Y806691D01*
X335000Y807104D01*
D02*
G37*
G36*
X278000Y779754D02*
Y773000D01*
X284755D01*
X283875Y775124D01*
X282246Y777246D01*
X280124Y778875D01*
X278000Y779754D01*
D02*
G37*
G36*
X272000D02*
X269876Y778875D01*
X267754Y777246D01*
X266126Y775124D01*
X265246Y773000D01*
X272000D01*
Y779754D01*
D02*
G37*
G36*
X284755Y767000D02*
X278000D01*
Y760246D01*
X280124Y761125D01*
X282246Y762754D01*
X283875Y764876D01*
X284755Y767000D01*
D02*
G37*
G36*
X272000D02*
X265246D01*
X266126Y764876D01*
X267754Y762754D01*
X269876Y761125D01*
X272000Y760246D01*
Y767000D01*
D02*
G37*
G36*
X335000Y757103D02*
X331867Y756691D01*
X328948Y755482D01*
X326442Y753558D01*
X324518Y751052D01*
X323701Y749078D01*
X320000D01*
X320000Y749078D01*
X318439Y748768D01*
X317116Y747884D01*
X317116Y747884D01*
X303284Y734052D01*
X302511Y734372D01*
X300000Y734703D01*
X297489Y734372D01*
X295148Y733403D01*
X293139Y731861D01*
X291597Y729851D01*
X290627Y727511D01*
X290297Y725000D01*
X290627Y722488D01*
X291597Y720148D01*
X293139Y718139D01*
X295148Y716597D01*
X297489Y715627D01*
X300000Y715297D01*
X302511Y715627D01*
X304851Y716597D01*
X306861Y718139D01*
X308403Y720148D01*
X309372Y722488D01*
X309703Y725000D01*
X309372Y727511D01*
X309052Y728284D01*
X321689Y740921D01*
X323701D01*
X324518Y738948D01*
X326442Y736441D01*
X328948Y734518D01*
X331867Y733309D01*
X335000Y732896D01*
X338133Y733309D01*
X341052Y734518D01*
X343559Y736441D01*
X345482Y738948D01*
X346691Y741867D01*
X347104Y745000D01*
X346691Y748132D01*
X345482Y751052D01*
X343559Y753558D01*
X341052Y755482D01*
X338133Y756691D01*
X335000Y757103D01*
D02*
G37*
G36*
X845500Y749625D02*
Y740500D01*
X852561D01*
X852282Y742621D01*
X851270Y745063D01*
X849661Y747161D01*
X847563Y748770D01*
X845500Y749625D01*
D02*
G37*
G36*
X839500D02*
X837437Y748770D01*
X835340Y747161D01*
X833730Y745063D01*
X832719Y742621D01*
X832439Y740500D01*
X839500D01*
Y749625D01*
D02*
G37*
G36*
X780500D02*
Y740500D01*
X787561D01*
X787282Y742621D01*
X786270Y745063D01*
X784661Y747161D01*
X782563Y748770D01*
X780500Y749625D01*
D02*
G37*
G36*
X774500D02*
X772437Y748770D01*
X770340Y747161D01*
X768730Y745063D01*
X767719Y742621D01*
X767439Y740500D01*
X774500D01*
Y749625D01*
D02*
G37*
G36*
X748000Y744083D02*
Y738000D01*
X754083D01*
X753333Y739811D01*
X751804Y741804D01*
X749811Y743333D01*
X748000Y744083D01*
D02*
G37*
G36*
X742000D02*
X740189Y743333D01*
X738196Y741804D01*
X736667Y739811D01*
X735916Y738000D01*
X742000D01*
Y744083D01*
D02*
G37*
G36*
X278000Y734754D02*
Y728000D01*
X284755D01*
X283875Y730124D01*
X282246Y732246D01*
X280124Y733875D01*
X278000Y734754D01*
D02*
G37*
G36*
X272000D02*
X269876Y733875D01*
X267754Y732246D01*
X266126Y730124D01*
X265246Y728000D01*
X272000D01*
Y734754D01*
D02*
G37*
G36*
X754083Y732000D02*
X748000D01*
Y725916D01*
X749811Y726667D01*
X751804Y728196D01*
X753333Y730189D01*
X754083Y732000D01*
D02*
G37*
G36*
X742000D02*
X735916D01*
X736667Y730189D01*
X738196Y728196D01*
X740189Y726667D01*
X742000Y725916D01*
Y732000D01*
D02*
G37*
G36*
X852561Y734500D02*
X845500D01*
Y725376D01*
X847563Y726230D01*
X849661Y727840D01*
X851270Y729937D01*
X852282Y732379D01*
X852561Y734500D01*
D02*
G37*
G36*
X839500D02*
X832439D01*
X832719Y732379D01*
X833730Y729937D01*
X835340Y727840D01*
X837437Y726230D01*
X839500Y725376D01*
Y734500D01*
D02*
G37*
G36*
X787561D02*
X780500D01*
Y725376D01*
X782563Y726230D01*
X784661Y727840D01*
X786270Y729937D01*
X787282Y732379D01*
X787561Y734500D01*
D02*
G37*
G36*
X774500D02*
X767439D01*
X767719Y732379D01*
X768730Y729937D01*
X770340Y727840D01*
X772437Y726230D01*
X774500Y725376D01*
Y734500D01*
D02*
G37*
G36*
X284755Y722000D02*
X278000D01*
Y715245D01*
X280124Y716125D01*
X282246Y717754D01*
X283875Y719876D01*
X284755Y722000D01*
D02*
G37*
G36*
X272000D02*
X265246D01*
X266126Y719876D01*
X267754Y717754D01*
X269876Y716125D01*
X272000Y715245D01*
Y722000D01*
D02*
G37*
G36*
X335000Y707103D02*
X331867Y706691D01*
X328948Y705482D01*
X326442Y703558D01*
X324518Y701052D01*
X323701Y699078D01*
X315000D01*
X315000Y699078D01*
X313439Y698768D01*
X312116Y697884D01*
X312116Y697884D01*
X303284Y689052D01*
X302511Y689372D01*
X300000Y689703D01*
X297489Y689372D01*
X295148Y688403D01*
X293139Y686861D01*
X291597Y684852D01*
X290627Y682512D01*
X290297Y680000D01*
X290627Y677489D01*
X291597Y675149D01*
X293139Y673139D01*
X295148Y671597D01*
X297489Y670628D01*
X300000Y670297D01*
X302511Y670628D01*
X304851Y671597D01*
X306861Y673139D01*
X308403Y675149D01*
X309372Y677489D01*
X309703Y680000D01*
X309372Y682512D01*
X309052Y683285D01*
X316689Y690921D01*
X323701D01*
X324518Y688948D01*
X326442Y686441D01*
X328948Y684518D01*
X331867Y683309D01*
X335000Y682896D01*
X338133Y683309D01*
X341052Y684518D01*
X343559Y686441D01*
X345482Y688948D01*
X346691Y691867D01*
X347104Y695000D01*
X346691Y698132D01*
X345482Y701052D01*
X343559Y703558D01*
X341052Y705482D01*
X338133Y706691D01*
X335000Y707103D01*
D02*
G37*
G36*
X842500Y704582D02*
X840020Y704256D01*
X837709Y703298D01*
X835725Y701776D01*
X834202Y699791D01*
X833245Y697480D01*
X833126Y696578D01*
X786874D01*
X786756Y697480D01*
X785798Y699791D01*
X784276Y701776D01*
X782291Y703298D01*
X779980Y704256D01*
X777500Y704582D01*
X775020Y704256D01*
X772709Y703298D01*
X770725Y701776D01*
X769202Y699791D01*
X768245Y697480D01*
X768126Y696578D01*
X764157D01*
X762852Y697884D01*
X761529Y698768D01*
X759968Y699078D01*
X759968Y699078D01*
X753052D01*
X752861Y699539D01*
X751419Y701419D01*
X749539Y702861D01*
X747349Y703768D01*
X745000Y704078D01*
X742650Y703768D01*
X740461Y702861D01*
X738581Y701419D01*
X737138Y699539D01*
X736232Y697349D01*
X735922Y695000D01*
X736232Y692650D01*
X737138Y690461D01*
X738581Y688581D01*
X740461Y687138D01*
X742650Y686232D01*
X745000Y685922D01*
X747349Y686232D01*
X749539Y687138D01*
X751419Y688581D01*
X752861Y690461D01*
X753052Y690921D01*
X758279D01*
X759584Y689616D01*
X760907Y688732D01*
X762468Y688422D01*
X762468Y688422D01*
X768126D01*
X768245Y687520D01*
X769202Y685209D01*
X770725Y683224D01*
X772709Y681702D01*
X775020Y680744D01*
X777500Y680418D01*
X779980Y680744D01*
X782291Y681702D01*
X784276Y683224D01*
X785798Y685209D01*
X786756Y687520D01*
X786874Y688422D01*
X833126D01*
X833245Y687520D01*
X834202Y685209D01*
X835725Y683224D01*
X837709Y681702D01*
X840020Y680744D01*
X842500Y680418D01*
X844980Y680744D01*
X847291Y681702D01*
X849276Y683224D01*
X850798Y685209D01*
X851756Y687520D01*
X852082Y690000D01*
Y695000D01*
X851756Y697480D01*
X850798Y699791D01*
X849276Y701776D01*
X847291Y703298D01*
X844980Y704256D01*
X842500Y704582D01*
D02*
G37*
G36*
X278000Y689755D02*
Y683000D01*
X284755D01*
X283875Y685124D01*
X282246Y687246D01*
X280124Y688875D01*
X278000Y689755D01*
D02*
G37*
G36*
X272000D02*
X269876Y688875D01*
X267754Y687246D01*
X266126Y685124D01*
X265246Y683000D01*
X272000D01*
Y689755D01*
D02*
G37*
G36*
X284755Y677000D02*
X278000D01*
Y670246D01*
X280124Y671125D01*
X282246Y672754D01*
X283875Y674876D01*
X284755Y677000D01*
D02*
G37*
G36*
X272000D02*
X265246D01*
X266126Y674876D01*
X267754Y672754D01*
X269876Y671125D01*
X272000Y670246D01*
Y677000D01*
D02*
G37*
G36*
X845500Y659624D02*
Y650500D01*
X852561D01*
X852282Y652621D01*
X851270Y655063D01*
X849661Y657160D01*
X847563Y658770D01*
X845500Y659624D01*
D02*
G37*
G36*
X839500D02*
X837437Y658770D01*
X835340Y657160D01*
X833730Y655063D01*
X832719Y652621D01*
X832439Y650500D01*
X839500D01*
Y659624D01*
D02*
G37*
G36*
X780500D02*
Y650500D01*
X787561D01*
X787282Y652621D01*
X786270Y655063D01*
X784661Y657160D01*
X782563Y658770D01*
X780500Y659624D01*
D02*
G37*
G36*
X774500D02*
X772437Y658770D01*
X770340Y657160D01*
X768730Y655063D01*
X767719Y652621D01*
X767439Y650500D01*
X774500D01*
Y659624D01*
D02*
G37*
G36*
X335000Y657104D02*
X331867Y656691D01*
X328948Y655482D01*
X326442Y653559D01*
X324518Y651052D01*
X323701Y649078D01*
X310000D01*
X310000Y649078D01*
X308439Y648768D01*
X307116Y647884D01*
X303284Y644052D01*
X302511Y644372D01*
X300000Y644703D01*
X297489Y644372D01*
X295148Y643403D01*
X293139Y641861D01*
X291597Y639851D01*
X290627Y637511D01*
X290297Y635000D01*
X290627Y632489D01*
X291597Y630149D01*
X293139Y628139D01*
X295148Y626597D01*
X297489Y625628D01*
X300000Y625297D01*
X302511Y625628D01*
X304851Y626597D01*
X306861Y628139D01*
X308403Y630149D01*
X309372Y632489D01*
X309703Y635000D01*
X309372Y637511D01*
X309052Y638284D01*
X311689Y640922D01*
X323701D01*
X324518Y638948D01*
X326442Y636441D01*
X328948Y634518D01*
X331867Y633309D01*
X335000Y632896D01*
X338133Y633309D01*
X341052Y634518D01*
X343559Y636441D01*
X345482Y638948D01*
X346691Y641867D01*
X347104Y645000D01*
X346691Y648133D01*
X345482Y651052D01*
X343559Y653559D01*
X341052Y655482D01*
X338133Y656691D01*
X335000Y657104D01*
D02*
G37*
G36*
X748000Y654083D02*
Y648000D01*
X754083D01*
X753333Y649811D01*
X751804Y651804D01*
X749811Y653333D01*
X748000Y654083D01*
D02*
G37*
G36*
X742000D02*
X740189Y653333D01*
X738196Y651804D01*
X736667Y649811D01*
X735916Y648000D01*
X742000D01*
Y654083D01*
D02*
G37*
G36*
X278000Y644754D02*
Y638000D01*
X284755D01*
X283875Y640124D01*
X282246Y642246D01*
X280124Y643875D01*
X278000Y644754D01*
D02*
G37*
G36*
X272000D02*
X269876Y643875D01*
X267754Y642246D01*
X266126Y640124D01*
X265246Y638000D01*
X272000D01*
Y644754D01*
D02*
G37*
G36*
X754083Y642000D02*
X748000D01*
Y635917D01*
X749811Y636667D01*
X751804Y638196D01*
X753333Y640189D01*
X754083Y642000D01*
D02*
G37*
G36*
X742000D02*
X735916D01*
X736667Y640189D01*
X738196Y638196D01*
X740189Y636667D01*
X742000Y635917D01*
Y642000D01*
D02*
G37*
G36*
X852561Y644500D02*
X845500D01*
Y635375D01*
X847563Y636230D01*
X849661Y637839D01*
X851270Y639936D01*
X852282Y642379D01*
X852561Y644500D01*
D02*
G37*
G36*
X839500D02*
X832439D01*
X832719Y642379D01*
X833730Y639936D01*
X835340Y637839D01*
X837437Y636230D01*
X839500Y635375D01*
Y644500D01*
D02*
G37*
G36*
X787561D02*
X780500D01*
Y635375D01*
X782563Y636230D01*
X784661Y637839D01*
X786270Y639936D01*
X787282Y642379D01*
X787561Y644500D01*
D02*
G37*
G36*
X774500D02*
X767439D01*
X767719Y642379D01*
X768730Y639936D01*
X770340Y637839D01*
X772437Y636230D01*
X774500Y635375D01*
Y644500D01*
D02*
G37*
G36*
X284755Y632000D02*
X278000D01*
Y625246D01*
X280124Y626125D01*
X282246Y627754D01*
X283875Y629876D01*
X284755Y632000D01*
D02*
G37*
G36*
X272000D02*
X265246D01*
X266126Y629876D01*
X267754Y627754D01*
X269876Y626125D01*
X272000Y625246D01*
Y632000D01*
D02*
G37*
G36*
X335000Y607104D02*
X331867Y606691D01*
X328948Y605482D01*
X326442Y603559D01*
X324518Y601052D01*
X323701Y599078D01*
X319960D01*
X319960Y599078D01*
X318400Y598768D01*
X317076Y597884D01*
X313271Y594078D01*
X308723D01*
X308403Y594851D01*
X306861Y596861D01*
X304851Y598403D01*
X302511Y599372D01*
X300000Y599703D01*
X297489Y599372D01*
X295148Y598403D01*
X293139Y596861D01*
X291597Y594851D01*
X290627Y592511D01*
X290297Y590000D01*
X290627Y587489D01*
X291597Y585148D01*
X293139Y583139D01*
X295148Y581597D01*
X297489Y580628D01*
X300000Y580297D01*
X302511Y580628D01*
X304851Y581597D01*
X306861Y583139D01*
X308403Y585148D01*
X308723Y585922D01*
X314960D01*
X314960Y585922D01*
X316521Y586232D01*
X317844Y587116D01*
X321650Y590922D01*
X323701D01*
X324518Y588948D01*
X326442Y586442D01*
X328948Y584518D01*
X331867Y583309D01*
X335000Y582896D01*
X338133Y583309D01*
X341052Y584518D01*
X343559Y586442D01*
X345482Y588948D01*
X346691Y591867D01*
X347104Y595000D01*
X346691Y598133D01*
X345482Y601052D01*
X343559Y603559D01*
X341052Y605482D01*
X338133Y606691D01*
X335000Y607104D01*
D02*
G37*
G36*
X278000Y599754D02*
Y593000D01*
X284755D01*
X283875Y595124D01*
X282246Y597246D01*
X280124Y598875D01*
X278000Y599754D01*
D02*
G37*
G36*
X272000D02*
X269876Y598875D01*
X267754Y597246D01*
X266126Y595124D01*
X265246Y593000D01*
X272000D01*
Y599754D01*
D02*
G37*
G36*
X630580Y604069D02*
X628492Y603794D01*
X626545Y602988D01*
X624874Y601706D01*
X623592Y600034D01*
X622786Y598088D01*
X622511Y596000D01*
X622786Y593911D01*
X623592Y591965D01*
X624874Y590294D01*
X626545Y589012D01*
X628492Y588206D01*
X630580Y587931D01*
X632668Y588206D01*
X634614Y589012D01*
X636286Y590294D01*
X637568Y591965D01*
X638374Y593911D01*
X638649Y596000D01*
X638374Y598088D01*
X637568Y600034D01*
X636286Y601706D01*
X634614Y602988D01*
X632668Y603794D01*
X630580Y604069D01*
D02*
G37*
G36*
X284755Y587000D02*
X278000D01*
Y580245D01*
X280124Y581125D01*
X282246Y582754D01*
X283875Y584876D01*
X284755Y587000D01*
D02*
G37*
G36*
X272000D02*
X265246D01*
X266126Y584876D01*
X267754Y582754D01*
X269876Y581125D01*
X272000Y580245D01*
Y587000D01*
D02*
G37*
G36*
X630580Y578669D02*
X628492Y578394D01*
X626545Y577588D01*
X624874Y576306D01*
X623592Y574634D01*
X622786Y572688D01*
X622511Y570600D01*
X622786Y568511D01*
X623592Y566565D01*
X624874Y564894D01*
X626545Y563612D01*
X628492Y562806D01*
X630580Y562531D01*
X632668Y562806D01*
X634614Y563612D01*
X636286Y564894D01*
X637568Y566565D01*
X638374Y568511D01*
X638649Y570600D01*
X638374Y572688D01*
X637568Y574634D01*
X636286Y576306D01*
X634614Y577588D01*
X632668Y578394D01*
X630580Y578669D01*
D02*
G37*
G36*
X845500Y569625D02*
Y560500D01*
X852561D01*
X852282Y562621D01*
X851270Y565063D01*
X849661Y567161D01*
X847563Y568770D01*
X845500Y569625D01*
D02*
G37*
G36*
X839500D02*
X837437Y568770D01*
X835340Y567161D01*
X833730Y565063D01*
X832719Y562621D01*
X832439Y560500D01*
X839500D01*
Y569625D01*
D02*
G37*
G36*
X780500D02*
Y560500D01*
X787561D01*
X787282Y562621D01*
X786270Y565063D01*
X784661Y567161D01*
X782563Y568770D01*
X780500Y569625D01*
D02*
G37*
G36*
X774500D02*
X772437Y568770D01*
X770340Y567161D01*
X768730Y565063D01*
X767719Y562621D01*
X767439Y560500D01*
X774500D01*
Y569625D01*
D02*
G37*
G36*
X748000Y564084D02*
Y558000D01*
X754083D01*
X753333Y559811D01*
X751804Y561804D01*
X749811Y563333D01*
X748000Y564084D01*
D02*
G37*
G36*
X742000D02*
X740189Y563333D01*
X738196Y561804D01*
X736667Y559811D01*
X735916Y558000D01*
X742000D01*
Y564084D01*
D02*
G37*
G36*
X335000Y557104D02*
X331867Y556691D01*
X328948Y555482D01*
X326441Y553559D01*
X324518Y551052D01*
X323700Y549078D01*
X308723D01*
X308403Y549852D01*
X306861Y551861D01*
X304851Y553403D01*
X302511Y554373D01*
X300000Y554703D01*
X297489Y554373D01*
X295148Y553403D01*
X293139Y551861D01*
X291597Y549852D01*
X290627Y547511D01*
X290297Y545000D01*
X290627Y542489D01*
X291597Y540149D01*
X293139Y538139D01*
X295148Y536597D01*
X297489Y535628D01*
X300000Y535297D01*
X302511Y535628D01*
X304851Y536597D01*
X306861Y538139D01*
X308403Y540149D01*
X308723Y540922D01*
X323700D01*
X324518Y538948D01*
X326441Y536442D01*
X328948Y534518D01*
X331867Y533309D01*
X335000Y532897D01*
X338132Y533309D01*
X341051Y534518D01*
X343558Y536442D01*
X345482Y538948D01*
X346691Y541867D01*
X347103Y545000D01*
X346691Y548133D01*
X345482Y551052D01*
X343558Y553559D01*
X341051Y555482D01*
X338132Y556691D01*
X335000Y557104D01*
D02*
G37*
G36*
X278000Y554755D02*
Y548000D01*
X284755D01*
X283875Y550124D01*
X282246Y552246D01*
X280124Y553875D01*
X278000Y554755D01*
D02*
G37*
G36*
X272000D02*
X269876Y553875D01*
X267754Y552246D01*
X266126Y550124D01*
X265246Y548000D01*
X272000D01*
Y554755D01*
D02*
G37*
G36*
X754083Y552000D02*
X748000D01*
Y545917D01*
X749811Y546667D01*
X751804Y548196D01*
X753333Y550189D01*
X754083Y552000D01*
D02*
G37*
G36*
X742000D02*
X735916D01*
X736667Y550189D01*
X738196Y548196D01*
X740189Y546667D01*
X742000Y545917D01*
Y552000D01*
D02*
G37*
G36*
X852561Y554500D02*
X845500D01*
Y545375D01*
X847563Y546230D01*
X849661Y547839D01*
X851270Y549937D01*
X852282Y552379D01*
X852561Y554500D01*
D02*
G37*
G36*
X839500D02*
X832439D01*
X832719Y552379D01*
X833730Y549937D01*
X835340Y547839D01*
X837437Y546230D01*
X839500Y545375D01*
Y554500D01*
D02*
G37*
G36*
X787561D02*
X780500D01*
Y545375D01*
X782563Y546230D01*
X784661Y547839D01*
X786270Y549937D01*
X787282Y552379D01*
X787561Y554500D01*
D02*
G37*
G36*
X774500D02*
X767439D01*
X767719Y552379D01*
X768730Y549937D01*
X770340Y547839D01*
X772437Y546230D01*
X774500Y545375D01*
Y554500D01*
D02*
G37*
G36*
X284755Y542000D02*
X278000D01*
Y535246D01*
X280124Y536125D01*
X282246Y537754D01*
X283875Y539876D01*
X284755Y542000D01*
D02*
G37*
G36*
X272000D02*
X265246D01*
X266126Y539876D01*
X267754Y537754D01*
X269876Y536125D01*
X272000Y535246D01*
Y542000D01*
D02*
G37*
G36*
X784500Y526082D02*
X759500D01*
X757020Y525756D01*
X754709Y524799D01*
X752725Y523276D01*
X751202Y521291D01*
X750245Y518980D01*
X749918Y516500D01*
Y501500D01*
X750245Y499020D01*
X751202Y496709D01*
X752725Y494725D01*
X754709Y493202D01*
X757020Y492245D01*
X759500Y491918D01*
X784500D01*
X786980Y492245D01*
X789291Y493202D01*
X791275Y494725D01*
X792798Y496709D01*
X793755Y499020D01*
X794082Y501500D01*
Y516500D01*
X793755Y518980D01*
X792798Y521291D01*
X791275Y523276D01*
X789291Y524799D01*
X786980Y525756D01*
X784500Y526082D01*
D02*
G37*
G36*
X705000Y499253D02*
Y490000D01*
X714253D01*
X714217Y490273D01*
X712954Y493324D01*
X710944Y495943D01*
X708324Y497953D01*
X705274Y499217D01*
X705000Y499253D01*
D02*
G37*
G36*
X699000D02*
X698727Y499217D01*
X695676Y497953D01*
X693056Y495943D01*
X691046Y493324D01*
X689783Y490273D01*
X689747Y490000D01*
X699000D01*
Y499253D01*
D02*
G37*
G36*
X400000Y480086D02*
X397389Y479743D01*
X394957Y478735D01*
X392868Y477132D01*
X391265Y475043D01*
X390865Y474078D01*
X310000D01*
X310000Y474078D01*
X308439Y473768D01*
X307116Y472884D01*
X307116Y472884D01*
X283193Y448960D01*
X282480Y449255D01*
X280000Y449582D01*
X277520Y449255D01*
X275209Y448298D01*
X273225Y446776D01*
X271702Y444791D01*
X270744Y442480D01*
X270418Y440000D01*
X270744Y437520D01*
X271702Y435209D01*
X273225Y433225D01*
X275209Y431702D01*
X277520Y430745D01*
X280000Y430418D01*
X282480Y430745D01*
X284791Y431702D01*
X286775Y433225D01*
X288298Y435209D01*
X289256Y437520D01*
X289582Y440000D01*
X289256Y442480D01*
X288960Y443193D01*
X311689Y465922D01*
X390865D01*
X391265Y464957D01*
X392868Y462868D01*
X394957Y461265D01*
X397389Y460257D01*
X400000Y459914D01*
X402610Y460257D01*
X405043Y461265D01*
X407132Y462868D01*
X408735Y464957D01*
X409743Y467390D01*
X410086Y470000D01*
X409743Y472611D01*
X408735Y475043D01*
X407132Y477132D01*
X405043Y478735D01*
X402610Y479743D01*
X400000Y480086D01*
D02*
G37*
G36*
X428400Y480166D02*
Y473000D01*
X435566D01*
X434607Y475316D01*
X432917Y477517D01*
X430715Y479207D01*
X428400Y480166D01*
D02*
G37*
G36*
X422400D02*
X420084Y479207D01*
X417883Y477517D01*
X416193Y475316D01*
X415234Y473000D01*
X422400D01*
Y480166D01*
D02*
G37*
G36*
X435566Y467000D02*
X428400D01*
Y459834D01*
X430715Y460793D01*
X432917Y462483D01*
X434607Y464685D01*
X435566Y467000D01*
D02*
G37*
G36*
X422400D02*
X415234D01*
X416193Y464685D01*
X417883Y462483D01*
X420084Y460793D01*
X422400Y459834D01*
Y467000D01*
D02*
G37*
G36*
X714253Y484000D02*
X702000D01*
X689747D01*
X689783Y483726D01*
X691046Y480676D01*
X693056Y478056D01*
X695676Y476046D01*
X697501Y475290D01*
Y473125D01*
X695948Y472482D01*
X693442Y470559D01*
X691518Y468052D01*
X690309Y465133D01*
X689897Y462000D01*
X690309Y458867D01*
X691518Y455948D01*
X693442Y453442D01*
X695948Y451518D01*
X698313Y450539D01*
Y448461D01*
X695948Y447482D01*
X693442Y445558D01*
X691518Y443052D01*
X691123Y442098D01*
X559936D01*
X557985Y441710D01*
X556331Y440605D01*
X551862Y436136D01*
X421220D01*
X420345Y438136D01*
X421435Y439557D01*
X422443Y441990D01*
X422786Y444600D01*
X422443Y447211D01*
X421435Y449643D01*
X419832Y451732D01*
X417743Y453335D01*
X415310Y454343D01*
X412700Y454686D01*
X410089Y454343D01*
X407657Y453335D01*
X405568Y451732D01*
X403965Y449643D01*
X402957Y447211D01*
X402614Y444600D01*
X402957Y441990D01*
X403965Y439557D01*
X405055Y438136D01*
X404179Y436136D01*
X387581D01*
X380113Y443605D01*
X378459Y444710D01*
X376508Y445098D01*
X364062D01*
X362775Y446776D01*
X360791Y448298D01*
X358480Y449255D01*
X356000Y449582D01*
X353520Y449255D01*
X351209Y448298D01*
X349224Y446776D01*
X347702Y444791D01*
X346744Y442480D01*
X346418Y440000D01*
X346744Y437520D01*
X347702Y435209D01*
X349224Y433225D01*
X351209Y431702D01*
X353520Y430745D01*
X356000Y430418D01*
X358480Y430745D01*
X360791Y431702D01*
X362775Y433225D01*
X364062Y434902D01*
X374396D01*
X381865Y427433D01*
X383519Y426328D01*
X385470Y425940D01*
X553974D01*
X555925Y426328D01*
X557579Y427433D01*
X562048Y431902D01*
X691123D01*
X691518Y430948D01*
X693442Y428441D01*
X695948Y426518D01*
X698867Y425309D01*
X702000Y424896D01*
X705133Y425309D01*
X708052Y426518D01*
X710559Y428441D01*
X712482Y430948D01*
X713691Y433867D01*
X714104Y437000D01*
X713691Y440132D01*
X712482Y443052D01*
X710559Y445558D01*
X708052Y447482D01*
X705688Y448461D01*
Y450539D01*
X708052Y451518D01*
X710559Y453442D01*
X712482Y455948D01*
X713691Y458867D01*
X714104Y462000D01*
X713691Y465133D01*
X712482Y468052D01*
X710559Y470559D01*
X708052Y472482D01*
X706499Y473125D01*
Y475290D01*
X708324Y476046D01*
X710944Y478056D01*
X712954Y480676D01*
X714217Y483726D01*
X714253Y484000D01*
D02*
G37*
G36*
X784500Y431082D02*
X759500D01*
X757020Y430756D01*
X754709Y429798D01*
X752725Y428276D01*
X751202Y426291D01*
X750245Y423980D01*
X749918Y421500D01*
Y406500D01*
X750245Y404020D01*
X751202Y401709D01*
X752725Y399725D01*
X754709Y398202D01*
X757020Y397245D01*
X759500Y396918D01*
X784500D01*
X786980Y397245D01*
X789291Y398202D01*
X791275Y399725D01*
X792798Y401709D01*
X793755Y404020D01*
X794082Y406500D01*
Y421500D01*
X793755Y423980D01*
X792798Y426291D01*
X791275Y428276D01*
X789291Y429798D01*
X786980Y430756D01*
X784500Y431082D01*
D02*
G37*
%LPD*%
G36*
X660615Y920175D02*
X660615Y920122D01*
X647116Y906622D01*
X646232Y905299D01*
X645922Y903739D01*
X645922Y903738D01*
Y897349D01*
X645789Y897294D01*
X644045Y895955D01*
X642706Y894211D01*
X641865Y892180D01*
X641578Y890000D01*
X641865Y887820D01*
X641962Y887586D01*
X640266Y886453D01*
X637884Y888836D01*
X636561Y889720D01*
X635000Y890030D01*
X635000Y890030D01*
X631340D01*
X630840Y890748D01*
X631785Y892889D01*
X632668Y893006D01*
X634614Y893812D01*
X636286Y895094D01*
X637568Y896765D01*
X638374Y898711D01*
X638649Y900800D01*
X638374Y902888D01*
X637568Y904834D01*
X636286Y906506D01*
X634614Y907788D01*
X632668Y908594D01*
X630580Y908869D01*
X628492Y908594D01*
X626545Y907788D01*
X626092Y907440D01*
X624092Y908427D01*
Y918573D01*
X626092Y919559D01*
X626545Y919212D01*
X628492Y918406D01*
X630580Y918131D01*
X632668Y918406D01*
X634614Y919212D01*
X636286Y920494D01*
X637534Y922122D01*
X660002D01*
X660615Y920175D01*
D02*
G37*
G36*
X704377Y911172D02*
X703518Y910052D01*
X702309Y907133D01*
X701897Y904000D01*
X702309Y900868D01*
X703518Y897948D01*
X705442Y895442D01*
X707948Y893518D01*
X709922Y892701D01*
Y888093D01*
X707922Y887695D01*
X707294Y889211D01*
X705955Y890955D01*
X704211Y892294D01*
X702180Y893135D01*
X700000Y893422D01*
X697820Y893135D01*
X695789Y892294D01*
X694045Y890955D01*
X692706Y889211D01*
X691865Y887180D01*
X691578Y885000D01*
X691865Y882820D01*
X692706Y880789D01*
X694045Y879045D01*
X695789Y877706D01*
X695922Y877651D01*
Y800495D01*
X669505Y774079D01*
X667862Y775084D01*
X668768Y777273D01*
X669078Y779622D01*
X668768Y781972D01*
X667862Y784161D01*
X666419Y786041D01*
X664539Y787484D01*
X662350Y788391D01*
X660000Y788700D01*
X657651Y788391D01*
X655461Y787484D01*
X653581Y786041D01*
X652568Y784721D01*
X640876D01*
X640048Y786721D01*
X650544Y797216D01*
X650544Y797216D01*
X651428Y798539D01*
X651738Y800100D01*
X651738Y800100D01*
Y802026D01*
X653738Y802780D01*
X655189Y801667D01*
X657000Y800917D01*
Y810000D01*
Y819083D01*
X655189Y818333D01*
X653738Y817220D01*
X651738Y817974D01*
Y852698D01*
X653059Y853331D01*
X653738Y853461D01*
X655461Y852138D01*
X657651Y851232D01*
X660000Y850922D01*
X662350Y851232D01*
X664539Y852138D01*
X666419Y853581D01*
X667862Y855461D01*
X668768Y857650D01*
X669078Y860000D01*
X668768Y862349D01*
X667862Y864539D01*
X666419Y866419D01*
X664539Y867861D01*
X662350Y868768D01*
X660000Y869077D01*
X657651Y868768D01*
X655461Y867861D01*
X653738Y866539D01*
X653059Y866669D01*
X651738Y867302D01*
Y873292D01*
X651428Y874853D01*
X650544Y876176D01*
X650544Y876176D01*
X646453Y880266D01*
X647586Y881962D01*
X647820Y881865D01*
X650000Y881578D01*
X652180Y881865D01*
X654211Y882706D01*
X655955Y884045D01*
X657294Y885789D01*
X658135Y887820D01*
X658422Y890000D01*
X658135Y892180D01*
X657294Y894211D01*
X655955Y895955D01*
X654211Y897294D01*
X654078Y897349D01*
Y901346D01*
X655205Y902241D01*
X657228Y901478D01*
X657309Y900868D01*
X658518Y897948D01*
X660441Y895442D01*
X662948Y893518D01*
X665867Y892309D01*
X669000Y891897D01*
X672133Y892309D01*
X675052Y893518D01*
X677558Y895442D01*
X679482Y897948D01*
X680691Y900868D01*
X681104Y904000D01*
X680691Y907133D01*
X679482Y910052D01*
X678623Y911172D01*
X679609Y913172D01*
X703391D01*
X704377Y911172D01*
D02*
G37*
G36*
X709922Y881907D02*
Y706509D01*
X632613Y629201D01*
X630580Y629469D01*
X628492Y629194D01*
X626545Y628388D01*
X624874Y627105D01*
X623592Y625434D01*
X622786Y623488D01*
X622511Y621400D01*
X622786Y619311D01*
X623592Y617365D01*
X623739Y617173D01*
X622870Y615275D01*
X621296Y615102D01*
X609078Y627319D01*
Y798311D01*
X622039Y811272D01*
X634411D01*
X634411Y811271D01*
X635972Y811582D01*
X637295Y812466D01*
X641734Y816905D01*
X643581Y816139D01*
Y801789D01*
X641148Y799356D01*
X639074Y800110D01*
X638900Y801429D01*
X638040Y803507D01*
X636671Y805291D01*
X634887Y806659D01*
X633580Y807201D01*
Y799200D01*
X630580D01*
Y796200D01*
X622579D01*
X623120Y794893D01*
X624148Y793553D01*
X624409Y792666D01*
X624090Y790894D01*
X617130Y783934D01*
X616246Y782611D01*
X615936Y781050D01*
X615936Y781050D01*
Y657366D01*
X615936Y657366D01*
X616246Y655805D01*
X617130Y654482D01*
X622779Y648833D01*
X622511Y646800D01*
X622786Y644711D01*
X623592Y642765D01*
X624874Y641094D01*
X626545Y639812D01*
X628492Y639006D01*
X630580Y638731D01*
X632668Y639006D01*
X634614Y639812D01*
X636286Y641094D01*
X637568Y642765D01*
X638374Y644711D01*
X638649Y646800D01*
X638374Y648888D01*
X637568Y650834D01*
X636286Y652505D01*
X634614Y653788D01*
X632668Y654594D01*
X630580Y654869D01*
X628546Y654601D01*
X624092Y659055D01*
Y664573D01*
X626092Y665559D01*
X626545Y665212D01*
X628492Y664406D01*
X630580Y664131D01*
X632668Y664406D01*
X634614Y665212D01*
X636286Y666494D01*
X637568Y668165D01*
X638374Y670111D01*
X638649Y672200D01*
X638374Y674288D01*
X637568Y676234D01*
X636286Y677906D01*
X634614Y679188D01*
X632668Y679994D01*
X630580Y680269D01*
X628492Y679994D01*
X626545Y679188D01*
X626092Y678840D01*
X624092Y679827D01*
Y689973D01*
X626092Y690959D01*
X626545Y690612D01*
X628492Y689806D01*
X630580Y689531D01*
X632668Y689806D01*
X634614Y690612D01*
X636286Y691894D01*
X637568Y693565D01*
X638374Y695511D01*
X638649Y697600D01*
X638381Y699633D01*
X645250Y706502D01*
X645250Y706502D01*
X646134Y707825D01*
X646444Y709386D01*
Y739483D01*
X702884Y795922D01*
X702884Y795922D01*
X703768Y797245D01*
X704078Y798806D01*
Y877651D01*
X704211Y877706D01*
X705955Y879045D01*
X707294Y880789D01*
X707922Y882305D01*
X709922Y881907D01*
D02*
G37*
G36*
X417571Y841661D02*
Y774110D01*
X417882Y772549D01*
X418766Y771226D01*
X420089Y770342D01*
X421650Y770031D01*
X437813D01*
X447657Y760187D01*
X446723Y758293D01*
X446270Y758352D01*
X443779Y758025D01*
X441459Y757063D01*
X439466Y755534D01*
X437937Y753541D01*
X437187Y751730D01*
X446270D01*
Y748730D01*
X449270D01*
Y739647D01*
X451081Y740397D01*
X453074Y741926D01*
X454603Y743919D01*
X455564Y746240D01*
X455892Y748730D01*
X455832Y749183D01*
X457727Y750117D01*
X462328Y745516D01*
X463651Y744632D01*
X465212Y744321D01*
X465212Y744322D01*
X468046D01*
X469294Y742694D01*
X470965Y741412D01*
X472911Y740606D01*
X475000Y740331D01*
X477088Y740606D01*
X479034Y741412D01*
X479570Y741823D01*
X481570Y740836D01*
Y735337D01*
X477033Y730801D01*
X475000Y731069D01*
X472911Y730794D01*
X470965Y729988D01*
X469294Y728706D01*
X468012Y727034D01*
X467206Y725088D01*
X466931Y723000D01*
X467206Y720911D01*
X468012Y718965D01*
X469294Y717294D01*
X470965Y716012D01*
X472911Y715206D01*
X475000Y714931D01*
X477088Y715206D01*
X479034Y716012D01*
X480705Y717294D01*
X481988Y718965D01*
X482794Y720911D01*
X483069Y723000D01*
X482801Y725033D01*
X486326Y728558D01*
X488174Y727793D01*
Y700189D01*
X485011Y697026D01*
X483813Y697380D01*
X483032Y697877D01*
X482794Y699688D01*
X481988Y701634D01*
X480705Y703306D01*
X479034Y704588D01*
X477088Y705394D01*
X475000Y705669D01*
X472911Y705394D01*
X471117Y704651D01*
X437300Y738468D01*
X435977Y739352D01*
X434416Y739662D01*
X434416Y739662D01*
X416725D01*
X375426Y780961D01*
Y784783D01*
X377426Y785462D01*
X377442Y785441D01*
X379949Y783518D01*
X382868Y782309D01*
X386000Y781896D01*
X389133Y782309D01*
X392052Y783518D01*
X394559Y785441D01*
X396482Y787948D01*
X397691Y790867D01*
X398104Y794000D01*
X397691Y797133D01*
X396874Y799106D01*
X403442Y805674D01*
X403442Y805674D01*
X404326Y806997D01*
X404636Y808558D01*
Y851682D01*
X404636Y851682D01*
X404615Y851789D01*
X406458Y852774D01*
X417571Y841661D01*
D02*
G37*
%LPC*%
G36*
X663000Y819083D02*
Y813000D01*
X669084D01*
X668333Y814811D01*
X666804Y816804D01*
X664811Y818333D01*
X663000Y819083D01*
D02*
G37*
G36*
X669084Y807000D02*
X663000D01*
Y800917D01*
X664811Y801667D01*
X666804Y803196D01*
X668333Y805189D01*
X669084Y807000D01*
D02*
G37*
G36*
X627580Y807201D02*
X626273Y806659D01*
X624489Y805291D01*
X623120Y803507D01*
X622579Y802200D01*
X627580D01*
Y807201D01*
D02*
G37*
G36*
X663000Y738706D02*
Y732622D01*
X669084D01*
X668333Y734433D01*
X666804Y736426D01*
X664811Y737955D01*
X663000Y738706D01*
D02*
G37*
G36*
X657000D02*
X655189Y737955D01*
X653196Y736426D01*
X651667Y734433D01*
X650917Y732622D01*
X657000D01*
Y738706D01*
D02*
G37*
G36*
X669084Y726622D02*
X663000D01*
Y720539D01*
X664811Y721289D01*
X666804Y722818D01*
X668333Y724811D01*
X669084Y726622D01*
D02*
G37*
G36*
X657000D02*
X650917D01*
X651667Y724811D01*
X653196Y722818D01*
X655189Y721289D01*
X657000Y720539D01*
Y726622D01*
D02*
G37*
G36*
X443270Y745730D02*
X437187D01*
X437937Y743919D01*
X439466Y741926D01*
X441459Y740397D01*
X443270Y739647D01*
Y745730D01*
D02*
G37*
G36*
X306400Y1201600D02*
X296860D01*
Y1192060D01*
X306400D01*
Y1201600D01*
D02*
G37*
G36*
X444500Y1114625D02*
X442437Y1113770D01*
X440340Y1112161D01*
X438730Y1110063D01*
X437719Y1107621D01*
X437439Y1105500D01*
X444500D01*
Y1114625D01*
D02*
G37*
G36*
Y1099500D02*
X437439D01*
X437719Y1097379D01*
X438730Y1094937D01*
X440340Y1092840D01*
X442437Y1091230D01*
X444500Y1090376D01*
Y1099500D01*
D02*
G37*
G36*
X392561D02*
X385500D01*
Y1090376D01*
X387563Y1091230D01*
X389661Y1092840D01*
X391270Y1094937D01*
X392282Y1097379D01*
X392561Y1099500D01*
D02*
G37*
G36*
X379500D02*
X372439D01*
X372719Y1097379D01*
X373730Y1094937D01*
X375340Y1092840D01*
X377437Y1091230D01*
X379500Y1090376D01*
Y1099500D01*
D02*
G37*
%LPD*%
D16*
X620014Y894588D02*
Y935014D01*
X623784Y938784D01*
X635000D01*
X641120Y822058D02*
Y827141D01*
X633121Y835140D02*
X641120Y827141D01*
X629170Y835140D02*
X633121D01*
X634411Y815350D02*
X641120Y822058D01*
X620350Y815350D02*
X634411D01*
X605000Y800000D02*
X620350Y815350D01*
X370000Y930564D02*
X429201Y871363D01*
Y780650D02*
Y871363D01*
X435741Y809712D02*
X450629Y824600D01*
X435741Y787190D02*
Y809712D01*
X714000Y704820D02*
Y904000D01*
X630580Y621400D02*
X714000Y704820D01*
Y904000D02*
X720000Y898000D01*
X650000Y890000D02*
Y903739D01*
X663512Y917250D01*
X728726Y801274D02*
Y908013D01*
X719488Y917250D02*
X728726Y908013D01*
X663512Y917250D02*
X719488D01*
X635000Y885952D02*
X647660Y873292D01*
X628650Y885952D02*
X635000D01*
X647660Y800100D02*
Y873292D01*
X620014Y894588D02*
X628650Y885952D01*
X295000Y1230000D02*
X309000D01*
X309400Y1229600D01*
X290322Y1225322D02*
X295000Y1230000D01*
X290000Y1245000D02*
X330000D01*
X283718Y1238718D02*
X290000Y1245000D01*
X283718Y1092200D02*
Y1238718D01*
Y1092200D02*
X291084Y1084834D01*
X335000Y1230200D02*
Y1240000D01*
X330000Y1245000D02*
X335000Y1240000D01*
X334400Y1229600D02*
X335000Y1230200D01*
X461518Y1083564D02*
Y1211793D01*
X443311Y1230000D02*
X461518Y1211793D01*
X410800Y1230000D02*
X443311D01*
X280000Y440000D02*
X310000Y470000D01*
X700000Y798806D02*
Y885000D01*
X642366Y741172D02*
X700000Y798806D01*
X743350Y1011650D02*
X760000Y995000D01*
X626748Y1011650D02*
X743350D01*
X620000Y1004901D02*
X626748Y1011650D01*
X620000Y990000D02*
Y1004901D01*
X615950Y977000D02*
X630580D01*
X609092Y983858D02*
X615950Y977000D01*
X609092Y983858D02*
Y1024092D01*
X624586Y1039586D01*
X633699D01*
X646364Y1026922D01*
X320073Y1084834D02*
X421640Y983267D01*
X291084Y1084834D02*
X320073D01*
X421640Y903360D02*
Y983267D01*
X398768Y556768D02*
X619012D01*
X630580Y545200D01*
X386000Y544000D02*
X398768Y556768D01*
X762468Y692500D02*
X777500D01*
X759968Y695000D02*
X762468Y692500D01*
X745000Y695000D02*
X759968D01*
X739384Y610616D02*
X745000Y605000D01*
X620014Y610616D02*
X739384D01*
X646364Y1026922D02*
X815340D01*
X839470Y989470D02*
Y1043930D01*
X805000Y955000D02*
X839470Y989470D01*
X694598Y974598D02*
X715000Y995000D01*
X652224Y969216D02*
X657606Y974598D01*
X694598D01*
X724546Y926200D02*
X736346Y914400D01*
X630580Y926200D02*
X724546D01*
X633400Y1250000D02*
X839470Y1043930D01*
X379638Y610362D02*
X448369D01*
X364744Y625256D02*
X379638Y610362D01*
X364744Y625256D02*
Y851936D01*
X371348Y629412D02*
Y679348D01*
Y629412D02*
X373634Y627126D01*
X371348Y679348D02*
X386000Y694000D01*
X300000Y860000D02*
X335000Y895000D01*
X290322Y1184910D02*
Y1225322D01*
X472400Y697600D02*
X475000D01*
X434416Y735584D02*
X472400Y697600D01*
X415036Y735584D02*
X434416D01*
X421650Y774110D02*
Y843350D01*
X399920Y865080D02*
X421650Y843350D01*
X394357Y865080D02*
X399920D01*
X325000Y934438D02*
X394357Y865080D01*
X325000Y934438D02*
Y965000D01*
X482600Y787190D02*
X492252Y777538D01*
X435741Y787190D02*
X482600D01*
X621284Y1220978D02*
Y1256284D01*
X627126Y1262126D01*
X697474D01*
X613410Y850900D02*
X629170Y835140D01*
X485648Y581248D02*
Y600257D01*
X477321Y608584D02*
X485648Y600257D01*
X466746Y608584D02*
X477321D01*
X448204Y627126D02*
X466746Y608584D01*
X605000Y625630D02*
Y800000D01*
Y625630D02*
X620014Y610616D01*
X448369Y610362D02*
X462731Y596000D01*
X475000D01*
Y570600D02*
X485648Y581248D01*
X633486Y965000D02*
X641120Y972634D01*
X625910Y965000D02*
X633486D01*
X613410Y952500D02*
X625910Y965000D01*
X641120Y972634D02*
Y991860D01*
X630580Y1002400D02*
X641120Y991860D01*
X446270Y798730D02*
X446740Y799200D01*
X613410Y850900D02*
Y952500D01*
X652224Y956008D02*
Y969216D01*
X421650Y774110D02*
X439502D01*
X465212Y748400D01*
X475000D01*
X324788Y965000D02*
X325000D01*
X285000Y925212D02*
X324788Y965000D01*
X285000Y925200D02*
Y925212D01*
X475000Y723000D02*
X485648Y733648D01*
Y755650D01*
X478038Y763260D02*
X485648Y755650D01*
X464460Y763260D02*
X478038D01*
X447070Y780650D02*
X464460Y763260D01*
X429201Y780650D02*
X447070D01*
X370000Y930564D02*
Y965000D01*
X285000Y975000D02*
X303530D01*
X306176Y977646D01*
X357354D01*
X370000Y965000D01*
X386000Y644000D02*
X402654Y660654D01*
X461146D01*
X475000Y646800D01*
X386000Y794000D02*
X400558Y808558D01*
Y851682D01*
X393700Y858540D02*
X400558Y851682D01*
X371348Y858540D02*
X393700D01*
X364744Y851936D02*
X371348Y858540D01*
X630580Y697600D02*
X642366Y709386D01*
Y741172D01*
X320000Y745000D02*
X335000D01*
X300000Y725000D02*
X320000Y745000D01*
X315000Y695000D02*
X335000D01*
X300000Y680000D02*
X315000Y695000D01*
X310000Y645000D02*
X335000D01*
X300000Y635000D02*
X310000Y645000D01*
X728726Y801274D02*
X745000Y785000D01*
X290322Y1184910D02*
X350266Y1124966D01*
X381000D01*
X432308Y1073658D01*
Y1013206D02*
Y1073658D01*
Y1013206D02*
X445008Y1000506D01*
Y986028D02*
Y1000506D01*
X438404Y979424D02*
X445008Y986028D01*
X438404Y949728D02*
Y979424D01*
Y949728D02*
X461540Y926592D01*
Y888859D02*
Y926592D01*
Y888859D02*
X475000Y875400D01*
X441000Y696000D02*
X452216Y684784D01*
X478536D01*
X492252Y698500D01*
Y777538D01*
X450629Y824600D02*
X475000D01*
X736346Y878655D02*
X745000Y870000D01*
X736346Y878655D02*
Y914400D01*
X635000Y938784D02*
X652224Y956008D01*
X636220Y788660D02*
X647660Y800100D01*
X627624Y788660D02*
X636220D01*
X620014Y781050D02*
X627624Y788660D01*
X620014Y657366D02*
Y781050D01*
Y657366D02*
X630580Y646800D01*
X373634Y627126D02*
X448204D01*
X421640Y903360D02*
X475000Y850000D01*
X457708Y1079754D02*
X461518Y1083564D01*
X457708Y983742D02*
Y1079754D01*
Y983742D02*
X463042Y978408D01*
Y943598D02*
Y978408D01*
Y943598D02*
X469900Y936740D01*
X485540D01*
Y911340D02*
Y936740D01*
X475000Y900800D02*
X485540Y911340D01*
X697474Y1262126D02*
X709600Y1250000D01*
X464312Y1064006D02*
X621284Y1220978D01*
X464312Y987688D02*
Y1064006D01*
Y987688D02*
X475000Y977000D01*
X371348Y829348D02*
X386000Y844000D01*
X371348Y779272D02*
Y829348D01*
Y779272D02*
X415036Y735584D01*
X335000Y832500D02*
Y845000D01*
X317500Y815000D02*
X335000Y832500D01*
X300000Y815000D02*
X317500D01*
X386000Y715460D02*
Y744000D01*
Y715460D02*
X429260Y672200D01*
X475000D01*
X300000Y770000D02*
X310000D01*
X335000Y795000D01*
X734104Y1072896D02*
X761000Y1046000D01*
X683504Y1072896D02*
X734104D01*
X658800Y1097600D02*
X683504Y1072896D01*
X633400Y1097600D02*
X668518Y1062482D01*
X699518D01*
X716000Y1046000D01*
X709600Y1097600D02*
X724652Y1082548D01*
X769452D01*
X806000Y1046000D01*
X310000Y470000D02*
X399600D01*
X319960Y595000D02*
X335000D01*
X314960Y590000D02*
X319960Y595000D01*
X300000Y590000D02*
X314960D01*
X300000Y545000D02*
X335000D01*
X777500Y602500D02*
X842500D01*
X762468D02*
X777500D01*
X759968Y605000D02*
X762468Y602500D01*
X745000Y605000D02*
X759968D01*
X777500Y692500D02*
X842500D01*
X777500Y782500D02*
X842500D01*
X762468D02*
X777500D01*
X759968Y785000D02*
X762468Y782500D01*
X745000Y785000D02*
X759968D01*
X777500Y867500D02*
X842500D01*
X762468D02*
X777500D01*
X759968Y870000D02*
X762468Y867500D01*
X745000Y870000D02*
X759968D01*
X382500Y1147500D02*
X447500D01*
D28*
X383796Y1067000D02*
X421000D01*
X345796Y1105000D02*
X383796Y1067000D01*
X310000Y1105000D02*
X345796D01*
X356000Y440000D02*
X376508D01*
X385470Y431038D01*
X446740Y799200D02*
X475000D01*
X636403Y779622D02*
X660000D01*
X630580Y773800D02*
X636403Y779622D01*
X500400Y824600D02*
X630580D01*
X475000Y799200D02*
X500400Y824600D01*
X559936Y437000D02*
X702000D01*
X553974Y431038D02*
X559936Y437000D01*
X385470Y431038D02*
X553974D01*
D30*
X432300Y994600D02*
D03*
X419600Y1020000D02*
D03*
X445000D02*
D03*
X425400Y470000D02*
D03*
X400000D02*
D03*
X412700Y444600D02*
D03*
D31*
X285000Y925200D02*
D03*
Y975000D02*
D03*
X630580Y1027800D02*
D03*
Y1002400D02*
D03*
Y977000D02*
D03*
Y951600D02*
D03*
Y926200D02*
D03*
Y900800D02*
D03*
Y875400D02*
D03*
Y850000D02*
D03*
Y824600D02*
D03*
Y799200D02*
D03*
Y773800D02*
D03*
Y748400D02*
D03*
Y723000D02*
D03*
Y697600D02*
D03*
Y672200D02*
D03*
Y646800D02*
D03*
Y621400D02*
D03*
Y596000D02*
D03*
Y570600D02*
D03*
Y545200D02*
D03*
X475000D02*
D03*
Y570600D02*
D03*
Y596000D02*
D03*
Y621400D02*
D03*
Y646800D02*
D03*
Y672200D02*
D03*
Y697600D02*
D03*
Y723000D02*
D03*
Y748400D02*
D03*
Y773800D02*
D03*
Y799200D02*
D03*
Y824600D02*
D03*
Y850000D02*
D03*
Y875400D02*
D03*
Y900800D02*
D03*
Y926200D02*
D03*
Y951600D02*
D03*
Y977000D02*
D03*
Y1002400D02*
D03*
D32*
Y1027800D02*
D03*
D33*
X745000Y695000D02*
D03*
Y645000D02*
D03*
X450000Y965000D02*
D03*
Y915001D02*
D03*
X410000Y965000D02*
D03*
Y915001D02*
D03*
X446270Y748730D02*
D03*
Y798730D02*
D03*
X745000Y555000D02*
D03*
Y605000D02*
D03*
X745000Y820000D02*
D03*
Y870000D02*
D03*
X745000Y735000D02*
D03*
Y785000D02*
D03*
X370000Y1015000D02*
D03*
Y965000D02*
D03*
X325000Y1015000D02*
D03*
Y965000D02*
D03*
X660000Y860000D02*
D03*
Y810000D02*
D03*
Y779622D02*
D03*
Y729622D02*
D03*
D34*
X804000Y904000D02*
D03*
X805000Y955000D02*
D03*
X759000Y904000D02*
D03*
X760000Y955000D02*
D03*
X714000Y904000D02*
D03*
X715000Y955000D02*
D03*
X669000Y904000D02*
D03*
X670000Y955000D02*
D03*
X335000Y545000D02*
D03*
X386000Y544000D02*
D03*
X441000Y696000D02*
D03*
X440000Y645000D02*
D03*
X806000Y1046000D02*
D03*
X805000Y995000D02*
D03*
X761000Y1046000D02*
D03*
X760000Y995000D02*
D03*
X386000Y594000D02*
D03*
X335000Y595000D02*
D03*
X386000Y644000D02*
D03*
X335000Y645000D02*
D03*
X386000Y694000D02*
D03*
X335000Y695000D02*
D03*
X386000Y744000D02*
D03*
X335000Y745000D02*
D03*
X386000Y794000D02*
D03*
X335000Y795000D02*
D03*
X386000Y844000D02*
D03*
X335000Y845000D02*
D03*
X386000Y894000D02*
D03*
X335000Y895000D02*
D03*
X716000Y1046000D02*
D03*
X715000Y995000D02*
D03*
X671000Y1046000D02*
D03*
X670000Y995000D02*
D03*
X702000Y462000D02*
D03*
Y487000D02*
D03*
Y437000D02*
D03*
D35*
X842500Y557500D02*
D03*
Y602500D02*
D03*
X777500Y557500D02*
D03*
Y602500D02*
D03*
X842500Y647500D02*
D03*
Y692500D02*
D03*
X777500Y647500D02*
D03*
Y692500D02*
D03*
X842500Y822500D02*
D03*
Y867500D02*
D03*
X777500Y822500D02*
D03*
Y867500D02*
D03*
X842500Y737500D02*
D03*
Y782500D02*
D03*
X777500Y737500D02*
D03*
Y782500D02*
D03*
X382500Y1147500D02*
D03*
Y1102500D02*
D03*
X447500Y1147500D02*
D03*
Y1102500D02*
D03*
D36*
X275000Y860000D02*
D03*
X300000D02*
D03*
X275000Y770000D02*
D03*
X300000D02*
D03*
X275000Y680000D02*
D03*
X300000D02*
D03*
X275000Y590000D02*
D03*
X300000D02*
D03*
X275000Y545000D02*
D03*
X300000D02*
D03*
X275000Y815000D02*
D03*
X300000D02*
D03*
X275000Y725000D02*
D03*
X300000D02*
D03*
X275000Y635000D02*
D03*
X300000D02*
D03*
D37*
X772000Y509000D02*
D03*
Y414000D02*
D03*
D38*
X280000Y440000D02*
D03*
X356000D02*
D03*
X608000Y1250000D02*
D03*
X633400D02*
D03*
X658800D02*
D03*
X684200D02*
D03*
X709600D02*
D03*
X735000D02*
D03*
Y1097600D02*
D03*
X709600D02*
D03*
X684200D02*
D03*
X658800D02*
D03*
X633400D02*
D03*
X608000D02*
D03*
D39*
X310000Y1055000D02*
D03*
Y1105000D02*
D03*
D40*
X309400Y1204600D02*
D03*
X334400D02*
D03*
X360000Y1205000D02*
D03*
X385400D02*
D03*
X410800D02*
D03*
X309400Y1229600D02*
D03*
X334400D02*
D03*
X360000Y1230000D02*
D03*
X385400D02*
D03*
X410800D02*
D03*
D41*
X421000Y1067000D02*
D03*
X650000Y890000D02*
D03*
X700000Y885000D02*
D03*
X620000Y990000D02*
D03*
X530000Y1200000D02*
D03*
X715821Y628988D02*
D03*
X550000Y650000D02*
D03*
Y770000D02*
D03*
Y870000D02*
D03*
Y970000D02*
D03*
X815340Y1026922D02*
D03*
M02*
