M48
;Layer_Color=9474304
;FILE_FORMAT=4:4
METRIC,TZ
;TYPE=PLATED
T1F00S00C0.7000
T2F00S00C0.7112
T3F00S00C0.7500
T4F00S00C0.7620
T5F00S00C0.8000
T7F00S00C1.0000
T8F00S00C1.3000
%
T01
X285000Y925200
Y975000
X608000Y1097600
X633400
X658800
X684200
X709600
X735000
Y1250000
X709600
X684200
X658800
X633400
X608000
T02
X550000Y650000
Y770000
X715821Y628988
X700000Y885000
X650000Y890000
X550000Y870000
Y970000
X620000Y990000
X421000Y1067000
X815340Y1026922
X530000Y1200000
T03
X475000Y545200
Y570600
Y596000
Y621400
Y646800
Y672200
Y697600
Y723000
Y748400
Y773800
X630580
Y748400
Y723000
Y697600
Y672200
Y646800
Y621400
Y596000
Y570600
Y545200
Y799200
Y824600
Y850000
Y875400
Y900800
Y926200
Y951600
Y977000
Y1002400
Y1027800
X475000
Y1002400
Y977000
Y951600
Y926200
Y900800
Y875400
Y850000
Y824600
Y799200
T04
X275000Y545000
X300000
Y590000
X275000
Y635000
X300000
Y680000
X275000
Y725000
X300000
Y770000
X275000
Y815000
X300000
Y860000
X275000
T05
X412700Y444600
X425400Y470000
X400000
X446270Y748730
X660000Y729622
Y779622
X745000Y785000
Y735000
Y695000
Y645000
Y605000
Y555000
X356000Y440000
X280000
X325000Y965000
X370000
Y1015000
X325000
X419600Y1020000
X445000
X432300Y994600
X450000Y965000
X410000
Y915001
X450000
X446270Y798730
X660000Y810000
Y860000
X745000Y870000
Y820000
T07
X440000Y645000
X441000Y696000
X702000Y487000
Y462000
Y437000
X386000Y544000
X386000Y594000
Y644000
Y694000
Y744000
X335000Y745000
Y695000
Y645000
Y595000
X335000Y545000
X335000Y795000
Y845000
Y895000
X386000Y894000
Y844000
Y794000
X669000Y904000
X714000
X759000
X760000Y955000
Y995000
X715000
Y955000
X670000
X670000Y995000
X671000Y1046000
X716000Y1046000
X761000
X806000
X805000Y995000
Y955000
X804000Y904000
X410800Y1205000
Y1230000
X385400
Y1205000
X360000
Y1230000
X334400Y1229600
Y1204600
X309400
Y1229600
T08
X310000Y1055000
Y1105000
M30
