M48
;Layer_Color=9474304
;FILE_FORMAT=4:4
METRIC,TZ
;TYPE=PLATED
T6F00S00C0.8000
T9F00S00C1.8000
%
G90
G05
T06
G00X842500Y555000
M15
G01Y560000
M16
G00X842500Y600000
M15
G01Y605000
M16
G00X842500Y645000
M15
G01Y650000
M16
G00X842500Y690000
M15
G01Y695000
M16
G00X842500Y735000
M15
G01Y740000
M16
G00X842500Y780000
M15
G01Y785000
M16
G00X777500Y780000
M15
G01Y785000
M16
G00X777500Y735000
M15
G01Y740000
M16
G00X777500Y690000
M15
G01Y695000
M16
G00X777500Y645000
M15
G01Y650000
M16
G00X777500Y600000
M15
G01Y605000
M16
G00X777500Y555000
M15
G01Y560000
M16
G00X382500Y1100000
M15
G01Y1105000
M16
G00X382500Y1145000
M15
G01Y1150000
M16
G00X447500Y1145000
M15
G01Y1150000
M16
G00X447500Y1100000
M15
G01Y1105000
M16
G00X777500Y865000
M15
G01Y870000
M16
G00X777500Y820000
M15
G01Y825000
M16
G00X842500Y820000
M15
G01Y825000
M16
G00X842500Y865000
M15
G01Y870000
M16
T09
G00X774000Y414000
M15
G01X770000
M16
G00X774000Y509000
M15
G01X770000
M16
M17
M30
