G04*
G04 #@! TF.GenerationSoftware,Altium Limited,Altium Designer,19.1.6 (110)*
G04*
G04 Layer_Color=65535*
%FSLAX44Y44*%
%MOMM*%
G71*
G01*
G75*
%ADD10C,0.2500*%
%ADD11C,0.2000*%
%ADD12C,0.2540*%
%ADD13C,0.1500*%
%ADD14C,0.0254*%
%ADD15C,0.2560*%
%ADD16C,0.4000*%
G36*
X705000Y510000D02*
X685230D01*
Y716018D01*
X705000D01*
Y510000D01*
D02*
G37*
G36*
X685230D02*
X664759D01*
Y716018D01*
X685230D01*
Y510000D01*
D02*
G37*
G36*
X664759Y510000D02*
X645000D01*
Y716018D01*
X664759D01*
Y510000D01*
D02*
G37*
G36*
X609362Y427436D02*
X609501Y427413D01*
X609639Y427367D01*
X609801Y427298D01*
X609940Y427205D01*
X610102Y427089D01*
X610125Y427066D01*
X610172Y427020D01*
X610241Y426951D01*
X610311Y426835D01*
X610380Y426719D01*
X610449Y426557D01*
X610496Y426395D01*
X610519Y426210D01*
Y426187D01*
Y426164D01*
X610496Y426025D01*
X610449Y425817D01*
X610357Y425585D01*
X603137Y411447D01*
X603114Y411424D01*
X603068Y411331D01*
X602975Y411216D01*
X602860Y411077D01*
X602698Y410938D01*
X602489Y410822D01*
X602258Y410730D01*
X602003Y410707D01*
X601911D01*
X601818Y410730D01*
X601703Y410753D01*
X601564Y410799D01*
X601402Y410845D01*
X601263Y410938D01*
X601101Y411054D01*
X601078Y411077D01*
X601032Y411123D01*
X600985Y411193D01*
X600916Y411308D01*
X600823Y411447D01*
X600777Y411586D01*
X600731Y411771D01*
X600708Y411956D01*
Y411979D01*
Y412002D01*
Y412072D01*
X600731Y412164D01*
X600777Y412373D01*
X600870Y412627D01*
X603184Y417140D01*
X597792Y425470D01*
Y425493D01*
X597769Y425539D01*
X597723Y425608D01*
X597700Y425701D01*
X597607Y425909D01*
X597584Y426187D01*
Y426210D01*
Y426279D01*
X597607Y426372D01*
X597630Y426488D01*
X597676Y426627D01*
X597746Y426765D01*
X597838Y426927D01*
X597977Y427066D01*
X598000Y427089D01*
X598047Y427136D01*
X598139Y427182D01*
X598255Y427275D01*
X598394Y427344D01*
X598556Y427390D01*
X598718Y427436D01*
X598903Y427460D01*
X599018D01*
X599111Y427436D01*
X599273Y427390D01*
X599435Y427321D01*
X599597Y427205D01*
X599759Y427066D01*
X599921Y426858D01*
X604526Y419777D01*
X608089Y426742D01*
X608112Y426765D01*
X608158Y426858D01*
X608251Y426974D01*
X608367Y427113D01*
X608529Y427228D01*
X608714Y427344D01*
X608922Y427436D01*
X609177Y427460D01*
X609269D01*
X609362Y427436D01*
D02*
G37*
G36*
X546932Y427413D02*
X547047Y427390D01*
X547186Y427344D01*
X547348Y427275D01*
X547487Y427182D01*
X547649Y427043D01*
X547672Y427020D01*
X547718Y426974D01*
X547765Y426904D01*
X547857Y426789D01*
X547927Y426673D01*
X547973Y426511D01*
X548019Y426349D01*
X548042Y426164D01*
Y412026D01*
Y412002D01*
Y411979D01*
X548019Y411841D01*
X547973Y411632D01*
X547880Y411401D01*
X547718Y411170D01*
X547487Y410961D01*
X547348Y410892D01*
X547186Y410822D01*
X546978Y410799D01*
X546746Y410776D01*
X546700D01*
X546561Y410799D01*
X546353Y410845D01*
X546122Y410938D01*
X545890Y411077D01*
X545682Y411308D01*
X545613Y411447D01*
X545543Y411609D01*
X545520Y411817D01*
X545497Y412026D01*
Y422531D01*
X538486Y411355D01*
X538463Y411331D01*
X538393Y411262D01*
X538324Y411193D01*
X538231Y411146D01*
X538116Y411077D01*
X537977Y410984D01*
X537954D01*
X537907Y410961D01*
X537768Y410892D01*
X537560Y410799D01*
X537398Y410776D01*
X536797D01*
X536704Y410799D01*
X536588Y410822D01*
X536473Y410869D01*
X536311Y410938D01*
X536172Y411031D01*
X536010Y411146D01*
X535987Y411170D01*
X535940Y411216D01*
X535894Y411285D01*
X535825Y411401D01*
X535732Y411517D01*
X535686Y411679D01*
X535640Y411841D01*
X535616Y412026D01*
Y426164D01*
Y426187D01*
Y426256D01*
X535640Y426372D01*
X535663Y426511D01*
X535709Y426650D01*
X535779Y426812D01*
X535871Y426974D01*
X536010Y427113D01*
X536033Y427136D01*
X536079Y427159D01*
X536149Y427205D01*
X536264Y427275D01*
X536380Y427344D01*
X536542Y427390D01*
X536704Y427413D01*
X536889Y427436D01*
X536935D01*
X537097Y427413D01*
X537282Y427367D01*
X537537Y427275D01*
X537768Y427136D01*
X537954Y426904D01*
X538046Y426765D01*
X538116Y426580D01*
X538139Y426395D01*
X538162Y426164D01*
Y415635D01*
X545173Y426835D01*
X545196Y426858D01*
X545289Y426951D01*
X545428Y427066D01*
X545543Y427136D01*
X545682Y427205D01*
X545705D01*
X545751Y427251D01*
X545914Y427321D01*
X546099Y427390D01*
X546261Y427436D01*
X546839D01*
X546932Y427413D01*
D02*
G37*
G36*
X623477Y427205D02*
X623685Y427159D01*
X623916Y427066D01*
X624148Y426927D01*
X624356Y426696D01*
X624426Y426557D01*
X624495Y426372D01*
X624518Y426187D01*
X624541Y425956D01*
Y425932D01*
Y425909D01*
X624518Y425770D01*
X624472Y425562D01*
X624379Y425331D01*
X624240Y425099D01*
X624009Y424891D01*
X623870Y424822D01*
X623708Y424752D01*
X623523Y424729D01*
X623292Y424706D01*
X615285D01*
Y420610D01*
X620399D01*
X620561Y420587D01*
X620723Y420564D01*
X620931Y420541D01*
X621163Y420495D01*
X621394Y420425D01*
X621926Y420263D01*
X622227Y420148D01*
X622505Y420009D01*
X622806Y419847D01*
X623083Y419662D01*
X623361Y419453D01*
X623639Y419199D01*
X623662Y419176D01*
X623708Y419129D01*
X623778Y419060D01*
X623870Y418944D01*
X623963Y418806D01*
X624101Y418643D01*
X624217Y418458D01*
X624356Y418250D01*
X624495Y418019D01*
X624611Y417741D01*
X624842Y417163D01*
X624935Y416862D01*
X625004Y416515D01*
X625050Y416168D01*
X625073Y415797D01*
Y415774D01*
Y415705D01*
Y415612D01*
X625050Y415450D01*
X625027Y415288D01*
X625004Y415080D01*
X624958Y414872D01*
X624888Y414617D01*
X624726Y414085D01*
X624611Y413784D01*
X624472Y413507D01*
X624310Y413206D01*
X624101Y412928D01*
X623893Y412650D01*
X623639Y412373D01*
X623616Y412350D01*
X623569Y412303D01*
X623500Y412234D01*
X623384Y412164D01*
X623245Y412049D01*
X623083Y411933D01*
X622898Y411794D01*
X622690Y411679D01*
X622435Y411540D01*
X622181Y411401D01*
X621603Y411193D01*
X621278Y411100D01*
X620931Y411031D01*
X620584Y410984D01*
X620214Y410961D01*
X613943D01*
X613851Y410984D01*
X613735Y411007D01*
X613596Y411054D01*
X613434Y411123D01*
X613295Y411216D01*
X613134Y411331D01*
X613110Y411355D01*
X613087Y411401D01*
X613018Y411493D01*
X612948Y411586D01*
X612879Y411725D01*
X612833Y411887D01*
X612786Y412049D01*
X612763Y412234D01*
Y425956D01*
Y425979D01*
Y426048D01*
X612786Y426141D01*
X612809Y426256D01*
X612856Y426395D01*
X612925Y426534D01*
X613018Y426696D01*
X613134Y426835D01*
X613157Y426858D01*
X613203Y426904D01*
X613295Y426951D01*
X613388Y427043D01*
X613527Y427113D01*
X613689Y427159D01*
X613851Y427205D01*
X614036Y427228D01*
X623338D01*
X623477Y427205D01*
D02*
G37*
G36*
X588791Y427436D02*
X588976Y427344D01*
X589115Y427275D01*
X589254Y427182D01*
X589277D01*
X589323Y427136D01*
X589485Y427020D01*
X589647Y426858D01*
X589739Y426765D01*
X589786Y426673D01*
X595779Y412535D01*
X595802Y412488D01*
X595825Y412373D01*
X595848Y412211D01*
X595872Y412002D01*
Y411979D01*
Y411910D01*
X595848Y411817D01*
X595825Y411702D01*
X595779Y411563D01*
X595709Y411424D01*
X595617Y411262D01*
X595478Y411123D01*
X595455Y411100D01*
X595409Y411077D01*
X595316Y411007D01*
X595224Y410961D01*
X595085Y410892D01*
X594923Y410822D01*
X594738Y410799D01*
X594552Y410776D01*
X594529D01*
X594414Y410799D01*
X594275Y410822D01*
X594113Y410869D01*
X593928Y410961D01*
X593743Y411100D01*
X593558Y411285D01*
X593419Y411540D01*
X588397Y423410D01*
X583793Y411586D01*
X583770Y411563D01*
X583723Y411470D01*
X583654Y411331D01*
X583538Y411193D01*
X583376Y411031D01*
X583168Y410915D01*
X582937Y410822D01*
X582659Y410776D01*
X582566D01*
X582474Y410799D01*
X582335Y410822D01*
X582196Y410869D01*
X582034Y410915D01*
X581895Y411007D01*
X581733Y411123D01*
X581710Y411146D01*
X581664Y411193D01*
X581618Y411262D01*
X581548Y411355D01*
X581456Y411493D01*
X581409Y411632D01*
X581363Y411794D01*
X581340Y411979D01*
Y412002D01*
Y412026D01*
Y412141D01*
X581363Y412303D01*
X581409Y412488D01*
X586893Y426627D01*
Y426650D01*
X586917Y426673D01*
X587009Y426789D01*
X587148Y426951D01*
X587264Y427066D01*
X587402Y427159D01*
X587426Y427182D01*
X587472Y427205D01*
X587541Y427251D01*
X587657Y427321D01*
X587865Y427413D01*
X587981Y427436D01*
X588097Y427460D01*
X588652D01*
X588791Y427436D01*
D02*
G37*
G36*
X578378Y427413D02*
X578494Y427390D01*
X578633Y427344D01*
X578772Y427275D01*
X578933Y427182D01*
X579072Y427066D01*
X579095Y427043D01*
X579142Y426997D01*
X579188Y426927D01*
X579257Y426812D01*
X579327Y426673D01*
X579396Y426534D01*
X579419Y426349D01*
X579442Y426164D01*
Y426141D01*
Y426071D01*
X579419Y425979D01*
X579396Y425863D01*
X579350Y425724D01*
X579304Y425585D01*
X579211Y425423D01*
X579095Y425285D01*
X573287Y419315D01*
X579119Y412882D01*
X579142Y412859D01*
X579165Y412812D01*
X579211Y412743D01*
X579281Y412650D01*
X579350Y412512D01*
X579396Y412373D01*
X579419Y412211D01*
X579442Y412026D01*
Y412002D01*
Y411933D01*
X579419Y411841D01*
X579396Y411725D01*
X579350Y411563D01*
X579281Y411424D01*
X579188Y411262D01*
X579072Y411123D01*
X579049Y411100D01*
X579003Y411077D01*
X578933Y411007D01*
X578818Y410961D01*
X578702Y410892D01*
X578540Y410822D01*
X578378Y410799D01*
X578193Y410776D01*
X578100D01*
X577985Y410799D01*
X577869Y410822D01*
X577707Y410869D01*
X577545Y410961D01*
X577383Y411054D01*
X577244Y411193D01*
X570626Y418505D01*
X570603Y418528D01*
X570580Y418574D01*
X570511Y418643D01*
X570464Y418736D01*
X570326Y419014D01*
X570302Y419153D01*
X570279Y419338D01*
Y419361D01*
Y419430D01*
X570302Y419523D01*
X570326Y419638D01*
X570372Y419777D01*
X570441Y419916D01*
X570534Y420078D01*
X570649Y420217D01*
X577267Y427066D01*
X577290Y427089D01*
X577337Y427136D01*
X577406Y427182D01*
X577522Y427251D01*
X577661Y427321D01*
X577823Y427390D01*
X577985Y427413D01*
X578193Y427436D01*
X578285D01*
X578378Y427413D01*
D02*
G37*
G36*
X568706D02*
X568821Y427390D01*
X569099Y427298D01*
X569238Y427228D01*
X569377Y427113D01*
X569400Y427089D01*
X569446Y427043D01*
X569516Y426974D01*
X569585Y426858D01*
X569655Y426719D01*
X569724Y426557D01*
X569770Y426372D01*
X569793Y426164D01*
Y412026D01*
Y412002D01*
Y411933D01*
X569770Y411817D01*
X569747Y411702D01*
X569701Y411540D01*
X569608Y411378D01*
X569516Y411216D01*
X569377Y411077D01*
X569354Y411054D01*
X569307Y411031D01*
X569238Y410984D01*
X569122Y410938D01*
X568868Y410822D01*
X568706Y410799D01*
X568521Y410776D01*
X568451D01*
X568359Y410799D01*
X568243Y410822D01*
X567965Y410915D01*
X567803Y410984D01*
X567664Y411077D01*
X567641Y411100D01*
X567595Y411146D01*
X567526Y411216D01*
X567456Y411331D01*
X567387Y411470D01*
X567318Y411632D01*
X567271Y411817D01*
X567248Y412026D01*
Y426164D01*
Y426187D01*
Y426256D01*
X567271Y426372D01*
X567294Y426511D01*
X567341Y426650D01*
X567433Y426812D01*
X567526Y426974D01*
X567664Y427113D01*
X567688Y427136D01*
X567734Y427159D01*
X567803Y427205D01*
X567919Y427275D01*
X568174Y427390D01*
X568336Y427413D01*
X568521Y427436D01*
X568613D01*
X568706Y427413D01*
D02*
G37*
G36*
X557992D02*
X558224Y427390D01*
X558478Y427367D01*
X558779Y427298D01*
X559126Y427205D01*
X559520Y427113D01*
X559913Y426974D01*
X560329Y426789D01*
X560769Y426580D01*
X561209Y426326D01*
X561648Y426002D01*
X562088Y425655D01*
X562505Y425238D01*
X562898Y424776D01*
X562921Y424752D01*
X562990Y424660D01*
X563083Y424521D01*
X563199Y424336D01*
X563338Y424104D01*
X563499Y423827D01*
X563685Y423503D01*
X563870Y423156D01*
X564032Y422739D01*
X564217Y422323D01*
X564379Y421837D01*
X564518Y421351D01*
X564633Y420819D01*
X564726Y420263D01*
X564795Y419708D01*
X564818Y419106D01*
Y419060D01*
Y418968D01*
X564795Y418782D01*
Y418574D01*
X564749Y418296D01*
X564726Y417949D01*
X564656Y417602D01*
X564587Y417186D01*
X564471Y416769D01*
X564356Y416306D01*
X564194Y415844D01*
X564008Y415358D01*
X563800Y414849D01*
X563523Y414363D01*
X563245Y413877D01*
X562898Y413414D01*
X562875Y413391D01*
X562805Y413298D01*
X562690Y413183D01*
X562528Y412998D01*
X562319Y412812D01*
X562065Y412581D01*
X561787Y412350D01*
X561463Y412095D01*
X561116Y411841D01*
X560723Y411609D01*
X560283Y411378D01*
X559820Y411193D01*
X559334Y411031D01*
X558802Y410892D01*
X558270Y410799D01*
X557691Y410776D01*
X557553D01*
X557391Y410799D01*
X557182Y410822D01*
X556905Y410869D01*
X556604Y410915D01*
X556257Y411007D01*
X555863Y411100D01*
X555470Y411239D01*
X555054Y411424D01*
X554614Y411632D01*
X554174Y411887D01*
X553735Y412188D01*
X553318Y412535D01*
X552878Y412951D01*
X552485Y413414D01*
X552462Y413437D01*
X552393Y413530D01*
X552300Y413669D01*
X552184Y413854D01*
X552046Y414085D01*
X551884Y414363D01*
X551698Y414687D01*
X551536Y415057D01*
X551351Y415450D01*
X551166Y415890D01*
X551004Y416353D01*
X550865Y416862D01*
X550750Y417394D01*
X550657Y417949D01*
X550588Y418505D01*
X550564Y419106D01*
Y419153D01*
Y419245D01*
X550588Y419430D01*
Y419638D01*
X550634Y419939D01*
X550657Y420263D01*
X550727Y420610D01*
X550796Y421027D01*
X550912Y421443D01*
X551027Y421906D01*
X551189Y422369D01*
X551374Y422855D01*
X551606Y423341D01*
X551860Y423827D01*
X552138Y424313D01*
X552485Y424776D01*
X552508Y424799D01*
X552578Y424891D01*
X552693Y425030D01*
X552855Y425192D01*
X553064Y425400D01*
X553318Y425608D01*
X553596Y425863D01*
X553920Y426118D01*
X554267Y426349D01*
X554683Y426604D01*
X555100Y426812D01*
X555563Y427020D01*
X556049Y427182D01*
X556581Y427321D01*
X557113Y427413D01*
X557691Y427436D01*
X557830D01*
X557992Y427413D01*
D02*
G37*
G36*
X494197Y427205D02*
X494382Y427182D01*
X494613Y427159D01*
X494868Y427113D01*
X495122Y427043D01*
X495724Y426881D01*
X496025Y426765D01*
X496326Y426604D01*
X496650Y426441D01*
X496950Y426256D01*
X497251Y426025D01*
X497529Y425770D01*
X497552Y425747D01*
X497598Y425701D01*
X497668Y425632D01*
X497760Y425516D01*
X497876Y425354D01*
X497992Y425192D01*
X498131Y424984D01*
X498270Y424776D01*
X498385Y424521D01*
X498524Y424243D01*
X498640Y423919D01*
X498755Y423595D01*
X498848Y423248D01*
X498917Y422878D01*
X498964Y422508D01*
X498987Y422091D01*
Y422068D01*
Y421999D01*
Y421883D01*
X498964Y421721D01*
X498941Y421536D01*
X498917Y421305D01*
X498871Y421073D01*
X498802Y420796D01*
X498640Y420217D01*
X498524Y419916D01*
X498362Y419592D01*
X498200Y419291D01*
X498015Y418991D01*
X497784Y418690D01*
X497529Y418412D01*
X497506Y418389D01*
X497460Y418343D01*
X497390Y418273D01*
X497275Y418181D01*
X497113Y418065D01*
X496950Y417949D01*
X496742Y417811D01*
X496511Y417695D01*
X496256Y417556D01*
X495979Y417417D01*
X495678Y417301D01*
X495354Y417186D01*
X495007Y417093D01*
X494637Y417024D01*
X494243Y416978D01*
X493827Y416954D01*
X489199D01*
Y412026D01*
Y412002D01*
Y411979D01*
X489176Y411841D01*
X489129Y411632D01*
X489037Y411401D01*
X488898Y411170D01*
X488667Y410961D01*
X488528Y410892D01*
X488366Y410822D01*
X488181Y410799D01*
X487949Y410776D01*
X487903D01*
X487741Y410799D01*
X487556Y410845D01*
X487325Y410938D01*
X487070Y411077D01*
X486885Y411308D01*
X486792Y411447D01*
X486723Y411609D01*
X486700Y411817D01*
X486677Y412026D01*
Y425956D01*
Y425979D01*
Y426048D01*
X486700Y426141D01*
X486723Y426256D01*
X486769Y426395D01*
X486839Y426534D01*
X486931Y426696D01*
X487047Y426835D01*
X487070Y426858D01*
X487116Y426904D01*
X487209Y426951D01*
X487301Y427043D01*
X487440Y427113D01*
X487602Y427159D01*
X487764Y427205D01*
X487949Y427228D01*
X494035D01*
X494197Y427205D01*
D02*
G37*
G36*
X508520Y427275D02*
X508728Y427182D01*
X508867Y427113D01*
X509006Y427020D01*
X509029Y426997D01*
X509076Y426974D01*
X509238Y426858D01*
X509399Y426673D01*
X509469Y426580D01*
X509515Y426488D01*
X515254Y412373D01*
X515277Y412327D01*
X515300Y412211D01*
X515323Y412049D01*
X515346Y411841D01*
Y411817D01*
Y411748D01*
X515323Y411655D01*
X515300Y411540D01*
X515254Y411401D01*
X515184Y411239D01*
X515092Y411100D01*
X514953Y410961D01*
X514930Y410938D01*
X514884Y410915D01*
X514791Y410845D01*
X514698Y410799D01*
X514560Y410730D01*
X514398Y410660D01*
X514212Y410637D01*
X514027Y410614D01*
X514004D01*
X513889Y410637D01*
X513750Y410660D01*
X513588Y410707D01*
X513403Y410799D01*
X513218Y410938D01*
X513032Y411146D01*
X512894Y411401D01*
X511690Y414386D01*
X504471D01*
X503268Y411401D01*
X503245Y411378D01*
X503198Y411285D01*
X503129Y411146D01*
X503013Y411007D01*
X502851Y410869D01*
X502643Y410730D01*
X502411Y410637D01*
X502134Y410614D01*
X502041D01*
X501949Y410637D01*
X501833Y410660D01*
X501532Y410753D01*
X501370Y410822D01*
X501231Y410938D01*
X501208Y410961D01*
X501162Y411007D01*
X501092Y411077D01*
X501023Y411193D01*
X500954Y411331D01*
X500884Y411470D01*
X500838Y411655D01*
X500815Y411841D01*
Y411864D01*
Y411887D01*
X500838Y412002D01*
X500861Y412188D01*
X500907Y412373D01*
X506646Y426488D01*
Y426511D01*
X506669Y426534D01*
X506739Y426650D01*
X506808Y426719D01*
X506900Y426812D01*
X506993Y426927D01*
X507132Y427020D01*
X507155Y427043D01*
X507201Y427066D01*
X507271Y427113D01*
X507386Y427159D01*
X507595Y427251D01*
X507710Y427298D01*
X508381D01*
X508520Y427275D01*
D02*
G37*
G36*
X525597Y427413D02*
X525805Y427321D01*
X525944Y427251D01*
X526083Y427159D01*
X526106Y427136D01*
X526152Y427113D01*
X526314Y426997D01*
X526476Y426812D01*
X526546Y426719D01*
X526592Y426627D01*
X531729Y413507D01*
X532169D01*
X532261Y413483D01*
X532377Y413460D01*
X532516Y413414D01*
X532655Y413345D01*
X532817Y413252D01*
X532955Y413113D01*
X532979Y413090D01*
X533025Y413044D01*
X533071Y412974D01*
X533164Y412859D01*
X533233Y412743D01*
X533279Y412581D01*
X533326Y412419D01*
X533349Y412234D01*
Y408022D01*
Y407999D01*
Y407976D01*
X533326Y407814D01*
X533279Y407629D01*
X533187Y407398D01*
X533048Y407143D01*
X532817Y406958D01*
X532678Y406866D01*
X532493Y406796D01*
X532308Y406773D01*
X532076Y406750D01*
X532030D01*
X531868Y406773D01*
X531683Y406819D01*
X531451Y406912D01*
X531197Y407051D01*
X531012Y407282D01*
X530919Y407444D01*
X530850Y407606D01*
X530827Y407791D01*
X530803Y408022D01*
Y410961D01*
X519511D01*
Y408022D01*
Y407999D01*
Y407976D01*
Y407907D01*
X519488Y407814D01*
X519442Y407606D01*
X519350Y407351D01*
X519211Y407097D01*
X518979Y406889D01*
X518840Y406796D01*
X518678Y406750D01*
X518493Y406704D01*
X518262Y406680D01*
X518169D01*
X518054Y406704D01*
X517938Y406727D01*
X517776Y406773D01*
X517614Y406842D01*
X517452Y406935D01*
X517313Y407074D01*
X517290Y407097D01*
X517267Y407143D01*
X517197Y407213D01*
X517151Y407328D01*
X517082Y407467D01*
X517012Y407629D01*
X516989Y407814D01*
X516966Y408022D01*
Y412234D01*
Y412257D01*
Y412327D01*
X516989Y412419D01*
X517012Y412535D01*
X517059Y412673D01*
X517128Y412812D01*
X517221Y412974D01*
X517360Y413113D01*
X517383Y413136D01*
X517429Y413183D01*
X517522Y413229D01*
X517614Y413321D01*
X517753Y413391D01*
X517915Y413437D01*
X518077Y413483D01*
X518262Y413507D01*
X518586D01*
X523723Y426627D01*
Y426650D01*
X523746Y426673D01*
X523815Y426789D01*
X523885Y426858D01*
X523977Y426951D01*
X524070Y427066D01*
X524209Y427159D01*
X524232Y427182D01*
X524278Y427205D01*
X524348Y427251D01*
X524463Y427298D01*
X524672Y427390D01*
X524787Y427436D01*
X525458D01*
X525597Y427413D01*
D02*
G37*
G36*
X539492Y403381D02*
X539608Y403358D01*
X539747Y403311D01*
X539886Y403242D01*
X540048Y403149D01*
X540187Y403034D01*
X540210Y403010D01*
X540256Y402964D01*
X540302Y402895D01*
X540395Y402779D01*
X540464Y402640D01*
X540510Y402501D01*
X540557Y402316D01*
X540580Y402131D01*
Y387993D01*
Y387970D01*
Y387901D01*
X540557Y387785D01*
X540534Y387669D01*
X540487Y387507D01*
X540395Y387345D01*
X540302Y387183D01*
X540163Y387044D01*
X540140Y387021D01*
X540094Y386998D01*
X540024Y386952D01*
X539909Y386906D01*
X539654Y386790D01*
X539492Y386767D01*
X539307Y386744D01*
X539238D01*
X539145Y386767D01*
X539030Y386790D01*
X538752Y386882D01*
X538590Y386952D01*
X538451Y387044D01*
X538428Y387067D01*
X538382Y387114D01*
X538312Y387183D01*
X538243Y387299D01*
X538173Y387438D01*
X538104Y387600D01*
X538058Y387785D01*
X538035Y387993D01*
Y398938D01*
X534193Y393662D01*
X534170Y393639D01*
X534124Y393570D01*
X534031Y393500D01*
X533916Y393408D01*
X533777Y393292D01*
X533592Y393223D01*
X533383Y393153D01*
X533152Y393130D01*
X533036D01*
X532921Y393153D01*
X532782Y393199D01*
X532620Y393269D01*
X532458Y393361D01*
X532296Y393477D01*
X532134Y393662D01*
X528270Y398915D01*
Y387993D01*
Y387970D01*
Y387901D01*
X528247Y387785D01*
X528223Y387669D01*
X528177Y387507D01*
X528085Y387345D01*
X527992Y387183D01*
X527853Y387044D01*
X527830Y387021D01*
X527784Y386998D01*
X527714Y386952D01*
X527599Y386906D01*
X527344Y386790D01*
X527182Y386767D01*
X526997Y386744D01*
X526928D01*
X526835Y386767D01*
X526719Y386790D01*
X526442Y386882D01*
X526303Y386952D01*
X526164Y387044D01*
X526141Y387067D01*
X526095Y387114D01*
X526025Y387183D01*
X525956Y387299D01*
X525863Y387438D01*
X525794Y387600D01*
X525747Y387785D01*
X525724Y387993D01*
Y402131D01*
Y402154D01*
Y402224D01*
X525747Y402316D01*
X525771Y402432D01*
X525817Y402571D01*
X525886Y402710D01*
X525979Y402872D01*
X526095Y403010D01*
X526118Y403034D01*
X526164Y403080D01*
X526257Y403126D01*
X526349Y403219D01*
X526488Y403288D01*
X526650Y403335D01*
X526812Y403381D01*
X526997Y403404D01*
X527599D01*
X527714Y403381D01*
X527853Y403335D01*
X528015Y403288D01*
X528200Y403196D01*
X528362Y403057D01*
X528524Y402895D01*
X533152Y396578D01*
X537757Y402895D01*
X537780Y402918D01*
X537826Y402964D01*
X537919Y403057D01*
X538035Y403149D01*
X538173Y403242D01*
X538358Y403335D01*
X538567Y403381D01*
X538798Y403404D01*
X539400D01*
X539492Y403381D01*
D02*
G37*
G36*
X554926D02*
X555042Y403358D01*
X555181Y403311D01*
X555343Y403242D01*
X555482Y403149D01*
X555644Y403010D01*
X555667Y402987D01*
X555713Y402941D01*
X555759Y402872D01*
X555852Y402756D01*
X555921Y402640D01*
X555968Y402478D01*
X556014Y402316D01*
X556037Y402131D01*
Y387993D01*
Y387970D01*
Y387947D01*
X556014Y387808D01*
X555968Y387600D01*
X555875Y387368D01*
X555713Y387137D01*
X555482Y386929D01*
X555343Y386859D01*
X555181Y386790D01*
X554973Y386767D01*
X554741Y386744D01*
X554695D01*
X554556Y386767D01*
X554348Y386813D01*
X554116Y386906D01*
X553885Y387044D01*
X553677Y387276D01*
X553607Y387415D01*
X553538Y387576D01*
X553515Y387785D01*
X553492Y387993D01*
Y398498D01*
X546480Y387322D01*
X546457Y387299D01*
X546388Y387229D01*
X546318Y387160D01*
X546226Y387114D01*
X546110Y387044D01*
X545971Y386952D01*
X545948D01*
X545902Y386929D01*
X545763Y386859D01*
X545555Y386767D01*
X545393Y386744D01*
X544791D01*
X544699Y386767D01*
X544583Y386790D01*
X544467Y386836D01*
X544305Y386906D01*
X544166Y386998D01*
X544005Y387114D01*
X543981Y387137D01*
X543935Y387183D01*
X543889Y387253D01*
X543819Y387368D01*
X543727Y387484D01*
X543680Y387646D01*
X543634Y387808D01*
X543611Y387993D01*
Y402131D01*
Y402154D01*
Y402224D01*
X543634Y402340D01*
X543657Y402478D01*
X543704Y402617D01*
X543773Y402779D01*
X543866Y402941D01*
X544005Y403080D01*
X544028Y403103D01*
X544074Y403126D01*
X544143Y403172D01*
X544259Y403242D01*
X544375Y403311D01*
X544537Y403358D01*
X544699Y403381D01*
X544884Y403404D01*
X544930D01*
X545092Y403381D01*
X545277Y403335D01*
X545532Y403242D01*
X545763Y403103D01*
X545948Y402872D01*
X546041Y402733D01*
X546110Y402548D01*
X546133Y402363D01*
X546157Y402131D01*
Y391603D01*
X553168Y402802D01*
X553191Y402825D01*
X553283Y402918D01*
X553422Y403034D01*
X553538Y403103D01*
X553677Y403172D01*
X553700D01*
X553746Y403219D01*
X553908Y403288D01*
X554093Y403358D01*
X554255Y403404D01*
X554834D01*
X554926Y403381D01*
D02*
G37*
G36*
X564159Y403404D02*
X564390Y403381D01*
X564668Y403358D01*
X564992Y403288D01*
X565339Y403196D01*
X565732Y403103D01*
X566126Y402964D01*
X566565Y402779D01*
X567005Y402571D01*
X567468Y402316D01*
X567907Y402015D01*
X568347Y401668D01*
X568787Y401252D01*
X569203Y400789D01*
X569226Y400766D01*
X569296Y400673D01*
X569388Y400535D01*
X569527Y400350D01*
X569666Y400118D01*
X569851Y399840D01*
X570036Y399516D01*
X570221Y399146D01*
X570407Y398753D01*
X570592Y398313D01*
X570777Y397827D01*
X570916Y397341D01*
X571054Y396809D01*
X571147Y396231D01*
X571216Y395652D01*
X571240Y395051D01*
Y395004D01*
Y394912D01*
X571216Y394727D01*
Y394495D01*
X571170Y394218D01*
X571124Y393894D01*
X571078Y393523D01*
X570985Y393107D01*
X570869Y392667D01*
X570754Y392228D01*
X570569Y391742D01*
X570383Y391256D01*
X570152Y390770D01*
X569874Y390261D01*
X569574Y389775D01*
X569203Y389312D01*
X569180Y389289D01*
X569111Y389196D01*
X568995Y389081D01*
X568810Y388919D01*
X568602Y388710D01*
X568347Y388502D01*
X568069Y388248D01*
X567722Y388016D01*
X567352Y387785D01*
X566959Y387530D01*
X566519Y387322D01*
X566033Y387137D01*
X565547Y386952D01*
X565015Y386836D01*
X564437Y386744D01*
X563858Y386720D01*
X563696D01*
X563580Y386744D01*
X563442Y386767D01*
X563256Y386790D01*
X563048Y386813D01*
X562840Y386859D01*
X562331Y386998D01*
X561752Y387206D01*
X561452Y387322D01*
X561128Y387484D01*
X560804Y387646D01*
X560457Y387854D01*
X560434Y387877D01*
X560364Y387901D01*
X560271Y387970D01*
X560156Y388063D01*
X559832Y388317D01*
X559485Y388618D01*
X559138Y389011D01*
X558814Y389451D01*
X558698Y389682D01*
X558605Y389914D01*
X558536Y390168D01*
X558513Y390423D01*
Y390446D01*
Y390469D01*
X558536Y390631D01*
X558559Y390816D01*
X558652Y391071D01*
X558767Y391302D01*
X558953Y391487D01*
X559230Y391649D01*
X559392Y391672D01*
X559577Y391695D01*
X559647D01*
X559716Y391672D01*
X559832Y391626D01*
X559948Y391533D01*
X560133Y391418D01*
X560318Y391256D01*
X560549Y391048D01*
X560595Y391001D01*
X560688Y390909D01*
X560850Y390747D01*
X561035Y390561D01*
X561475Y390168D01*
X561660Y390006D01*
X561845Y389867D01*
X561891Y389844D01*
X562007Y389775D01*
X562192Y389659D01*
X562447Y389543D01*
X562771Y389428D01*
X563094Y389312D01*
X563488Y389243D01*
X563881Y389219D01*
X564043D01*
X564182Y389243D01*
X564321Y389266D01*
X564506Y389289D01*
X564899Y389405D01*
X565385Y389566D01*
X565640Y389705D01*
X565894Y389844D01*
X566172Y390006D01*
X566427Y390191D01*
X566704Y390423D01*
X566959Y390677D01*
X566982Y390700D01*
X567005Y390747D01*
X567075Y390816D01*
X567167Y390909D01*
X567260Y391048D01*
X567375Y391186D01*
X567514Y391371D01*
X567630Y391580D01*
X567907Y392019D01*
X568185Y392551D01*
X568417Y393153D01*
X568578Y393801D01*
X561729D01*
X561614Y393824D01*
X561498Y393847D01*
X561336Y393894D01*
X561174Y393940D01*
X561012Y394032D01*
X560873Y394148D01*
X560850Y394171D01*
X560827Y394218D01*
X560757Y394287D01*
X560688Y394403D01*
X560619Y394518D01*
X560572Y394680D01*
X560526Y394842D01*
X560503Y395051D01*
Y395074D01*
Y395143D01*
X560526Y395259D01*
X560549Y395374D01*
X560595Y395536D01*
X560665Y395675D01*
X560757Y395837D01*
X560873Y395976D01*
X560896Y395999D01*
X560942Y396022D01*
X561012Y396092D01*
X561128Y396161D01*
X561267Y396208D01*
X561428Y396277D01*
X561614Y396300D01*
X561822Y396323D01*
X568578D01*
Y396346D01*
X568555Y396393D01*
X568532Y396508D01*
X568509Y396624D01*
X568463Y396786D01*
X568417Y396948D01*
X568255Y397388D01*
X568046Y397874D01*
X567769Y398383D01*
X567422Y398938D01*
X566982Y399447D01*
X566959Y399470D01*
X566912Y399516D01*
X566843Y399586D01*
X566750Y399678D01*
X566612Y399794D01*
X566450Y399910D01*
X566265Y400049D01*
X566079Y400187D01*
X565617Y400465D01*
X565084Y400697D01*
X564807Y400789D01*
X564506Y400859D01*
X564205Y400905D01*
X563881Y400928D01*
X563696D01*
X563488Y400905D01*
X563233Y400859D01*
X562933Y400789D01*
X562609Y400673D01*
X562262Y400535D01*
X561937Y400350D01*
X561891Y400326D01*
X561822Y400257D01*
X561729Y400187D01*
X561567Y400049D01*
X561359Y399864D01*
X561081Y399609D01*
X560734Y399308D01*
X560711Y399285D01*
X560619Y399216D01*
X560503Y399123D01*
X560341Y399030D01*
X560179Y398915D01*
X559971Y398822D01*
X559762Y398753D01*
X559577Y398730D01*
X559531D01*
X559415Y398753D01*
X559230Y398776D01*
X559045Y398845D01*
X558860Y398961D01*
X558675Y399146D01*
X558559Y399378D01*
X558536Y399540D01*
X558513Y399702D01*
Y399725D01*
Y399771D01*
X558536Y399840D01*
Y399933D01*
X558582Y400049D01*
X558605Y400187D01*
X558767Y400535D01*
X558860Y400720D01*
X558999Y400928D01*
X559138Y401159D01*
X559323Y401368D01*
X559554Y401599D01*
X559809Y401830D01*
X560109Y402062D01*
X560457Y402293D01*
X560480Y402316D01*
X560549Y402340D01*
X560642Y402409D01*
X560757Y402478D01*
X560919Y402548D01*
X561105Y402663D01*
X561336Y402756D01*
X561567Y402872D01*
X562076Y403080D01*
X562655Y403242D01*
X563256Y403381D01*
X563557Y403404D01*
X563858Y403427D01*
X563997D01*
X564159Y403404D01*
D02*
G37*
G36*
X584961Y403172D02*
X585169Y403126D01*
X585401Y403034D01*
X585632Y402895D01*
X585840Y402663D01*
X585910Y402525D01*
X585979Y402340D01*
X586003Y402154D01*
X586026Y401923D01*
Y401900D01*
Y401877D01*
X586003Y401738D01*
X585956Y401530D01*
X585864Y401298D01*
X585725Y401067D01*
X585493Y400859D01*
X585355Y400789D01*
X585193Y400720D01*
X585008Y400697D01*
X584776Y400673D01*
X580773D01*
Y387993D01*
Y387970D01*
Y387947D01*
X580750Y387808D01*
X580704Y387600D01*
X580611Y387368D01*
X580472Y387137D01*
X580241Y386929D01*
X580102Y386859D01*
X579940Y386790D01*
X579755Y386767D01*
X579524Y386744D01*
X579477D01*
X579315Y386767D01*
X579107Y386813D01*
X578876Y386906D01*
X578644Y387044D01*
X578436Y387276D01*
X578343Y387415D01*
X578274Y387576D01*
X578251Y387785D01*
X578228Y387993D01*
Y400673D01*
X574225D01*
X574063Y400697D01*
X573877Y400743D01*
X573646Y400835D01*
X573391Y400974D01*
X573206Y401206D01*
X573114Y401344D01*
X573044Y401507D01*
X573021Y401715D01*
X572998Y401923D01*
Y401946D01*
Y401969D01*
X573021Y402131D01*
X573068Y402316D01*
X573160Y402571D01*
X573299Y402802D01*
X573530Y402987D01*
X573692Y403080D01*
X573854Y403149D01*
X574039Y403172D01*
X574271Y403196D01*
X584822D01*
X584961Y403172D01*
D02*
G37*
G36*
X448479Y428283D02*
X448806Y428129D01*
X448868Y428106D01*
X448991Y428062D01*
X449111Y427913D01*
X449212Y427807D01*
X449231Y427765D01*
X449245Y427516D01*
X449220Y427351D01*
X449130Y427105D01*
X449041Y426859D01*
X448887Y426532D01*
X448842Y426409D01*
X448711Y426144D01*
X448554Y425713D01*
X448375Y425221D01*
X448173Y424668D01*
X448056Y424153D01*
X448003Y423720D01*
X448039Y423533D01*
X448075Y423345D01*
X448114Y423261D01*
X448215Y423155D01*
X448442Y423108D01*
X448564Y423063D01*
X448774Y423161D01*
X448881Y423261D01*
X449071Y423401D01*
X449325Y423622D01*
X449624Y423966D01*
X450030Y424410D01*
X450461Y425019D01*
X450936Y425752D01*
X450959Y425813D01*
X451087Y425975D01*
X451216Y426138D01*
X451364Y426258D01*
X451448Y426297D01*
X451613Y426272D01*
X451736Y426227D01*
X451797Y426204D01*
X451901Y426202D01*
X452001Y426095D01*
X452102Y425989D01*
X452122Y425947D01*
X452119Y425844D01*
X452136Y425698D01*
X452088Y425472D01*
X452038Y425142D01*
X451881Y424711D01*
X451660Y424200D01*
X451310Y423526D01*
X451246Y423445D01*
X451095Y423222D01*
X450857Y422855D01*
X450577Y422469D01*
X450191Y421983D01*
X449724Y421561D01*
X449257Y421139D01*
X448690Y420823D01*
X448606Y420784D01*
X448335Y420709D01*
X447918Y420617D01*
X447462Y420608D01*
X447359Y420611D01*
X447155Y420720D01*
X446892Y420955D01*
X446710Y421126D01*
X446593Y421378D01*
X446573Y421419D01*
X446554Y421461D01*
X446498Y421691D01*
X446467Y422085D01*
X446482Y422602D01*
X446417Y422521D01*
X446328Y422275D01*
X446109Y421867D01*
X445908Y421314D01*
X445597Y420556D01*
X445304Y419653D01*
X444985Y418585D01*
X444682Y417372D01*
X444679Y417268D01*
X444609Y416980D01*
X444556Y416547D01*
X444478Y415949D01*
X444396Y415247D01*
X444290Y414380D01*
X444264Y413449D01*
X444236Y412415D01*
X444256Y412373D01*
X444211Y412250D01*
X444138Y411859D01*
X443940Y411409D01*
X443769Y411227D01*
X443579Y411087D01*
X443453Y411028D01*
X443204Y411015D01*
X442997Y411020D01*
X442874Y411065D01*
X442712Y411194D01*
X442572Y411384D01*
X442553Y411426D01*
X442514Y411510D01*
X442458Y411739D01*
X442385Y412113D01*
X442296Y412634D01*
X442262Y412924D01*
X442232Y413319D01*
X442182Y413755D01*
X442132Y414191D01*
X442084Y414730D01*
X442059Y415332D01*
X442040Y415373D01*
X442065Y415538D01*
X442051Y415787D01*
X442040Y416140D01*
X442009Y416534D01*
X441981Y417031D01*
X441996Y417549D01*
X441970Y418150D01*
X442004Y419391D01*
X442083Y420755D01*
X442243Y422055D01*
X442321Y422654D01*
X442442Y423271D01*
X442464Y423333D01*
X442512Y423559D01*
X442604Y423909D01*
X442738Y424278D01*
X442915Y424666D01*
X443091Y425055D01*
X443306Y425360D01*
X443580Y425539D01*
X443748Y425617D01*
X443913Y425592D01*
X444120Y425586D01*
X444181Y425564D01*
X444304Y425519D01*
X444467Y425390D01*
X444587Y425242D01*
X444606Y425200D01*
X444642Y425013D01*
X444634Y424702D01*
X444581Y424269D01*
X444558Y424207D01*
X444536Y424146D01*
X444491Y424023D01*
X444444Y423797D01*
X444374Y423509D01*
X444278Y423056D01*
X444161Y422541D01*
X444138Y422480D01*
X444113Y422315D01*
X444063Y421985D01*
X444012Y421655D01*
X443959Y421222D01*
X443926Y420746D01*
X443878Y419754D01*
X443900Y419815D01*
X443923Y419877D01*
X444057Y420246D01*
X444258Y420799D01*
X444527Y421538D01*
X444882Y422418D01*
X445302Y423380D01*
X445786Y424422D01*
X446334Y425546D01*
X446357Y425608D01*
X446443Y425750D01*
X446552Y425954D01*
X446684Y426220D01*
X446880Y426567D01*
X447075Y426913D01*
X447573Y427707D01*
X447615Y427727D01*
X447638Y427788D01*
X447747Y427992D01*
X447917Y428174D01*
X448066Y428294D01*
X448107Y428313D01*
X448253Y428330D01*
X448479Y428283D01*
D02*
G37*
G36*
X460606Y442465D02*
X460998Y442392D01*
X461059Y442370D01*
X461263Y442261D01*
X461445Y442090D01*
X461604Y441858D01*
X461643Y441774D01*
X461640Y441671D01*
X461677Y441483D01*
X461713Y441296D01*
X461704Y440986D01*
X461716Y440633D01*
X461662Y440200D01*
X461640Y440139D01*
X461657Y439993D01*
X461631Y439828D01*
X461581Y439498D01*
X461547Y439023D01*
X461469Y438425D01*
X461385Y437620D01*
X461404Y437578D01*
X461382Y437516D01*
X461376Y437309D01*
X461329Y437083D01*
X461301Y436814D01*
X461292Y436504D01*
X461208Y435699D01*
X461121Y434790D01*
X461093Y433756D01*
X461000Y432640D01*
X460989Y431461D01*
X461198Y431558D01*
X461389Y431698D01*
X461682Y431835D01*
X462208Y432131D01*
X462837Y432425D01*
X463066Y432480D01*
X463296Y432536D01*
X463522Y432489D01*
X463790Y432461D01*
X464014Y432310D01*
X464193Y432036D01*
X464212Y431994D01*
X464252Y431910D01*
X464268Y431764D01*
X464305Y431577D01*
X464299Y431370D01*
X464293Y431163D01*
X464204Y430917D01*
X464053Y430694D01*
X464011Y430674D01*
X463904Y430574D01*
X463779Y430515D01*
X463588Y430375D01*
X463337Y430258D01*
X463021Y430059D01*
X461679Y429433D01*
X461363Y429235D01*
X460943Y429039D01*
X460963Y428997D01*
X460960Y428894D01*
X460935Y428729D01*
X460968Y428438D01*
X460937Y428066D01*
X460965Y427569D01*
X460968Y426906D01*
X460926Y426121D01*
X460945Y426079D01*
X460920Y425914D01*
X460956Y425726D01*
X460948Y425416D01*
X460959Y425064D01*
X460970Y424711D01*
X461028Y423820D01*
X461106Y422886D01*
X461165Y421994D01*
X461226Y421205D01*
X461279Y420873D01*
X461313Y420582D01*
X461332Y420540D01*
X461310Y420479D01*
X461343Y420188D01*
X461354Y419836D01*
X461304Y419506D01*
X461282Y419444D01*
X461175Y419343D01*
X461005Y419162D01*
X460731Y418983D01*
X460647Y418944D01*
X460417Y418888D01*
X460127Y418855D01*
X459819Y418966D01*
X459758Y418989D01*
X459596Y419118D01*
X459414Y419288D01*
X459255Y419520D01*
X459216Y419604D01*
X459176Y419688D01*
X459160Y419833D01*
X459104Y420063D01*
X459028Y420334D01*
X458975Y420667D01*
X458945Y421061D01*
X458875Y421539D01*
X458808Y422120D01*
X458764Y422763D01*
X458660Y423532D01*
X458621Y424382D01*
X458585Y425336D01*
X458552Y426393D01*
X458564Y427572D01*
X458438Y427514D01*
X458331Y427413D01*
X458122Y427315D01*
X457658Y426997D01*
X457129Y426597D01*
X456475Y426139D01*
X455840Y425638D01*
X455225Y425096D01*
X454693Y424593D01*
X454629Y424512D01*
X454439Y424372D01*
X454226Y424171D01*
X453952Y423992D01*
X453826Y423934D01*
X453703Y423978D01*
X453539Y424004D01*
X453312Y424051D01*
X453130Y424222D01*
X452910Y424476D01*
X452692Y424834D01*
X452672Y424876D01*
X452633Y424960D01*
X452616Y425105D01*
X452580Y425293D01*
X452510Y425771D01*
X452519Y426081D01*
X452569Y426411D01*
X452591Y426473D01*
X452681Y426719D01*
X452796Y427130D01*
X452978Y427725D01*
X453246Y428463D01*
X453582Y429385D01*
X453943Y430473D01*
X454413Y431764D01*
X454436Y431826D01*
X454480Y431949D01*
X454570Y432195D01*
X454682Y432503D01*
X454858Y432891D01*
X455015Y433322D01*
X455437Y434387D01*
X455966Y435552D01*
X456497Y436822D01*
X457071Y438110D01*
X457684Y439315D01*
X457725Y439334D01*
X457728Y439438D01*
X457902Y439723D01*
X458162Y440151D01*
X458467Y440701D01*
X458875Y441249D01*
X459261Y441736D01*
X459644Y442119D01*
X460025Y442398D01*
X460108Y442437D01*
X460296Y442473D01*
X460606Y442465D01*
D02*
G37*
G36*
X404814Y408585D02*
X405141Y408431D01*
X405345Y408322D01*
X405527Y408152D01*
X405706Y407878D01*
X405885Y407603D01*
X405904Y407561D01*
X405963Y407436D01*
X406038Y407164D01*
X406114Y406893D01*
X406144Y406499D01*
X406175Y406105D01*
X406161Y405588D01*
X406043Y405073D01*
X406021Y405012D01*
X405954Y404827D01*
X405864Y404581D01*
X405710Y404254D01*
X405492Y403846D01*
X405210Y403357D01*
X404824Y402870D01*
X404396Y402365D01*
X404354Y402345D01*
X404290Y402264D01*
X404141Y402144D01*
X403951Y402004D01*
X403507Y401643D01*
X403065Y401386D01*
X402939Y401328D01*
X402648Y401294D01*
X402483Y401320D01*
X402299Y401387D01*
X402137Y401515D01*
X401997Y401705D01*
X401977Y401747D01*
X401958Y401789D01*
X401902Y402019D01*
X401910Y402329D01*
X402064Y402656D01*
X402106Y402676D01*
X402129Y402737D01*
X402254Y402796D01*
X402403Y402916D01*
X402593Y403056D01*
X402889Y403296D01*
X403228Y403556D01*
X403270Y403576D01*
X403334Y403657D01*
X403440Y403757D01*
X403569Y403919D01*
X403868Y404263D01*
X404173Y404814D01*
X404215Y404833D01*
X404218Y404937D01*
X404330Y405244D01*
X404361Y405616D01*
X404324Y405803D01*
X404288Y405991D01*
X404249Y406075D01*
X404129Y406223D01*
X404008Y406371D01*
X403762Y406461D01*
X403701Y406483D01*
X403536Y406508D01*
X403307Y406452D01*
X402994Y406357D01*
X402784Y406260D01*
X402594Y406120D01*
X402339Y405899D01*
X402043Y405659D01*
X401702Y405295D01*
X401338Y404870D01*
X401013Y404362D01*
X400949Y404281D01*
X400840Y404077D01*
X400728Y403769D01*
X400572Y403339D01*
X400434Y402866D01*
X400420Y402349D01*
X400468Y401809D01*
X400618Y401267D01*
X400638Y401225D01*
X400697Y401099D01*
X400836Y400909D01*
X401057Y400654D01*
X401339Y400378D01*
X401703Y400036D01*
X402128Y399673D01*
X402718Y399284D01*
X402799Y399220D01*
X403003Y399111D01*
X403349Y398915D01*
X403735Y398635D01*
X404098Y398294D01*
X404523Y397930D01*
X404864Y397528D01*
X405102Y397128D01*
X405141Y397044D01*
X405177Y396857D01*
X405292Y396502D01*
X405364Y396127D01*
X405350Y395610D01*
X405313Y395031D01*
X405173Y394455D01*
X404846Y393843D01*
X404824Y393781D01*
X404718Y393681D01*
X404589Y393519D01*
X404376Y393317D01*
X404100Y393035D01*
X403803Y392795D01*
X403445Y392577D01*
X403045Y392339D01*
X402961Y392300D01*
X402732Y392244D01*
X402419Y392149D01*
X401960Y392038D01*
X401463Y392010D01*
X400904Y392004D01*
X400286Y392125D01*
X399713Y392368D01*
X399651Y392391D01*
X399551Y392497D01*
X399327Y392648D01*
X399084Y392841D01*
X398821Y393076D01*
X398561Y393414D01*
X398282Y393794D01*
X398025Y394236D01*
X397985Y394320D01*
X397907Y394488D01*
X397832Y394759D01*
X397717Y395114D01*
X397606Y395573D01*
X397597Y396029D01*
X397570Y396526D01*
X397645Y397021D01*
X397668Y397082D01*
X397670Y397186D01*
X397824Y397513D01*
X398000Y397901D01*
X398191Y398041D01*
X398339Y398162D01*
X398423Y398201D01*
X398610Y398237D01*
X398795Y398170D01*
X398918Y398125D01*
X398976Y397999D01*
X398996Y397957D01*
X399035Y397873D01*
X399010Y397708D01*
X399024Y397459D01*
X399043Y397418D01*
X398998Y397295D01*
X399035Y397107D01*
X399068Y396816D01*
X399102Y396526D01*
X399216Y396171D01*
X399484Y395377D01*
X399504Y395335D01*
X399563Y395209D01*
X399683Y395061D01*
X399823Y394870D01*
X400024Y394658D01*
X400225Y394445D01*
X400510Y394272D01*
X400837Y394118D01*
X400899Y394096D01*
X401002Y394093D01*
X401125Y394048D01*
X401332Y394042D01*
X401849Y394028D01*
X402120Y394104D01*
X402434Y394199D01*
X402559Y394257D01*
X402666Y394358D01*
X402833Y394436D01*
X403133Y394780D01*
X403261Y394942D01*
X403351Y395188D01*
X403354Y395291D01*
X403424Y395579D01*
X403393Y395974D01*
X403239Y396413D01*
X403220Y396455D01*
X403181Y396539D01*
X403041Y396729D01*
X402859Y396899D01*
X402639Y397154D01*
X402295Y397453D01*
X401867Y397713D01*
X401358Y398037D01*
X401277Y398102D01*
X401054Y398253D01*
X400687Y398491D01*
X400282Y398812D01*
X399815Y399156D01*
X399393Y399623D01*
X398991Y400048D01*
X398695Y400574D01*
X398675Y400616D01*
X398656Y400658D01*
X398580Y400929D01*
X398508Y401304D01*
X398418Y401824D01*
X398435Y402445D01*
X398517Y403146D01*
X398746Y403968D01*
X398945Y404418D01*
X399163Y404826D01*
X399205Y404846D01*
X399227Y404907D01*
X399401Y405193D01*
X399703Y405640D01*
X400131Y406146D01*
X400642Y406691D01*
X401238Y407275D01*
X401915Y407795D01*
X402734Y408228D01*
X403153Y408423D01*
X403425Y408499D01*
X404071Y408647D01*
X404381Y408638D01*
X404691Y408630D01*
X404733Y408649D01*
X404814Y408585D01*
D02*
G37*
G36*
X435197Y421834D02*
X435239Y421853D01*
X435320Y421789D01*
X435566Y421699D01*
X435891Y421442D01*
X436072Y421272D01*
X436170Y421062D01*
X436190Y421020D01*
X436248Y420894D01*
X436304Y420665D01*
X436357Y420332D01*
X436407Y419896D01*
X436435Y419398D01*
X436441Y418839D01*
X436359Y418137D01*
X436379Y418096D01*
X436334Y417972D01*
X436287Y417746D01*
X436239Y417520D01*
X436147Y417170D01*
X436032Y416759D01*
X435875Y416329D01*
X435696Y415837D01*
X435475Y415325D01*
X435212Y414794D01*
X434907Y414243D01*
X434560Y413673D01*
X434130Y413064D01*
X433679Y412496D01*
X433167Y411951D01*
X432572Y411367D01*
X432748Y410990D01*
X432787Y410906D01*
X432907Y410757D01*
X433047Y410567D01*
X433248Y410355D01*
X433310Y410332D01*
X433371Y410310D01*
X433556Y410243D01*
X433782Y410195D01*
X434050Y410167D01*
X434383Y410220D01*
X434716Y410273D01*
X435113Y410407D01*
X435239Y410466D01*
X435345Y410567D01*
X435513Y410645D01*
X435683Y410827D01*
X435938Y411047D01*
X436450Y411592D01*
X436749Y411936D01*
X437051Y412383D01*
X437375Y412892D01*
X437722Y413462D01*
X438030Y414117D01*
X438318Y414813D01*
X438609Y415612D01*
X438903Y416515D01*
X438925Y416577D01*
X438948Y416638D01*
X439082Y417007D01*
X439236Y417334D01*
X439384Y417454D01*
X439491Y417555D01*
X439532Y417575D01*
X439636Y417572D01*
X439781Y417589D01*
X439966Y417521D01*
X440008Y417541D01*
X440089Y417477D01*
X440170Y417412D01*
X440209Y417328D01*
X440229Y417286D01*
X440226Y417183D01*
X440281Y416954D01*
X440273Y416643D01*
X440220Y416210D01*
X440080Y415634D01*
X439873Y414874D01*
X439758Y414463D01*
X439559Y414013D01*
X439537Y413951D01*
X439405Y413686D01*
X439291Y413275D01*
X439050Y412805D01*
X438765Y412212D01*
X438438Y411600D01*
X438068Y410969D01*
X437637Y410359D01*
X437573Y410278D01*
X437403Y410096D01*
X437168Y409834D01*
X436868Y409490D01*
X436485Y409107D01*
X436041Y408746D01*
X435535Y408408D01*
X435051Y408132D01*
X434841Y408034D01*
X434570Y407958D01*
X434195Y407886D01*
X433801Y407855D01*
X433345Y407847D01*
X432912Y407900D01*
X432420Y408079D01*
X432358Y408102D01*
X432277Y408166D01*
X432115Y408295D01*
X431892Y408446D01*
X431648Y408639D01*
X431428Y408893D01*
X431210Y409251D01*
X430972Y409651D01*
X430953Y409693D01*
X430913Y409777D01*
X430816Y409986D01*
X430760Y410216D01*
X430665Y410529D01*
X430592Y410904D01*
X430500Y411320D01*
X430430Y411798D01*
X430383Y412338D01*
X430316Y412920D01*
X430333Y413540D01*
X430372Y414222D01*
X430454Y414924D01*
X430619Y415665D01*
X430806Y416467D01*
X431055Y417247D01*
X431078Y417309D01*
X431123Y417432D01*
X431190Y417616D01*
X431299Y417820D01*
X431565Y418455D01*
X431937Y419190D01*
X432351Y419945D01*
X432910Y420716D01*
X433187Y420998D01*
X433506Y421300D01*
X433844Y421560D01*
X434160Y421759D01*
X434244Y421798D01*
X434473Y421854D01*
X434806Y421907D01*
X435197Y421834D01*
D02*
G37*
G36*
X423018Y418605D02*
X423202Y418538D01*
X423342Y418348D01*
X423501Y418116D01*
X423540Y418032D01*
X423596Y417803D01*
X423605Y417347D01*
X423638Y417056D01*
X423588Y416726D01*
X423565Y416665D01*
X423582Y416520D01*
X423534Y416293D01*
X423506Y416025D01*
X423428Y415426D01*
X423369Y414786D01*
X423391Y414848D01*
X423456Y414929D01*
X423584Y415091D01*
X423694Y415295D01*
X423973Y415681D01*
X424230Y416005D01*
X424272Y416025D01*
X424317Y416148D01*
X424465Y416268D01*
X424594Y416430D01*
X425039Y416790D01*
X425545Y417129D01*
X425671Y417187D01*
X425858Y417224D01*
X426026Y417302D01*
X426524Y417330D01*
X426792Y417301D01*
X427038Y417212D01*
X427161Y417167D01*
X427262Y417061D01*
X427404Y416974D01*
X427586Y416804D01*
X427745Y416572D01*
X427966Y416317D01*
X428122Y415981D01*
X428142Y415940D01*
X428240Y415730D01*
X428315Y415459D01*
X428407Y415042D01*
X428558Y414500D01*
X428644Y413876D01*
X428667Y413172D01*
X428686Y412364D01*
X428705Y412322D01*
X428661Y412199D01*
X428655Y411992D01*
X428649Y411785D01*
X428599Y411455D01*
X428568Y411083D01*
X428484Y410278D01*
X428291Y409269D01*
X428056Y408240D01*
X427737Y407172D01*
X427337Y406169D01*
X427272Y406087D01*
X427141Y405822D01*
X426903Y405456D01*
X426601Y405008D01*
X426235Y404480D01*
X425787Y404016D01*
X425320Y403594D01*
X424752Y403278D01*
X424627Y403220D01*
X424439Y403183D01*
X424210Y403128D01*
X423919Y403094D01*
X423628Y403061D01*
X423257Y403092D01*
X422865Y403164D01*
X422843Y403103D01*
X422857Y402854D01*
X422848Y402544D01*
X422856Y402088D01*
X422840Y401467D01*
X422842Y400805D01*
X422842Y400039D01*
X422839Y399169D01*
X422855Y398258D01*
X422869Y397243D01*
X422902Y396186D01*
X422955Y395087D01*
X423058Y392786D01*
X423200Y390401D01*
X423219Y390359D01*
X423214Y390153D01*
X423228Y389904D01*
X423200Y389635D01*
X423191Y389325D01*
X423121Y389037D01*
X422990Y388772D01*
X422799Y388632D01*
X422757Y388612D01*
X422612Y388595D01*
X422344Y388624D01*
X422036Y388735D01*
X421975Y388758D01*
X421874Y388864D01*
X421692Y389035D01*
X421553Y389225D01*
X421533Y389267D01*
X421494Y389351D01*
X421477Y389496D01*
X421441Y389683D01*
X421385Y389913D01*
X421352Y390203D01*
X421321Y390598D01*
X421251Y391076D01*
X421204Y391615D01*
X421179Y392216D01*
X421095Y392943D01*
X421056Y393793D01*
X421020Y394747D01*
X420987Y395803D01*
X420979Y397025D01*
X420959Y397067D01*
X420982Y397129D01*
X420965Y397274D01*
X420971Y397481D01*
X420965Y398040D01*
X420985Y398764D01*
X420988Y399634D01*
X420955Y400691D01*
X420986Y401828D01*
X421000Y403112D01*
X421037Y404456D01*
X421035Y405885D01*
X421136Y408843D01*
X421341Y411798D01*
X421465Y413285D01*
X421585Y414669D01*
X421608Y414731D01*
X421613Y414938D01*
X421641Y415206D01*
X421650Y415517D01*
X421731Y416218D01*
X421759Y416487D01*
X421787Y416755D01*
X421810Y416816D01*
X421815Y417023D01*
X421843Y417292D01*
X421871Y417560D01*
X421964Y417910D01*
X422095Y418175D01*
X422227Y418441D01*
X422459Y418600D01*
X422584Y418659D01*
X422833Y418673D01*
X423018Y418605D01*
D02*
G37*
G36*
X415417Y412457D02*
X415705Y412387D01*
X415766Y412365D01*
X415909Y412278D01*
X416071Y412149D01*
X416211Y411959D01*
X416231Y411917D01*
X416250Y411875D01*
X416286Y411688D01*
X416323Y411501D01*
X416356Y411210D01*
X416345Y410796D01*
X416353Y410340D01*
X416316Y409762D01*
X416314Y409658D01*
X416266Y409432D01*
X416235Y409060D01*
X416202Y408585D01*
X416165Y408006D01*
X416106Y407366D01*
X415988Y406085D01*
X416008Y406043D01*
X415985Y405982D01*
X415935Y405652D01*
X415921Y405135D01*
X415904Y404514D01*
X415884Y403790D01*
X415884Y403024D01*
X415884Y402258D01*
X415925Y401511D01*
X415948Y401573D01*
X416077Y401735D01*
X416228Y401959D01*
X416423Y402305D01*
X416642Y402713D01*
X416882Y403183D01*
X417103Y403694D01*
X417305Y404248D01*
X417349Y404371D01*
X417461Y404678D01*
X417576Y405089D01*
X417777Y405643D01*
X417937Y406177D01*
X418077Y406753D01*
X418175Y407309D01*
X418228Y407742D01*
X418209Y407784D01*
X418212Y407888D01*
X418262Y408218D01*
X418416Y408545D01*
X418503Y408687D01*
X418609Y408788D01*
X418693Y408827D01*
X418922Y408883D01*
X419168Y408793D01*
X419269Y408687D01*
X419389Y408539D01*
X419408Y408497D01*
X419425Y408352D01*
X419501Y408080D01*
X419531Y407686D01*
X419517Y407169D01*
X419458Y406529D01*
X419312Y405746D01*
X419058Y404759D01*
X419035Y404697D01*
X419013Y404636D01*
X418946Y404451D01*
X418856Y404206D01*
X418652Y403549D01*
X418319Y402729D01*
X417899Y401768D01*
X417374Y400706D01*
X416722Y399585D01*
X415966Y398467D01*
X415986Y398425D01*
X415961Y398260D01*
X415975Y398011D01*
X416008Y397720D01*
X415997Y397306D01*
X416005Y396851D01*
X416033Y396353D01*
X416019Y395836D01*
X416027Y394614D01*
X416013Y393331D01*
X415956Y392028D01*
X415880Y390767D01*
X415858Y390705D01*
X415852Y390499D01*
X415824Y390230D01*
X415751Y389839D01*
X415698Y389406D01*
X415600Y388849D01*
X415320Y387697D01*
X414915Y386487D01*
X414629Y385894D01*
X414344Y385302D01*
X413978Y384773D01*
X413572Y384329D01*
X413147Y383926D01*
X412663Y383650D01*
X412453Y383552D01*
X412224Y383496D01*
X411933Y383463D01*
X411601Y383410D01*
X411229Y383441D01*
X410818Y383555D01*
X410387Y383712D01*
X410326Y383734D01*
X410245Y383799D01*
X410102Y383885D01*
X409879Y384036D01*
X409635Y384229D01*
X409415Y384484D01*
X409236Y384758D01*
X409018Y385116D01*
X408998Y385158D01*
X408959Y385242D01*
X408923Y385429D01*
X408867Y385658D01*
X408792Y385929D01*
X408719Y386304D01*
X408669Y386740D01*
X408661Y387196D01*
X408697Y387775D01*
X408734Y388354D01*
X408834Y389013D01*
X409019Y389712D01*
X409226Y390473D01*
X409517Y391272D01*
X409934Y392130D01*
X410373Y393050D01*
X410396Y393111D01*
X410505Y393316D01*
X410701Y393662D01*
X410961Y394090D01*
X411308Y394660D01*
X411719Y395311D01*
X412236Y396063D01*
X412860Y396916D01*
X412882Y396977D01*
X412989Y397078D01*
X413098Y397282D01*
X413249Y397506D01*
X413635Y397992D01*
X413959Y398501D01*
X413940Y398543D01*
X413965Y398708D01*
X413928Y398895D01*
X413917Y399247D01*
X413887Y399641D01*
X413921Y400117D01*
X413873Y400656D01*
X413890Y401277D01*
X413893Y401380D01*
X413899Y401587D01*
X413887Y401940D01*
X413921Y402415D01*
X413935Y402932D01*
X413930Y403491D01*
X413941Y404604D01*
X413897Y404548D01*
X413804Y404199D01*
X413667Y403726D01*
X413485Y403131D01*
X413301Y402432D01*
X413096Y401775D01*
X412850Y401098D01*
X412668Y400503D01*
X412626Y400483D01*
X412623Y400380D01*
X412469Y400053D01*
X412271Y399603D01*
X411966Y399052D01*
X411577Y398462D01*
X411169Y397914D01*
X410721Y397450D01*
X410489Y397291D01*
X410257Y397132D01*
X410173Y397093D01*
X409860Y396998D01*
X409488Y397029D01*
X409281Y397034D01*
X409035Y397124D01*
X408954Y397188D01*
X408792Y397317D01*
X408529Y397552D01*
X408312Y397910D01*
X408292Y397952D01*
X408272Y397994D01*
X408214Y398119D01*
X408177Y398307D01*
X408121Y398536D01*
X408066Y398765D01*
X407940Y399473D01*
X407882Y400364D01*
X407876Y400924D01*
X407871Y401483D01*
X407910Y402165D01*
X407949Y402847D01*
X408073Y403568D01*
X408199Y404393D01*
X408221Y404455D01*
X408246Y404620D01*
X408294Y404846D01*
X408364Y405134D01*
X408529Y405875D01*
X408739Y406739D01*
X409033Y407642D01*
X409366Y408461D01*
X409562Y408807D01*
X409715Y409134D01*
X409928Y409336D01*
X410118Y409475D01*
X410160Y409495D01*
X410305Y409512D01*
X410512Y409506D01*
X410800Y409436D01*
X410862Y409414D01*
X410985Y409369D01*
X411105Y409221D01*
X411225Y409072D01*
X411264Y408989D01*
X411301Y408801D01*
X411376Y408530D01*
X411326Y408200D01*
X411303Y408139D01*
X411278Y407974D01*
X411253Y407809D01*
X411163Y407563D01*
X411051Y407255D01*
X410895Y406825D01*
X410735Y406291D01*
X410713Y406229D01*
X410665Y406003D01*
X410553Y405695D01*
X410438Y405284D01*
X410321Y404770D01*
X410161Y404236D01*
X409879Y402981D01*
X409876Y402877D01*
X409828Y402651D01*
X409778Y402321D01*
X409747Y401949D01*
X409755Y401493D01*
X409744Y401080D01*
X409775Y400686D01*
X409869Y400372D01*
X409889Y400330D01*
X409990Y400224D01*
X410152Y400095D01*
X410381Y400151D01*
X410423Y400171D01*
X410529Y400271D01*
X410658Y400434D01*
X410893Y400696D01*
X411195Y401144D01*
X411500Y401694D01*
X411894Y402491D01*
X412073Y402983D01*
X412294Y403494D01*
X412317Y403556D01*
X412406Y403802D01*
X412541Y404171D01*
X412697Y404602D01*
X412994Y405608D01*
X413153Y406142D01*
X413290Y406614D01*
X413313Y406676D01*
X413358Y406799D01*
X413363Y407006D01*
X413433Y407294D01*
X413548Y407705D01*
X413646Y408261D01*
X413769Y408982D01*
X413772Y409086D01*
X413839Y409270D01*
X413890Y409600D01*
X413963Y409991D01*
X414077Y410402D01*
X414170Y410752D01*
X414220Y411082D01*
X414287Y411266D01*
X414310Y411328D01*
X414312Y411431D01*
X414466Y411758D01*
X414684Y412166D01*
X414875Y412306D01*
X415023Y412426D01*
X415065Y412446D01*
X415210Y412463D01*
X415417Y412457D01*
D02*
G37*
%LPC*%
G36*
X701233Y637051D02*
X691432D01*
Y631249D01*
X701233D01*
Y633983D01*
Y632803D01*
X692848D01*
Y637051D01*
X701233D01*
D02*
G37*
G36*
Y629083D02*
X687962D01*
X691849D01*
X691349Y629055D01*
X690905Y628972D01*
X690516Y628833D01*
X690155Y628722D01*
X689878Y628583D01*
X689656Y628445D01*
X689545Y628361D01*
X689489Y628334D01*
X689461Y628306D01*
X689184Y628084D01*
X688962Y627806D01*
X688767Y627556D01*
X688601Y627251D01*
X688323Y626696D01*
X688157Y626113D01*
X688046Y625613D01*
X688018Y625391D01*
X687990Y625224D01*
X687962Y625058D01*
Y625085D01*
Y624836D01*
X687990Y624364D01*
X688046Y623947D01*
X688129Y623559D01*
X688240Y623198D01*
X688351Y622864D01*
X688517Y622559D01*
X688656Y622281D01*
X688823Y622059D01*
X688989Y621837D01*
X689128Y621671D01*
X689295Y621504D01*
X689406Y621393D01*
X689517Y621282D01*
X689600Y621226D01*
X689656Y621199D01*
X689683Y621171D01*
X690100Y620949D01*
X690544Y620782D01*
X691044Y620643D01*
X691488Y620560D01*
X691932Y620505D01*
X692099Y620477D01*
X692265D01*
X692376Y620449D01*
X692487D01*
X692543D01*
X692571D01*
Y622115D01*
X692126Y622143D01*
X691738Y622198D01*
X691405Y622254D01*
X691155Y622337D01*
X690933Y622393D01*
X690794Y622448D01*
X690711Y622504D01*
X690683D01*
X690516Y622615D01*
X690489Y622642D01*
X690461D01*
X690100Y622948D01*
X689850Y623281D01*
X689656Y623642D01*
X689545Y624003D01*
X689461Y624308D01*
X689434Y624558D01*
X689406Y624725D01*
Y624780D01*
X689434Y625085D01*
X689461Y625391D01*
X689545Y625641D01*
X689600Y625863D01*
X689683Y626029D01*
X689767Y626168D01*
X689794Y626251D01*
X689822Y626279D01*
X690128Y626668D01*
X690461Y626945D01*
X690794Y627140D01*
X691127Y627279D01*
X691432Y627362D01*
X691682Y627390D01*
X691849Y627417D01*
X691877D01*
X691904D01*
X692182Y627390D01*
X692460Y627334D01*
X692737Y627251D01*
X692987Y627140D01*
X693431Y626834D01*
X693792Y626529D01*
X694098Y626196D01*
X694320Y625891D01*
X694403Y625779D01*
X694458Y625696D01*
X694514Y625641D01*
Y625613D01*
X695486Y623892D01*
X695874Y623225D01*
X696263Y622670D01*
X696624Y622226D01*
X696957Y621865D01*
X697207Y621560D01*
X697429Y621365D01*
X697540Y621254D01*
X697596Y621226D01*
X698123Y620921D01*
X698678Y620671D01*
X699289Y620477D01*
X699872Y620338D01*
X700400Y620227D01*
X700649Y620199D01*
X700844Y620172D01*
X701010D01*
X701122Y620144D01*
X701233D01*
Y629000D01*
X699622D01*
Y622004D01*
X699317Y622087D01*
X699039Y622170D01*
X698928Y622198D01*
X698845Y622226D01*
X698817Y622254D01*
X698789D01*
X698623Y622365D01*
X698456Y622476D01*
X698095Y622781D01*
X697790Y623142D01*
X697485Y623503D01*
X697235Y623864D01*
X697040Y624142D01*
X696985Y624253D01*
X696929Y624336D01*
X696874Y624391D01*
Y624419D01*
X695874Y626279D01*
X695569Y626779D01*
X695264Y627195D01*
X694930Y627584D01*
X694597Y627889D01*
X694264Y628167D01*
X693903Y628389D01*
X693598Y628583D01*
X693265Y628722D01*
X692987Y628861D01*
X692710Y628944D01*
X692460Y629000D01*
X692265Y629028D01*
X692099Y629055D01*
X691960Y629083D01*
X701233D01*
D02*
G37*
G36*
Y618672D02*
X687962D01*
X691849D01*
X691349Y618645D01*
X690905Y618561D01*
X690516Y618423D01*
X690155Y618311D01*
X689878Y618173D01*
X689656Y618034D01*
X689545Y617951D01*
X689489Y617923D01*
X689461Y617895D01*
X689184Y617673D01*
X688962Y617395D01*
X688767Y617145D01*
X688601Y616840D01*
X688323Y616285D01*
X688157Y615702D01*
X688046Y615202D01*
X688018Y614980D01*
X687990Y614813D01*
X687962Y614647D01*
Y614675D01*
Y614425D01*
X687990Y613953D01*
X688046Y613536D01*
X688129Y613148D01*
X688240Y612787D01*
X688351Y612454D01*
X688517Y612148D01*
X688656Y611871D01*
X688823Y611648D01*
X688989Y611426D01*
X689128Y611260D01*
X689295Y611093D01*
X689406Y610982D01*
X689517Y610871D01*
X689600Y610816D01*
X689656Y610788D01*
X689683Y610760D01*
X690100Y610538D01*
X690544Y610371D01*
X691044Y610233D01*
X691488Y610149D01*
X691932Y610094D01*
X692099Y610066D01*
X692265D01*
X692376Y610038D01*
X692487D01*
X692543D01*
X692571D01*
Y611704D01*
X692126Y611732D01*
X691738Y611787D01*
X691405Y611843D01*
X691155Y611926D01*
X690933Y611982D01*
X690794Y612037D01*
X690711Y612093D01*
X690683D01*
X690516Y612204D01*
X690489Y612231D01*
X690461D01*
X690100Y612537D01*
X689850Y612870D01*
X689656Y613231D01*
X689545Y613592D01*
X689461Y613897D01*
X689434Y614147D01*
X689406Y614314D01*
Y614369D01*
X689434Y614675D01*
X689461Y614980D01*
X689545Y615230D01*
X689600Y615452D01*
X689683Y615619D01*
X689767Y615757D01*
X689794Y615841D01*
X689822Y615868D01*
X690128Y616257D01*
X690461Y616535D01*
X690794Y616729D01*
X691127Y616868D01*
X691432Y616951D01*
X691682Y616979D01*
X691849Y617007D01*
X691877D01*
X691904D01*
X692182Y616979D01*
X692460Y616923D01*
X692737Y616840D01*
X692987Y616729D01*
X693431Y616424D01*
X693792Y616118D01*
X694098Y615785D01*
X694320Y615480D01*
X694403Y615369D01*
X694458Y615285D01*
X694514Y615230D01*
Y615202D01*
X695486Y613481D01*
X695874Y612814D01*
X696263Y612259D01*
X696624Y611815D01*
X696957Y611454D01*
X697207Y611149D01*
X697429Y610954D01*
X697540Y610843D01*
X697596Y610816D01*
X698123Y610510D01*
X698678Y610260D01*
X699289Y610066D01*
X699872Y609927D01*
X700400Y609816D01*
X700649Y609788D01*
X700844Y609761D01*
X701010D01*
X701122Y609733D01*
X701233D01*
Y618631D01*
Y618589D01*
X699622D01*
Y611593D01*
X699317Y611676D01*
X699039Y611759D01*
X698928Y611787D01*
X698845Y611815D01*
X698817Y611843D01*
X698789D01*
X698623Y611954D01*
X698456Y612065D01*
X698095Y612370D01*
X697790Y612731D01*
X697485Y613092D01*
X697235Y613453D01*
X697040Y613731D01*
X696985Y613842D01*
X696929Y613925D01*
X696874Y613980D01*
Y614008D01*
X695874Y615868D01*
X695569Y616368D01*
X695264Y616785D01*
X694930Y617173D01*
X694597Y617478D01*
X694264Y617756D01*
X693903Y617978D01*
X693598Y618173D01*
X693265Y618311D01*
X692987Y618450D01*
X692710Y618534D01*
X692460Y618589D01*
X692265Y618617D01*
X692099Y618645D01*
X691960Y618672D01*
X701233D01*
D02*
G37*
G36*
X695153Y608206D02*
X687962D01*
X694375D01*
X694264Y608178D01*
X694181D01*
X694153D01*
X694125D01*
X693570Y608150D01*
X693043Y608095D01*
X692543Y608012D01*
X692099Y607928D01*
X691655Y607817D01*
X691266Y607678D01*
X690905Y607540D01*
X690572Y607401D01*
X689961Y607068D01*
X689461Y606707D01*
X689045Y606318D01*
X688739Y605929D01*
X688490Y605541D01*
X688295Y605152D01*
X688157Y604791D01*
X688046Y604486D01*
X687990Y604236D01*
X687962Y604014D01*
D01*
Y603597D01*
X687990Y603264D01*
X688073Y602959D01*
X688240Y602404D01*
X688490Y601932D01*
X688739Y601543D01*
X689017Y601210D01*
X689212Y600988D01*
X689378Y600849D01*
X689406Y600793D01*
X689434D01*
X689767Y600571D01*
X690155Y600377D01*
X690572Y600210D01*
X690988Y600044D01*
X691904Y599822D01*
X692765Y599683D01*
X693182Y599627D01*
X693570Y599572D01*
X693903Y599544D01*
X694209D01*
X694458Y599516D01*
X695402D01*
X695930Y599544D01*
X696402Y599600D01*
X696818Y599627D01*
X697151Y599683D01*
X697401Y599711D01*
X697568Y599739D01*
X697596D01*
X697623D01*
X698317Y599905D01*
X698956Y600155D01*
X699483Y600405D01*
X699955Y600710D01*
X700344Y601043D01*
X700677Y601404D01*
X700927Y601737D01*
X701149Y602098D01*
X701316Y602431D01*
X701427Y602765D01*
X701538Y603070D01*
X701593Y603320D01*
X701621Y603542D01*
X701649Y603708D01*
Y603847D01*
X701621Y604208D01*
X701593Y604541D01*
X701538Y604847D01*
X701455Y605097D01*
X701399Y605319D01*
X701344Y605485D01*
X701316Y605596D01*
X701288Y605624D01*
X701010Y606068D01*
X700649Y606485D01*
X700233Y606818D01*
X699761Y607123D01*
X699234Y607373D01*
X698706Y607567D01*
X698179Y607734D01*
X697623Y607873D01*
X697096Y607984D01*
X696596Y608067D01*
X696152Y608123D01*
X695736Y608178D01*
X695402D01*
X695153Y608206D01*
D02*
G37*
G36*
X701233Y597851D02*
Y597767D01*
X699622D01*
Y590771D01*
X699317Y590855D01*
X699039Y590938D01*
X698928Y590966D01*
X698845Y590993D01*
X698817Y591021D01*
X698789D01*
X698623Y591132D01*
X698456Y591243D01*
X698095Y591549D01*
X697790Y591910D01*
X697485Y592271D01*
X697235Y592631D01*
X697040Y592909D01*
X696985Y593020D01*
X696929Y593103D01*
X696874Y593159D01*
Y593187D01*
X695874Y595047D01*
X695569Y595546D01*
X695264Y595963D01*
X694930Y596352D01*
X694597Y596657D01*
X694264Y596935D01*
X693903Y597157D01*
X693598Y597351D01*
X693265Y597490D01*
X692987Y597629D01*
X692710Y597712D01*
X692460Y597767D01*
X692265Y597795D01*
X692099Y597823D01*
X691960Y597851D01*
X701233D01*
X687962D01*
X691849D01*
X691349Y597823D01*
X690905Y597740D01*
X690516Y597601D01*
X690155Y597490D01*
X689878Y597351D01*
X689656Y597212D01*
X689545Y597129D01*
X689489Y597101D01*
X689461Y597073D01*
X689184Y596851D01*
X688962Y596574D01*
X688767Y596324D01*
X688601Y596018D01*
X688323Y595463D01*
X688157Y594880D01*
X688046Y594380D01*
X688018Y594158D01*
X687990Y593992D01*
X687962Y593825D01*
Y593603D01*
X687990Y593131D01*
X688046Y592715D01*
X688129Y592326D01*
X688240Y591965D01*
X688351Y591632D01*
X688517Y591327D01*
X688656Y591049D01*
X688823Y590827D01*
X688989Y590605D01*
X689128Y590438D01*
X689295Y590272D01*
X689406Y590160D01*
X689517Y590050D01*
X689600Y589994D01*
X689656Y589966D01*
X689683Y589938D01*
X690100Y589716D01*
X690544Y589550D01*
X691044Y589411D01*
X691488Y589328D01*
X691932Y589272D01*
X692099Y589244D01*
X692265D01*
X692376Y589217D01*
X692487D01*
X692543D01*
X692571D01*
Y590882D01*
X692126Y590910D01*
X691738Y590966D01*
X691405Y591021D01*
X691155Y591105D01*
X690933Y591160D01*
X690794Y591216D01*
X690711Y591271D01*
X690683D01*
X690516Y591382D01*
X690489Y591410D01*
X690461D01*
X690100Y591715D01*
X689850Y592048D01*
X689656Y592409D01*
X689545Y592770D01*
X689461Y593076D01*
X689434Y593325D01*
X689406Y593492D01*
Y593548D01*
X689434Y593853D01*
X689461Y594158D01*
X689545Y594408D01*
X689600Y594630D01*
X689683Y594797D01*
X689767Y594936D01*
X689794Y595019D01*
X689822Y595047D01*
X690128Y595435D01*
X690461Y595713D01*
X690794Y595907D01*
X691127Y596046D01*
X691432Y596129D01*
X691682Y596157D01*
X691849Y596185D01*
X691877D01*
X691904D01*
X692182Y596157D01*
X692460Y596102D01*
X692737Y596018D01*
X692987Y595907D01*
X693431Y595602D01*
X693792Y595297D01*
X694098Y594963D01*
X694320Y594658D01*
X694403Y594547D01*
X694458Y594464D01*
X694514Y594408D01*
Y594380D01*
X695486Y592659D01*
X695874Y591993D01*
X696263Y591438D01*
X696624Y590993D01*
X696957Y590633D01*
X697207Y590327D01*
X697429Y590133D01*
X697540Y590022D01*
X697596Y589994D01*
X698123Y589689D01*
X698678Y589439D01*
X699289Y589244D01*
X699872Y589106D01*
X700400Y588994D01*
X700649Y588967D01*
X700844Y588939D01*
X701010D01*
X701122Y588911D01*
X701233D01*
Y597851D01*
D02*
G37*
%LPD*%
G36*
X695847Y606485D02*
X696152D01*
X696374Y606457D01*
X696569D01*
X696680Y606429D01*
X696707D01*
X697346Y606346D01*
X697901Y606207D01*
X698373Y606040D01*
X698789Y605846D01*
X699150Y605652D01*
X699428Y605430D01*
X699678Y605208D01*
X699872Y604958D01*
X700011Y604736D01*
X700122Y604541D01*
X700205Y604347D01*
X700261Y604180D01*
X700289Y604014D01*
X700316Y603903D01*
Y603820D01*
X700289Y603570D01*
X700261Y603348D01*
X700178Y603153D01*
X700094Y602959D01*
X699817Y602598D01*
X699456Y602293D01*
X699039Y602043D01*
X698595Y601821D01*
X698095Y601654D01*
X697568Y601515D01*
X697068Y601404D01*
X696569Y601321D01*
X696124Y601265D01*
X695708Y601238D01*
X695347Y601210D01*
X695069Y601182D01*
X694986D01*
X694903D01*
X694875D01*
X694847D01*
X694348D01*
X693903Y601210D01*
X693459Y601238D01*
X693070Y601293D01*
X692682Y601349D01*
X692349Y601432D01*
X691710Y601599D01*
X691183Y601793D01*
X690766Y602015D01*
X690405Y602265D01*
X690100Y602515D01*
X689878Y602765D01*
X689711Y603014D01*
X689600Y603237D01*
X689517Y603431D01*
X689461Y603597D01*
X689434Y603736D01*
Y603847D01*
X689461Y604097D01*
X689489Y604319D01*
X689656Y604736D01*
X689933Y605097D01*
X690266Y605402D01*
X690683Y605652D01*
X691127Y605874D01*
X691599Y606040D01*
X692099Y606179D01*
X692598Y606290D01*
X693098Y606374D01*
X693542Y606429D01*
X693959Y606485D01*
X694292D01*
X694570Y606512D01*
X694736D01*
X694764D01*
X694792D01*
X695180D01*
X695541D01*
X695847Y606485D01*
D02*
G37*
%LPC*%
G36*
X681566Y655138D02*
D01*
Y650779D01*
X681538Y651390D01*
X681427Y651918D01*
X681260Y652390D01*
X681094Y652806D01*
X680927Y653139D01*
X680761Y653389D01*
X680650Y653528D01*
X680622Y653583D01*
X680372Y653861D01*
X680094Y654111D01*
X679817Y654305D01*
X679539Y654472D01*
X678956Y654749D01*
X678401Y654944D01*
X677901Y655055D01*
X677679Y655082D01*
X677485Y655110D01*
X677346Y655138D01*
X681566D01*
X677124D01*
X676569Y655110D01*
X676041Y654999D01*
X675597Y654888D01*
X675208Y654722D01*
X674903Y654583D01*
X674653Y654444D01*
X674514Y654333D01*
X674459Y654305D01*
X674181Y654083D01*
X673931Y653833D01*
X673737Y653583D01*
X673570Y653306D01*
X673293Y652778D01*
X673098Y652251D01*
X672987Y651779D01*
X672960Y651584D01*
X672932Y651390D01*
X672904Y651251D01*
Y651057D01*
X672932Y650696D01*
X672960Y650363D01*
X673126Y649752D01*
X673376Y649225D01*
X673626Y648780D01*
X673903Y648447D01*
X674153Y648197D01*
X674320Y648059D01*
X674348Y648003D01*
X673903D01*
X673459Y648031D01*
X673043Y648086D01*
X672710Y648142D01*
X672432Y648170D01*
X672210Y648225D01*
X672099Y648253D01*
X672043D01*
X671571Y648392D01*
X671155Y648558D01*
X670794Y648753D01*
X670489Y648947D01*
X670211Y649169D01*
X670017Y649391D01*
X669822Y649613D01*
X669684Y649863D01*
X669573Y650085D01*
X669489Y650280D01*
X669434Y650474D01*
X669378Y650640D01*
Y650779D01*
X669350Y650890D01*
Y651196D01*
X669378Y651362D01*
X669406Y651473D01*
Y651529D01*
X669489Y651779D01*
X669573Y651973D01*
X669850Y652362D01*
X670155Y652639D01*
X670489Y652861D01*
X670822Y653028D01*
X671099Y653111D01*
X671183Y653167D01*
X671266D01*
X671321Y653195D01*
X671349D01*
Y654860D01*
X670988Y654777D01*
X670683Y654694D01*
X670378Y654611D01*
X670128Y654500D01*
X669906Y654416D01*
X669767Y654333D01*
X669656Y654305D01*
X669628Y654277D01*
X669323Y654083D01*
X669045Y653833D01*
X668823Y653611D01*
X668629Y653333D01*
X668434Y653084D01*
X668295Y652806D01*
X668101Y652306D01*
X667962Y651834D01*
X667934Y651612D01*
X667907Y651446D01*
X667879Y651279D01*
Y650640D01*
X667907Y650502D01*
Y650446D01*
X667962Y650113D01*
X668073Y649780D01*
X668323Y649197D01*
X668629Y648697D01*
X668934Y648281D01*
X669239Y647975D01*
X669517Y647726D01*
X669628Y647642D01*
X669684Y647587D01*
X669739Y647531D01*
X669767D01*
X670128Y647309D01*
X670544Y647142D01*
X671405Y646837D01*
X672293Y646643D01*
X673126Y646476D01*
X673542Y646448D01*
X673903Y646393D01*
X674237Y646365D01*
X674542D01*
X674764Y646337D01*
X667879D01*
D01*
X681566D01*
Y655138D01*
D02*
G37*
G36*
X681149Y641618D02*
X667879D01*
Y640535D01*
X668295Y640396D01*
X668629Y640285D01*
X668934Y640146D01*
X669156Y640063D01*
X669323Y639980D01*
X669434Y639897D01*
X669489Y639869D01*
X669517Y639841D01*
X669656Y639730D01*
X669767Y639619D01*
X669822Y639536D01*
X669850Y639508D01*
Y639480D01*
X669933Y639369D01*
X669989Y639202D01*
X670128Y638869D01*
X670239Y638453D01*
X670350Y638036D01*
X670405Y637648D01*
X670461Y637315D01*
X670489Y637204D01*
X670516Y637093D01*
Y637009D01*
X667879D01*
D01*
X671710D01*
Y639952D01*
X681149D01*
Y637009D01*
X681149D01*
X681149D01*
Y641618D01*
D02*
G37*
G36*
X681566Y634733D02*
X680233D01*
X680261Y634594D01*
X680289Y634483D01*
Y634372D01*
X680261Y634094D01*
X680178Y633900D01*
X680039Y633733D01*
X679900Y633650D01*
X679761Y633595D01*
X679622Y633567D01*
X679539Y633539D01*
X679511D01*
X673737D01*
X673542D01*
X673404D01*
X673293Y633511D01*
X673237D01*
X672848Y633400D01*
X672515Y633261D01*
X672238Y633039D01*
X671988Y632789D01*
X671766Y632512D01*
X671599Y632206D01*
X671460Y631873D01*
X671349Y631540D01*
X671183Y630902D01*
X671127Y630624D01*
X671099Y630374D01*
X671072Y630152D01*
Y625488D01*
Y629458D01*
X671127Y629069D01*
X671238Y628403D01*
X671433Y627848D01*
X671627Y627403D01*
X671849Y627043D01*
X672043Y626793D01*
X672154Y626654D01*
X672210Y626598D01*
X672487Y626376D01*
X672821Y626210D01*
X673154Y626099D01*
X673487Y626015D01*
X673765Y625960D01*
X674015Y625932D01*
X674181Y625904D01*
X674209D01*
X674237D01*
Y627487D01*
X674126Y627515D01*
X674015D01*
X673931Y627542D01*
X673903D01*
X673653Y627626D01*
X673431Y627737D01*
X673265Y627876D01*
X673098Y628042D01*
X672848Y628403D01*
X672682Y628792D01*
X672599Y629180D01*
X672543Y629486D01*
X672515Y629624D01*
Y630263D01*
X672543Y630402D01*
Y630457D01*
X672599Y630735D01*
X672654Y630957D01*
X672765Y631179D01*
X672848Y631346D01*
X673098Y631623D01*
X673320Y631790D01*
X673570Y631901D01*
X673765Y631956D01*
X673903Y631984D01*
X673931D01*
X673959D01*
X674375D01*
X674514D01*
X674625Y631956D01*
X674681Y631929D01*
X674708D01*
X674736D01*
X674764D01*
X674847Y631873D01*
X674931Y631818D01*
X675097Y631596D01*
X675208Y631346D01*
X675319Y631068D01*
X675375Y630790D01*
X675430Y630568D01*
X675458Y630402D01*
Y630346D01*
X675486Y630069D01*
X675541Y629847D01*
X675569Y629708D01*
Y629652D01*
X675652Y629041D01*
X675736Y628514D01*
X675819Y628098D01*
X675902Y627765D01*
X675958Y627515D01*
X676013Y627348D01*
X676069Y627237D01*
Y627209D01*
X676208Y626904D01*
X676374Y626654D01*
X676569Y626404D01*
X676791Y626210D01*
X676985Y626043D01*
X677207Y625904D01*
X677651Y625710D01*
X678040Y625571D01*
X678373Y625516D01*
X678512Y625488D01*
X671072D01*
X678679D01*
X678984Y625516D01*
X679261Y625544D01*
X679539Y625599D01*
X679761Y625682D01*
X679928Y625738D01*
X680067Y625793D01*
X680150Y625821D01*
X680178Y625849D01*
X680427Y626015D01*
X680622Y626210D01*
X680816Y626404D01*
X680983Y626626D01*
X681233Y627098D01*
X681399Y627570D01*
X681482Y628014D01*
X681510Y628209D01*
X681538Y628375D01*
X681566Y628514D01*
Y628708D01*
X681538Y629014D01*
X681482Y629347D01*
X681344Y629958D01*
X681094Y630513D01*
X680844Y631013D01*
X680594Y631429D01*
X680483Y631596D01*
X680372Y631762D01*
X680289Y631873D01*
X680205Y631956D01*
X680178Y632012D01*
X680150Y632040D01*
X680316Y632068D01*
X680372D01*
X680400D01*
X680788Y632206D01*
X681066Y632429D01*
X681288Y632678D01*
X681427Y632956D01*
X681510Y633206D01*
X681538Y633428D01*
X681566Y633595D01*
Y633650D01*
X681538Y633983D01*
X681482Y634344D01*
X681455Y634511D01*
X681427Y634622D01*
X681399Y634705D01*
Y634733D01*
X681566D01*
D02*
G37*
G36*
X685230Y623461D02*
X671072D01*
X671349D01*
Y622018D01*
X672765D01*
X672460Y621796D01*
X672210Y621546D01*
X671988Y621296D01*
X671794Y621046D01*
X671627Y620796D01*
X671488Y620546D01*
X671294Y620074D01*
X671155Y619658D01*
X671127Y619491D01*
X671099Y619325D01*
X671072Y619186D01*
Y619269D01*
Y614827D01*
D01*
Y619019D01*
X671127Y618464D01*
X671238Y617964D01*
X671377Y617520D01*
X671571Y617132D01*
X671766Y616826D01*
X671905Y616604D01*
X672016Y616465D01*
X672071Y616410D01*
X672349Y616132D01*
X672682Y615882D01*
X673015Y615688D01*
X673376Y615494D01*
X673737Y615355D01*
X674098Y615216D01*
X674792Y615022D01*
X675125Y614966D01*
X675430Y614911D01*
X675708Y614883D01*
X675958Y614855D01*
X676152Y614827D01*
X671072D01*
X685230D01*
X676430D01*
X676874Y614855D01*
X677290Y614883D01*
X678040Y615022D01*
X678706Y615216D01*
X679012Y615327D01*
X679261Y615466D01*
X679511Y615577D01*
X679706Y615688D01*
X679872Y615799D01*
X680011Y615882D01*
X680150Y615965D01*
X680233Y616021D01*
X680261Y616077D01*
X680289D01*
X680372Y616160D01*
X680400Y616188D01*
X680788Y616632D01*
X681066Y617076D01*
X681288Y617548D01*
X681427Y617964D01*
X681510Y618325D01*
X681538Y618631D01*
X681566Y618742D01*
Y619075D01*
X681538Y619241D01*
Y619380D01*
X681482Y619630D01*
X681399Y619880D01*
X681177Y620352D01*
X680927Y620768D01*
X680622Y621129D01*
X680316Y621435D01*
X680094Y621657D01*
X679900Y621796D01*
X679872Y621851D01*
X680344D01*
X681011Y621823D01*
X681538Y621768D01*
X682010Y621684D01*
X682371Y621573D01*
X682648Y621462D01*
X682843Y621379D01*
X682954Y621324D01*
X682982Y621296D01*
X683287Y621018D01*
X683509Y620685D01*
X683676Y620324D01*
X683787Y619963D01*
X683842Y619630D01*
X683870Y619380D01*
X683898Y619269D01*
Y619130D01*
X683870Y618742D01*
X683814Y618381D01*
X683731Y618075D01*
X683648Y617826D01*
X683565Y617631D01*
X683481Y617465D01*
X683426Y617381D01*
X683398Y617354D01*
X683232Y617187D01*
X683037Y617048D01*
X682843Y616937D01*
X682676Y616854D01*
X682510Y616798D01*
X682371Y616771D01*
X682288Y616743D01*
X682260D01*
Y615160D01*
X682759Y615244D01*
X682982Y615299D01*
X683176Y615382D01*
X683343Y615438D01*
X683454Y615494D01*
X683537Y615549D01*
X683565D01*
X683870Y615743D01*
X684120Y615965D01*
X684342Y616215D01*
X684536Y616493D01*
X684675Y616771D01*
X684814Y617076D01*
X685008Y617659D01*
X685147Y618214D01*
X685175Y618436D01*
X685203Y618658D01*
X685230Y618825D01*
Y619214D01*
X685203Y619352D01*
Y619464D01*
X685119Y620185D01*
X684953Y620796D01*
X684758Y621296D01*
X684536Y621712D01*
X684314Y622018D01*
X684120Y622240D01*
X684009Y622379D01*
X683953Y622406D01*
X683842Y622517D01*
X683731Y622601D01*
X683648Y622656D01*
X683620Y622684D01*
X683370Y622823D01*
X683093Y622934D01*
X682454Y623128D01*
X681788Y623267D01*
X681122Y623378D01*
X680511Y623434D01*
X680233D01*
X680011Y623461D01*
X685230D01*
D02*
G37*
G36*
X681566Y613495D02*
D01*
Y609081D01*
X681538Y609441D01*
X681510Y609802D01*
X681455Y610108D01*
X681399Y610385D01*
X681344Y610607D01*
X681288Y610774D01*
X681233Y610885D01*
Y610913D01*
X681066Y611274D01*
X680872Y611579D01*
X680650Y611857D01*
X680427Y612107D01*
X680178Y612329D01*
X679928Y612523D01*
X679400Y612828D01*
X678928Y613050D01*
X678734Y613134D01*
X678540Y613189D01*
X678401Y613217D01*
X678290Y613245D01*
X678206Y613273D01*
X678179D01*
Y611718D01*
X678512Y611579D01*
X678817Y611413D01*
X679095Y611246D01*
X679317Y611024D01*
X679511Y610830D01*
X679678Y610607D01*
X679789Y610385D01*
X679900Y610191D01*
X680039Y609775D01*
X680122Y609441D01*
X680150Y609330D01*
Y609136D01*
X680122Y608858D01*
X680094Y608581D01*
X679956Y608109D01*
X679734Y607720D01*
X679511Y607387D01*
X679289Y607109D01*
X679067Y606915D01*
X678928Y606804D01*
X678873Y606776D01*
X678568Y606610D01*
X678234Y606471D01*
X677873Y606388D01*
X677540Y606332D01*
X677263Y606277D01*
X677013Y606249D01*
X676846D01*
X676818D01*
X676791D01*
Y613495D01*
D01*
X676041Y613467D01*
X675403Y613439D01*
X674875Y613384D01*
X674431Y613300D01*
X674098Y613217D01*
X673848Y613162D01*
X673709Y613134D01*
X673653Y613106D01*
X673237Y612912D01*
X672904Y612717D01*
X672765Y612634D01*
X672682Y612551D01*
X672626Y612523D01*
X672599Y612495D01*
X672321Y612245D01*
X672099Y611996D01*
X671877Y611746D01*
X671710Y611468D01*
X671433Y610885D01*
X671266Y610358D01*
X671155Y609886D01*
X671127Y609664D01*
X671099Y609497D01*
X671072Y609330D01*
Y609136D01*
X671099Y608553D01*
X671210Y608026D01*
X671349Y607554D01*
X671516Y607137D01*
X671710Y606832D01*
X671849Y606582D01*
X671960Y606443D01*
X671988Y606388D01*
X672265Y606082D01*
X672599Y605805D01*
X672932Y605583D01*
X673293Y605388D01*
X673653Y605221D01*
X674015Y605055D01*
X674708Y604861D01*
X675042Y604777D01*
X675375Y604722D01*
X675652Y604694D01*
X675902Y604666D01*
X676097Y604638D01*
X671072D01*
X681566D01*
Y613495D01*
D02*
G37*
G36*
X681149Y602556D02*
X673792D01*
D01*
X671072D01*
X673792D01*
X673459Y602529D01*
X673182Y602501D01*
X673071Y602473D01*
X672987D01*
X672932Y602445D01*
X672904D01*
X672571Y602334D01*
X672293Y602196D01*
X672043Y602029D01*
X671849Y601835D01*
X671655Y601613D01*
X671516Y601390D01*
X671294Y600918D01*
X671155Y600446D01*
X671127Y600252D01*
X671099Y600058D01*
X671072Y599919D01*
Y599197D01*
X671099Y599086D01*
Y598975D01*
X671127Y598919D01*
Y598892D01*
X671238Y598448D01*
X671433Y598059D01*
X671682Y597670D01*
X671932Y597337D01*
X672182Y597087D01*
X672376Y596865D01*
X672515Y596754D01*
X672543Y596699D01*
X672571D01*
X672460Y596643D01*
X672376Y596587D01*
X672321Y596560D01*
X672293Y596532D01*
X672071Y596365D01*
X671877Y596199D01*
X671599Y595782D01*
X671377Y595366D01*
X671210Y594977D01*
X671127Y594616D01*
X671099Y594311D01*
X671072Y594200D01*
Y593534D01*
X671099Y593450D01*
Y593423D01*
X671155Y593173D01*
X671238Y592923D01*
X671433Y592479D01*
X671710Y592062D01*
X671988Y591701D01*
X672265Y591424D01*
X672515Y591202D01*
X672682Y591091D01*
X672710Y591035D01*
X671349D01*
Y589591D01*
X681149D01*
Y602556D01*
D02*
G37*
G36*
X681566Y587815D02*
X680150D01*
D01*
X679149D01*
X680150D01*
X680205Y587593D01*
X680233Y587343D01*
Y586871D01*
X680205Y586732D01*
X680178Y586649D01*
Y586621D01*
X680122Y586482D01*
X680011Y586371D01*
X679872Y586315D01*
X679706Y586260D01*
X679567Y586232D01*
X679456Y586204D01*
X679373D01*
X679345D01*
X672626D01*
Y587815D01*
X668656D01*
X671349D01*
Y586204D01*
X668656D01*
D01*
Y583317D01*
Y584650D01*
X671349D01*
Y583317D01*
X681566D01*
X672626D01*
Y584650D01*
X680039D01*
X680150D01*
X680261Y584678D01*
X680316D01*
X680344D01*
X680566Y584733D01*
X680733Y584816D01*
X681038Y585038D01*
X681260Y585344D01*
X681399Y585677D01*
X681510Y586010D01*
X681538Y586288D01*
X681566Y586371D01*
Y586538D01*
X681538Y586982D01*
X681482Y587398D01*
Y587565D01*
X681455Y587704D01*
X681427Y587787D01*
Y587815D01*
X681566D01*
D02*
G37*
G36*
X681149Y582790D02*
X667490Y577987D01*
Y582790D01*
X681149D01*
X667490D01*
Y570880D01*
Y575738D01*
X681149Y570880D01*
Y572740D01*
X677068Y574183D01*
Y579431D01*
X681149Y580846D01*
Y582790D01*
D02*
G37*
%LPD*%
G36*
X677596Y653417D02*
X677901Y653361D01*
X678206Y653306D01*
X678456Y653222D01*
X678679Y653111D01*
X678817Y653056D01*
X678928Y653000D01*
X678956Y652972D01*
X679345Y652667D01*
X679622Y652306D01*
X679845Y651945D01*
X679983Y651612D01*
X680067Y651307D01*
X680094Y651029D01*
X680122Y650863D01*
Y650807D01*
X680094Y650474D01*
X680039Y650196D01*
X679956Y649919D01*
X679872Y649697D01*
X679789Y649502D01*
X679706Y649363D01*
X679650Y649280D01*
X679622Y649252D01*
X679261Y648864D01*
X678873Y648586D01*
X678456Y648392D01*
X678068Y648253D01*
X677707Y648170D01*
X677429Y648142D01*
X677318Y648114D01*
X677235D01*
X677179D01*
X677152D01*
X676818Y648142D01*
X676541Y648170D01*
X676263Y648253D01*
X676041Y648336D01*
X675847Y648392D01*
X675708Y648475D01*
X675625Y648503D01*
X675597Y648531D01*
X675375Y648669D01*
X675181Y648836D01*
X674875Y649225D01*
X674653Y649585D01*
X674514Y649974D01*
X674403Y650335D01*
X674375Y650613D01*
X674348Y650724D01*
Y651113D01*
X674403Y651362D01*
X674431Y651584D01*
X674486Y651751D01*
X674542Y651918D01*
X674597Y652029D01*
X674625Y652084D01*
X674653Y652112D01*
X674792Y652334D01*
X674958Y652556D01*
X675347Y652889D01*
X675763Y653111D01*
X676208Y653278D01*
X676596Y653389D01*
X676929Y653417D01*
X677068Y653445D01*
X677152D01*
X677207D01*
X677235D01*
X677596Y653417D01*
D02*
G37*
G36*
X681566Y646337D02*
X675680D01*
X676235Y646393D01*
X676763Y646448D01*
X677235Y646532D01*
X677679Y646643D01*
X678095Y646754D01*
X678484Y646893D01*
X678845Y647031D01*
X679150Y647198D01*
X679456Y647365D01*
X679983Y647753D01*
X680400Y648142D01*
X680761Y648558D01*
X681011Y648975D01*
X681233Y649363D01*
X681371Y649752D01*
X681455Y650085D01*
X681510Y650363D01*
X681566Y650585D01*
Y646337D01*
D02*
G37*
G36*
X678318Y631956D02*
X678568Y631873D01*
X678790Y631790D01*
X678984Y631679D01*
X679123Y631568D01*
X679234Y631457D01*
X679317Y631401D01*
X679345Y631373D01*
X679650Y630985D01*
X679845Y630596D01*
X680011Y630207D01*
X680122Y629847D01*
X680178Y629514D01*
X680205Y629264D01*
X680233Y629097D01*
Y629041D01*
X680205Y628792D01*
X680178Y628570D01*
X680150Y628431D01*
Y628375D01*
X680094Y628153D01*
X680011Y627959D01*
X679789Y627653D01*
X679539Y627431D01*
X679289Y627293D01*
X679039Y627181D01*
X678845Y627154D01*
X678706Y627126D01*
X678651D01*
X678456D01*
X678290Y627154D01*
X678179Y627181D01*
X678151D01*
X677957Y627265D01*
X677790Y627376D01*
X677651Y627515D01*
X677513Y627681D01*
X677290Y628042D01*
X677124Y628459D01*
X676985Y628847D01*
X676902Y629180D01*
X676874Y629291D01*
X676846Y629402D01*
Y629486D01*
X676818Y629624D01*
Y629736D01*
X676791Y629819D01*
Y629847D01*
X676707Y630374D01*
X676624Y630818D01*
X676569Y631207D01*
X676485Y631485D01*
X676430Y631707D01*
X676374Y631873D01*
X676319Y631956D01*
Y631984D01*
X678068D01*
X678318Y631956D01*
D02*
G37*
G36*
X677207Y621796D02*
X677540Y621740D01*
X677846Y621684D01*
X678095Y621629D01*
X678262Y621573D01*
X678401Y621546D01*
X678429Y621518D01*
X678734Y621379D01*
X678984Y621240D01*
X679234Y621046D01*
X679428Y620879D01*
X679595Y620685D01*
X679734Y620491D01*
X679928Y620102D01*
X680067Y619741D01*
X680122Y619464D01*
X680150Y619352D01*
Y619186D01*
X680122Y618936D01*
X680094Y618686D01*
X680039Y618464D01*
X679983Y618270D01*
X679928Y618131D01*
X679872Y618020D01*
X679817Y617937D01*
Y617909D01*
X679622Y617659D01*
X679400Y617437D01*
X679150Y617243D01*
X678901Y617076D01*
X678318Y616826D01*
X677735Y616660D01*
X677179Y616549D01*
X676957Y616521D01*
X676735Y616493D01*
X676569Y616465D01*
X676430D01*
X676347D01*
X676319D01*
X675874Y616493D01*
X675458Y616521D01*
X675097Y616576D01*
X674792Y616660D01*
X674542Y616715D01*
X674348Y616771D01*
X674209Y616798D01*
X674181Y616826D01*
X673876Y616965D01*
X673626Y617132D01*
X673404Y617298D01*
X673209Y617492D01*
X673043Y617687D01*
X672932Y617881D01*
X672710Y618270D01*
X672599Y618631D01*
X672543Y618908D01*
X672515Y619019D01*
Y619186D01*
X672543Y619630D01*
X672599Y619824D01*
X672626Y619991D01*
X672682Y620130D01*
X672737Y620241D01*
X672765Y620296D01*
Y620324D01*
X672932Y620602D01*
X673154Y620824D01*
X673404Y621046D01*
X673681Y621213D01*
X674264Y621490D01*
X674875Y621657D01*
X675430Y621768D01*
X675708Y621796D01*
X675930Y621823D01*
X676097Y621851D01*
X676263D01*
X676347D01*
X676374D01*
X676791D01*
X677207Y621796D01*
D02*
G37*
G36*
X675514Y611801D02*
Y606304D01*
X675181Y606332D01*
X674875Y606388D01*
X674597Y606471D01*
X674375Y606554D01*
X674181Y606610D01*
X674015Y606693D01*
X673931Y606721D01*
X673903Y606749D01*
X673653Y606887D01*
X673431Y607054D01*
X673265Y607248D01*
X673098Y607443D01*
X672848Y607831D01*
X672682Y608220D01*
X672599Y608553D01*
X672543Y608858D01*
X672515Y608969D01*
Y609108D01*
X672543Y609441D01*
X672599Y609747D01*
X672682Y609997D01*
X672765Y610247D01*
X672876Y610441D01*
X672960Y610580D01*
X673015Y610691D01*
X673043Y610718D01*
X673404Y611079D01*
X673765Y611357D01*
X674153Y611551D01*
X674542Y611690D01*
X674875Y611773D01*
X675153Y611801D01*
X675264Y611829D01*
X675347D01*
X675375D01*
X675403D01*
X675486D01*
X675514Y611801D01*
D02*
G37*
G36*
X681566Y604638D02*
X676374D01*
X677040Y604666D01*
X677651Y604750D01*
X678206Y604861D01*
X678651Y605000D01*
X679039Y605138D01*
X679317Y605249D01*
X679400Y605305D01*
X679484Y605333D01*
X679511Y605360D01*
X679539D01*
X679900Y605583D01*
X680205Y605860D01*
X680483Y606138D01*
X680705Y606443D01*
X680900Y606749D01*
X681066Y607054D01*
X681205Y607359D01*
X681316Y607665D01*
X681455Y608220D01*
X681510Y608442D01*
X681538Y608664D01*
Y608831D01*
X681566Y608969D01*
Y604638D01*
D02*
G37*
G36*
X681149Y596865D02*
X674986D01*
X674681Y596893D01*
X674375Y596948D01*
X674126Y597004D01*
X673876Y597115D01*
X673709Y597198D01*
X673542Y597254D01*
X673459Y597309D01*
X673431Y597337D01*
X673098Y597615D01*
X672848Y597920D01*
X672682Y598226D01*
X672543Y598503D01*
X672487Y598781D01*
X672460Y598975D01*
X672432Y599114D01*
Y599419D01*
X672460Y599614D01*
X672487Y599752D01*
X672515Y599808D01*
X672710Y600197D01*
X672960Y600474D01*
X673265Y600696D01*
X673598Y600835D01*
X673903Y600918D01*
X674153Y600946D01*
X674264Y600974D01*
X674348D01*
X674375D01*
X674403D01*
X681149D01*
Y596865D01*
D02*
G37*
G36*
Y591146D02*
X674986D01*
X674681Y591174D01*
X674403Y591229D01*
X674153Y591285D01*
X673931Y591396D01*
X673737Y591479D01*
X673598Y591535D01*
X673515Y591590D01*
X673487Y591618D01*
X673126Y591896D01*
X672876Y592201D01*
X672682Y592506D01*
X672571Y592784D01*
X672487Y593062D01*
X672460Y593256D01*
X672432Y593395D01*
Y593645D01*
X672460Y593811D01*
X672487Y593922D01*
Y593950D01*
X672543Y594172D01*
X672654Y594394D01*
X672904Y594727D01*
X673209Y594949D01*
X673542Y595116D01*
X673876Y595227D01*
X674153Y595255D01*
X674237Y595283D01*
X674320D01*
X674375D01*
X674403D01*
X681149D01*
Y591146D01*
D02*
G37*
G36*
X675597Y574600D02*
X669378Y576849D01*
X675597Y578959D01*
Y574600D01*
D02*
G37*
%LPC*%
G36*
X662232Y705457D02*
Y705290D01*
D01*
Y705457D01*
D02*
G37*
G36*
Y711454D02*
X648573D01*
Y705290D01*
X648629Y704624D01*
X648767Y704013D01*
X648934Y703514D01*
X649156Y703097D01*
X649378Y702764D01*
X649545Y702514D01*
X649684Y702375D01*
X649739Y702320D01*
X650156Y701959D01*
X650628Y701709D01*
X651072Y701515D01*
X651516Y701404D01*
X651905Y701320D01*
X652210Y701293D01*
X652321Y701265D01*
X652404D01*
X652460D01*
X652488D01*
X653015Y701348D01*
X653237Y701404D01*
X653459Y701459D01*
X653626Y701515D01*
X653737Y701570D01*
X653820Y701598D01*
X653848D01*
X654292Y701792D01*
X654681Y702042D01*
X655014Y702320D01*
X655319Y702598D01*
X655542Y702931D01*
X655764Y703236D01*
X655930Y703569D01*
X656069Y703902D01*
X656152Y704208D01*
X656236Y704513D01*
X656291Y704763D01*
X656347Y705013D01*
Y705207D01*
X656374Y705346D01*
Y705485D01*
X662232Y700377D01*
Y702431D01*
X656374Y707622D01*
Y709705D01*
X662232D01*
Y711454D01*
D02*
G37*
G36*
Y699516D02*
X648573Y694713D01*
Y699516D01*
X662232D01*
X648573D01*
Y687606D01*
D01*
Y692464D01*
X662232Y687606D01*
Y689466D01*
X658151Y690910D01*
Y696157D01*
X662232Y697572D01*
Y699516D01*
D02*
G37*
G36*
Y685829D02*
X648573D01*
Y675307D01*
X662232D01*
Y677056D01*
X656013D01*
Y684052D01*
X662232D01*
Y685829D01*
D02*
G37*
G36*
Y672364D02*
X648573D01*
Y663175D01*
X654153D01*
X654459Y663203D01*
X654736Y663231D01*
X655014Y663314D01*
X655236Y663397D01*
X655403Y663453D01*
X655569Y663536D01*
X655652Y663564D01*
X655680Y663592D01*
X655930Y663758D01*
X656152Y663925D01*
X656347Y664147D01*
X656485Y664341D01*
X656763Y664785D01*
X656930Y665229D01*
X657013Y665618D01*
X657068Y665951D01*
X657096Y666090D01*
Y670615D01*
X662232D01*
Y672364D01*
D02*
G37*
G36*
X662649Y661010D02*
X655097D01*
X654598Y660982D01*
X654153Y660899D01*
X653293Y660704D01*
X652904Y660593D01*
X652543Y660482D01*
X652210Y660343D01*
X651905Y660205D01*
X651627Y660066D01*
X651405Y659955D01*
X651183Y659844D01*
X651016Y659733D01*
X650877Y659649D01*
X650794Y659566D01*
X650739Y659538D01*
X650711Y659510D01*
X650683D01*
X650655Y659483D01*
X650239Y659122D01*
X649906Y658761D01*
X649573Y658344D01*
X649323Y657928D01*
X649101Y657512D01*
X648906Y657095D01*
X648767Y656679D01*
X648629Y656262D01*
X648545Y655874D01*
X648462Y655540D01*
X648434Y655207D01*
X648379Y654930D01*
Y654708D01*
X648351Y654541D01*
Y661010D01*
Y647823D01*
Y654402D01*
X648379Y653903D01*
X648434Y653431D01*
X648518Y652986D01*
X648629Y652542D01*
X648740Y652153D01*
X648906Y651793D01*
X649045Y651432D01*
X649212Y651126D01*
X649378Y650849D01*
X649517Y650599D01*
X649684Y650405D01*
X649795Y650238D01*
X649906Y650099D01*
X649989Y649988D01*
X650045Y649933D01*
X650072Y649905D01*
X650461Y649544D01*
X650877Y649211D01*
X651322Y648933D01*
X651766Y648711D01*
X652210Y648489D01*
X652682Y648322D01*
X653126Y648184D01*
X653543Y648073D01*
X653959Y647989D01*
X654320Y647934D01*
X654653Y647878D01*
X654931Y647850D01*
X655181D01*
X655347Y647823D01*
X648351D01*
X662649D01*
X655514D01*
X656069Y647850D01*
X656597Y647906D01*
X657096Y647961D01*
X657568Y648073D01*
X658012Y648211D01*
X658429Y648350D01*
X658790Y648489D01*
X659123Y648655D01*
X659428Y648794D01*
X659706Y648933D01*
X659928Y649072D01*
X660122Y649211D01*
X660289Y649322D01*
X660400Y649377D01*
X660455Y649433D01*
X660483Y649461D01*
X660872Y649821D01*
X661205Y650210D01*
X661483Y650599D01*
X661732Y651015D01*
X661955Y651432D01*
X662121Y651848D01*
X662260Y652237D01*
X662371Y652626D01*
X662454Y653014D01*
X662538Y653347D01*
X662593Y653653D01*
X662621Y653903D01*
Y654125D01*
X662649Y654291D01*
Y654430D01*
X662621Y654902D01*
X662593Y655346D01*
X662427Y656151D01*
X662204Y656873D01*
X662066Y657206D01*
X661927Y657484D01*
X661816Y657762D01*
X661677Y657984D01*
X661566Y658178D01*
X661455Y658344D01*
X661372Y658483D01*
X661288Y658567D01*
X661261Y658622D01*
X661233Y658650D01*
X660955Y658983D01*
X660677Y659233D01*
X660539Y659344D01*
X660455Y659427D01*
X660400Y659455D01*
X660372Y659483D01*
X659983Y659760D01*
X659595Y659983D01*
X659206Y660205D01*
X658790Y660371D01*
X658012Y660649D01*
X657263Y660815D01*
X656930Y660871D01*
X656597Y660926D01*
X656319Y660954D01*
X656097Y660982D01*
X655902Y661010D01*
X662649D01*
D02*
G37*
G36*
X664759Y646490D02*
X648573D01*
X660872D01*
Y644769D01*
X648573D01*
Y632526D01*
D01*
Y636329D01*
X648990D01*
X649378D01*
X649767D01*
X650100D01*
X650683D01*
X651211D01*
X651627D01*
X651960D01*
X652238D01*
X652432D01*
X652571D01*
X652682D01*
X652765D01*
X652793D01*
X653515D01*
X654181Y636301D01*
X654736D01*
X655236Y636274D01*
X655625Y636246D01*
X655902D01*
X656013Y636218D01*
X656097D01*
X656124D01*
X656152D01*
X656846Y636135D01*
X657485Y636024D01*
X658068Y635913D01*
X658568Y635774D01*
X659012Y635607D01*
X659400Y635441D01*
X659706Y635274D01*
X660011Y635107D01*
X660233Y634941D01*
X660428Y634802D01*
X660566Y634663D01*
X660705Y634524D01*
X660788Y634413D01*
X660844Y634358D01*
X660872Y634302D01*
Y632526D01*
X664759D01*
Y634025D01*
X662232D01*
Y644991D01*
X664759D01*
Y646490D01*
D02*
G37*
G36*
X662232Y631637D02*
X648573Y626834D01*
Y631637D01*
X662232D01*
X648573D01*
Y619727D01*
D01*
Y624586D01*
X662232Y619727D01*
Y621587D01*
X658151Y623031D01*
Y628278D01*
X662232Y629694D01*
Y631637D01*
D02*
G37*
G36*
X662399Y617923D02*
X648573D01*
Y607429D01*
D01*
Y609511D01*
X649017D01*
X649462D01*
X649850D01*
X650211D01*
X650544D01*
X650822D01*
X651099D01*
X651349D01*
X651766D01*
X652099D01*
X652321D01*
X652515D01*
X652626D01*
X652654D01*
X652710D01*
X653515D01*
X654292Y609483D01*
X654653D01*
X654986Y609455D01*
X655292D01*
X655569Y609427D01*
X655791Y609400D01*
X656013D01*
X656208Y609372D01*
X656347D01*
X656458D01*
X656541Y609344D01*
X656597D01*
X656624D01*
X657346Y609261D01*
X657957Y609150D01*
X658512Y609039D01*
X658956Y608900D01*
X659373Y608733D01*
X659678Y608567D01*
X659956Y608428D01*
X660178Y608261D01*
X660344Y608095D01*
X660455Y607928D01*
X660566Y607789D01*
X660622Y607678D01*
X660650Y607567D01*
X660677Y607484D01*
Y607429D01*
X648573D01*
X662399D01*
D01*
X662371Y607706D01*
X662343Y607928D01*
X662316Y608095D01*
Y608150D01*
X662232Y608400D01*
X662121Y608622D01*
X661982Y608844D01*
X661843Y609067D01*
X661427Y609427D01*
X660955Y609761D01*
X660400Y610066D01*
X659817Y610288D01*
X659206Y610510D01*
X658568Y610677D01*
X657957Y610843D01*
X657374Y610954D01*
X656818Y611038D01*
X656319Y611093D01*
X655902Y611149D01*
X655736Y611176D01*
X655597D01*
X655486Y611204D01*
X655403D01*
X655347D01*
X655319D01*
X655097D01*
X654792Y611232D01*
X654459D01*
X654070D01*
X653654D01*
X653237Y611260D01*
X652349D01*
X651905D01*
X651488D01*
X651127D01*
X650794D01*
X650517D01*
X650294D01*
X650183D01*
X650128D01*
Y616174D01*
X662232D01*
Y617923D01*
X662399D01*
D02*
G37*
G36*
X662232Y606485D02*
X648573D01*
Y595769D01*
X650128D01*
Y600266D01*
X662232D01*
Y602293D01*
Y601987D01*
X650128D01*
Y606485D01*
X662232D01*
D02*
G37*
G36*
X662649Y594686D02*
X655097D01*
X654598Y594658D01*
X654153Y594575D01*
X653293Y594380D01*
X652904Y594269D01*
X652543Y594158D01*
X652210Y594020D01*
X651905Y593881D01*
X651627Y593742D01*
X651405Y593631D01*
X651183Y593520D01*
X651016Y593409D01*
X650877Y593325D01*
X650794Y593242D01*
X650739Y593214D01*
X650711Y593187D01*
X650683D01*
X650655Y593159D01*
X650239Y592798D01*
X649906Y592437D01*
X649573Y592021D01*
X649323Y591604D01*
X649101Y591188D01*
X648906Y590771D01*
X648767Y590355D01*
X648629Y589938D01*
X648545Y589550D01*
X648462Y589217D01*
X648434Y588884D01*
X648379Y588606D01*
Y588384D01*
X648351Y588217D01*
Y594686D01*
Y581499D01*
Y588078D01*
X648379Y587579D01*
X648434Y587107D01*
X648518Y586662D01*
X648629Y586218D01*
X648740Y585830D01*
X648906Y585469D01*
X649045Y585108D01*
X649212Y584802D01*
X649378Y584525D01*
X649517Y584275D01*
X649684Y584081D01*
X649795Y583914D01*
X649906Y583775D01*
X649989Y583664D01*
X650045Y583609D01*
X650072Y583581D01*
X650461Y583220D01*
X650877Y582887D01*
X651322Y582609D01*
X651766Y582387D01*
X652210Y582165D01*
X652682Y581998D01*
X653126Y581860D01*
X653543Y581749D01*
X653959Y581665D01*
X654320Y581610D01*
X654653Y581554D01*
X654931Y581526D01*
X655181D01*
X655347Y581499D01*
X648351D01*
X662649D01*
X655514D01*
X656069Y581526D01*
X656597Y581582D01*
X657096Y581637D01*
X657568Y581749D01*
X658012Y581887D01*
X658429Y582026D01*
X658790Y582165D01*
X659123Y582332D01*
X659428Y582470D01*
X659706Y582609D01*
X659928Y582748D01*
X660122Y582887D01*
X660289Y582998D01*
X660400Y583053D01*
X660455Y583109D01*
X660483Y583137D01*
X660872Y583498D01*
X661205Y583886D01*
X661483Y584275D01*
X661732Y584691D01*
X661955Y585108D01*
X662121Y585524D01*
X662260Y585913D01*
X662371Y586302D01*
X662454Y586690D01*
X662538Y587023D01*
X662593Y587329D01*
X662621Y587579D01*
Y587801D01*
X662649Y587967D01*
Y588106D01*
X662621Y588578D01*
X662593Y589022D01*
X662427Y589827D01*
X662204Y590549D01*
X662066Y590882D01*
X661927Y591160D01*
X661816Y591438D01*
X661677Y591660D01*
X661566Y591854D01*
X661455Y592021D01*
X661372Y592159D01*
X661288Y592243D01*
X661261Y592298D01*
X661233Y592326D01*
X660955Y592659D01*
X660677Y592909D01*
X660539Y593020D01*
X660455Y593103D01*
X660400Y593131D01*
X660372Y593159D01*
X659983Y593437D01*
X659595Y593659D01*
X659206Y593881D01*
X658790Y594047D01*
X658012Y594325D01*
X657263Y594491D01*
X656930Y594547D01*
X656597Y594603D01*
X656319Y594630D01*
X656097Y594658D01*
X655902Y594686D01*
X662649D01*
D02*
G37*
G36*
X662232Y575308D02*
X648573Y570505D01*
Y575308D01*
Y563398D01*
D01*
Y568256D01*
X662232Y563398D01*
Y565258D01*
X658151Y566702D01*
Y571949D01*
X662232Y573364D01*
Y575308D01*
D02*
G37*
G36*
Y562759D02*
X648573D01*
Y552043D01*
X650128D01*
Y556540D01*
X662232D01*
Y558262D01*
X650128D01*
Y562759D01*
X662232D01*
D02*
G37*
G36*
Y551377D02*
X648573Y546574D01*
Y551377D01*
Y539467D01*
Y544325D01*
X662232Y539467D01*
Y541327D01*
X658151Y542771D01*
Y548018D01*
X662232Y549433D01*
Y551377D01*
D02*
G37*
G36*
X662399Y537662D02*
X648573D01*
Y527168D01*
D01*
Y529250D01*
X649017D01*
X649462D01*
X649850D01*
X650211D01*
X650544D01*
X650822D01*
X651099D01*
X651349D01*
X651766D01*
X652099D01*
X652321D01*
X652515D01*
X652626D01*
X652654D01*
X652710D01*
X653515D01*
X654292Y529222D01*
X654653D01*
X654986Y529195D01*
X655292D01*
X655569Y529167D01*
X655791Y529139D01*
X656013D01*
X656208Y529112D01*
X656347D01*
X656458D01*
X656541Y529084D01*
X656597D01*
X656624D01*
X657346Y529000D01*
X657957Y528889D01*
X658512Y528778D01*
X658956Y528639D01*
X659373Y528473D01*
X659678Y528306D01*
X659956Y528167D01*
X660178Y528001D01*
X660344Y527834D01*
X660455Y527668D01*
X660566Y527529D01*
X660622Y527418D01*
X660650Y527307D01*
X660677Y527224D01*
Y527168D01*
X648573D01*
X662399D01*
D01*
X662371Y527446D01*
X662343Y527668D01*
X662316Y527834D01*
Y527890D01*
X662232Y528140D01*
X662121Y528362D01*
X661982Y528584D01*
X661843Y528806D01*
X661427Y529167D01*
X660955Y529500D01*
X660400Y529805D01*
X659817Y530028D01*
X659206Y530250D01*
X658568Y530416D01*
X657957Y530583D01*
X657374Y530694D01*
X656818Y530777D01*
X656319Y530833D01*
X655902Y530888D01*
X655736Y530916D01*
X655597D01*
X655486Y530944D01*
X655403D01*
X655347D01*
X655319D01*
X655097D01*
X654792Y530971D01*
X654459D01*
X654070D01*
X653654D01*
X653237Y530999D01*
X652349D01*
X651905D01*
X651488D01*
X651127D01*
X650794D01*
X650517D01*
X650294D01*
X650183D01*
X650128D01*
Y535913D01*
X662232D01*
Y537662D01*
X662399D01*
D02*
G37*
G36*
X662232Y525086D02*
X648573D01*
Y514564D01*
X662232D01*
Y525086D01*
D02*
G37*
%LPD*%
G36*
X654820Y705457D02*
X654792Y705041D01*
X654709Y704652D01*
X654625Y704346D01*
X654486Y704097D01*
X654376Y703902D01*
X654292Y703764D01*
X654209Y703680D01*
X654181Y703652D01*
X653904Y703430D01*
X653626Y703291D01*
X653348Y703180D01*
X653071Y703097D01*
X652849Y703042D01*
X652654Y703014D01*
X652543D01*
X652488D01*
X652127Y703042D01*
X651794Y703125D01*
X651488Y703208D01*
X651238Y703347D01*
X651044Y703458D01*
X650877Y703541D01*
X650794Y703625D01*
X650766Y703652D01*
X650544Y703902D01*
X650406Y704180D01*
X650294Y704485D01*
X650211Y704763D01*
X650156Y705041D01*
X650128Y705263D01*
Y709705D01*
X654820D01*
Y705457D01*
D02*
G37*
G36*
X656680Y691326D02*
X650461Y693575D01*
X656680Y695685D01*
Y691326D01*
D02*
G37*
G36*
X654486Y677056D02*
X648573D01*
Y684052D01*
X654486D01*
Y677056D01*
D02*
G37*
G36*
X655569Y666340D02*
X655486Y665924D01*
X655375Y665590D01*
X655181Y665341D01*
X654986Y665174D01*
X654820Y665035D01*
X654653Y664980D01*
X654542Y664924D01*
X654486D01*
X648573D01*
Y670615D01*
X655569D01*
Y666340D01*
D02*
G37*
G36*
X656374Y659233D02*
X657096Y659122D01*
X657707Y658928D01*
X658262Y658733D01*
X658484Y658622D01*
X658679Y658539D01*
X658845Y658428D01*
X658984Y658344D01*
X659123Y658289D01*
X659206Y658233D01*
X659234Y658178D01*
X659262D01*
X659595Y657928D01*
X659872Y657623D01*
X660122Y657345D01*
X660344Y657040D01*
X660539Y656706D01*
X660677Y656401D01*
X660900Y655818D01*
X661038Y655263D01*
X661094Y655041D01*
X661122Y654819D01*
X661150Y654652D01*
Y654430D01*
X661094Y653764D01*
X660983Y653181D01*
X660788Y652653D01*
X660594Y652209D01*
X660400Y651848D01*
X660206Y651571D01*
X660095Y651404D01*
X660039Y651376D01*
Y651348D01*
X659734Y651043D01*
X659400Y650765D01*
X659040Y650516D01*
X658679Y650321D01*
X658290Y650155D01*
X657929Y650016D01*
X657179Y649794D01*
X656846Y649710D01*
X656541Y649655D01*
X656236Y649627D01*
X656013Y649599D01*
X655791Y649572D01*
X655652D01*
X655542D01*
X655514D01*
X654736Y649627D01*
X654015Y649738D01*
X653376Y649905D01*
X652849Y650099D01*
X652626Y650210D01*
X652404Y650294D01*
X652238Y650377D01*
X652099Y650460D01*
X651960Y650543D01*
X651877Y650571D01*
X651849Y650627D01*
X651821D01*
X651488Y650876D01*
X651183Y651182D01*
X650933Y651460D01*
X650711Y651793D01*
X650517Y652098D01*
X650378Y652403D01*
X650239Y652709D01*
X650156Y653014D01*
X650017Y653569D01*
X649961Y653792D01*
X649933Y654014D01*
X649906Y654180D01*
Y654402D01*
X649961Y655041D01*
X650072Y655624D01*
X650239Y656151D01*
X650406Y656596D01*
X650600Y656956D01*
X650766Y657206D01*
X650877Y657373D01*
X650933Y657428D01*
X651238Y657762D01*
X651572Y658039D01*
X651932Y658289D01*
X652321Y658511D01*
X652710Y658678D01*
X653098Y658844D01*
X653848Y659066D01*
X654209Y659122D01*
X654542Y659177D01*
X654820Y659233D01*
X655097Y659261D01*
X655292Y659288D01*
X655458D01*
X655569D01*
X655597D01*
X656374Y659233D01*
D02*
G37*
G36*
X660705Y636801D02*
X660317Y637023D01*
X659900Y637190D01*
X659428Y637356D01*
X658929Y637523D01*
X657901Y637745D01*
X656846Y637911D01*
X656374Y637967D01*
X655902Y637995D01*
X655486Y638050D01*
X655125Y638078D01*
X654820D01*
X654598Y638106D01*
X654459D01*
X654403D01*
X650128D01*
Y643020D01*
X660705D01*
Y636801D01*
D02*
G37*
G36*
X656680Y623447D02*
X650461Y625696D01*
X656680Y627806D01*
Y623447D01*
D02*
G37*
G36*
X656374Y592909D02*
X657096Y592798D01*
X657707Y592604D01*
X658262Y592409D01*
X658484Y592298D01*
X658679Y592215D01*
X658845Y592104D01*
X658984Y592021D01*
X659123Y591965D01*
X659206Y591910D01*
X659234Y591854D01*
X659262D01*
X659595Y591604D01*
X659872Y591299D01*
X660122Y591021D01*
X660344Y590716D01*
X660539Y590383D01*
X660677Y590077D01*
X660900Y589494D01*
X661038Y588939D01*
X661094Y588717D01*
X661122Y588495D01*
X661150Y588328D01*
Y588106D01*
X661094Y587440D01*
X660983Y586857D01*
X660788Y586329D01*
X660594Y585885D01*
X660400Y585524D01*
X660206Y585247D01*
X660095Y585080D01*
X660039Y585052D01*
Y585024D01*
X659734Y584719D01*
X659400Y584441D01*
X659040Y584192D01*
X658679Y583997D01*
X658290Y583831D01*
X657929Y583692D01*
X657179Y583470D01*
X656846Y583387D01*
X656541Y583331D01*
X656236Y583303D01*
X656013Y583275D01*
X655791Y583248D01*
X655652D01*
X655542D01*
X655514D01*
X654736Y583303D01*
X654015Y583414D01*
X653376Y583581D01*
X652849Y583775D01*
X652626Y583886D01*
X652404Y583970D01*
X652238Y584053D01*
X652099Y584136D01*
X651960Y584219D01*
X651877Y584247D01*
X651849Y584303D01*
X651821D01*
X651488Y584553D01*
X651183Y584858D01*
X650933Y585136D01*
X650711Y585469D01*
X650517Y585774D01*
X650378Y586079D01*
X650239Y586385D01*
X650156Y586690D01*
X650017Y587245D01*
X649961Y587468D01*
X649933Y587690D01*
X649906Y587856D01*
Y588078D01*
X649961Y588717D01*
X650072Y589300D01*
X650239Y589827D01*
X650406Y590272D01*
X650600Y590633D01*
X650766Y590882D01*
X650877Y591049D01*
X650933Y591105D01*
X651238Y591438D01*
X651572Y591715D01*
X651932Y591965D01*
X652321Y592187D01*
X652710Y592354D01*
X653098Y592520D01*
X653848Y592742D01*
X654209Y592798D01*
X654542Y592854D01*
X654820Y592909D01*
X655097Y592937D01*
X655292Y592965D01*
X655458D01*
X655569D01*
X655597D01*
X656374Y592909D01*
D02*
G37*
G36*
X656680Y567118D02*
X650461Y569367D01*
X656680Y571477D01*
Y567118D01*
D02*
G37*
G36*
Y543187D02*
X650461Y545436D01*
X656680Y547546D01*
Y543187D01*
D02*
G37*
G36*
X662232Y516313D02*
X650128D01*
Y523309D01*
X662232D01*
Y516313D01*
D02*
G37*
%LPC*%
G36*
X620214Y418088D02*
X615285D01*
Y413507D01*
X620376D01*
X620561Y413553D01*
X620770Y413599D01*
X621024Y413669D01*
X621302Y413784D01*
X621579Y413946D01*
X621834Y414178D01*
X621857Y414201D01*
X621950Y414293D01*
X622065Y414432D01*
X622181Y414640D01*
X622320Y414872D01*
X622412Y415149D01*
X622505Y415450D01*
X622528Y415797D01*
Y415844D01*
Y415959D01*
X622482Y416121D01*
X622435Y416353D01*
X622366Y416584D01*
X622227Y416862D01*
X622065Y417140D01*
X621834Y417394D01*
X621811Y417417D01*
X621718Y417510D01*
X621579Y417625D01*
X621371Y417741D01*
X621140Y417880D01*
X620862Y417972D01*
X620561Y418065D01*
X620214Y418088D01*
D02*
G37*
G36*
X557691Y424891D02*
X557599D01*
X557483Y424868D01*
X557344D01*
X557182Y424822D01*
X556974Y424799D01*
X556743Y424729D01*
X556488Y424660D01*
X556234Y424544D01*
X555956Y424428D01*
X555678Y424266D01*
X555401Y424081D01*
X555123Y423873D01*
X554845Y423595D01*
X554568Y423318D01*
X554313Y422971D01*
X554290Y422947D01*
X554267Y422901D01*
X554197Y422809D01*
X554128Y422670D01*
X554035Y422508D01*
X553943Y422299D01*
X553827Y422091D01*
X553712Y421837D01*
X553596Y421559D01*
X553480Y421258D01*
X553295Y420610D01*
X553156Y419893D01*
X553133Y419500D01*
X553110Y419106D01*
Y419083D01*
Y419014D01*
Y418898D01*
X553133Y418736D01*
X553156Y418551D01*
X553179Y418343D01*
X553202Y418088D01*
X553272Y417811D01*
X553411Y417209D01*
X553619Y416561D01*
X553758Y416237D01*
X553920Y415890D01*
X554105Y415566D01*
X554313Y415242D01*
X554336Y415219D01*
X554383Y415149D01*
X554452Y415057D01*
X554544Y414941D01*
X554683Y414802D01*
X554845Y414617D01*
X555030Y414455D01*
X555239Y414270D01*
X555470Y414085D01*
X555725Y413923D01*
X556303Y413599D01*
X556627Y413483D01*
X556951Y413391D01*
X557321Y413321D01*
X557691Y413298D01*
X557784D01*
X557900Y413321D01*
X558039D01*
X558200Y413368D01*
X558409Y413391D01*
X558640Y413460D01*
X558872Y413530D01*
X559149Y413645D01*
X559404Y413761D01*
X559682Y413923D01*
X559982Y414108D01*
X560260Y414340D01*
X560538Y414594D01*
X560815Y414872D01*
X561070Y415219D01*
X561093Y415242D01*
X561116Y415288D01*
X561185Y415404D01*
X561255Y415520D01*
X561348Y415682D01*
X561440Y415890D01*
X561556Y416098D01*
X561671Y416353D01*
X561787Y416630D01*
X561903Y416931D01*
X562088Y417602D01*
X562227Y418320D01*
X562250Y418713D01*
X562273Y419106D01*
Y419129D01*
Y419199D01*
Y419315D01*
X562250Y419477D01*
X562227Y419662D01*
X562204Y419870D01*
X562180Y420124D01*
X562134Y420379D01*
X561972Y420981D01*
X561764Y421628D01*
X561625Y421976D01*
X561463Y422299D01*
X561278Y422647D01*
X561070Y422971D01*
X561047Y422994D01*
X561000Y423063D01*
X560931Y423156D01*
X560838Y423271D01*
X560700Y423410D01*
X560538Y423572D01*
X560353Y423757D01*
X560144Y423942D01*
X559913Y424104D01*
X559658Y424290D01*
X559080Y424590D01*
X558756Y424706D01*
X558432Y424799D01*
X558062Y424868D01*
X557691Y424891D01*
D02*
G37*
G36*
X493827Y424706D02*
X489199D01*
Y419500D01*
X493873D01*
X494012Y419523D01*
X494243Y419546D01*
X494498Y419592D01*
X494799Y419685D01*
X495122Y419800D01*
X495447Y419986D01*
X495724Y420217D01*
X495747Y420240D01*
X495840Y420356D01*
X495956Y420495D01*
X496094Y420726D01*
X496210Y420981D01*
X496326Y421305D01*
X496418Y421675D01*
X496441Y422091D01*
Y422114D01*
Y422138D01*
Y422276D01*
X496395Y422508D01*
X496349Y422762D01*
X496256Y423063D01*
X496141Y423387D01*
X495956Y423711D01*
X495724Y423989D01*
X495701Y424012D01*
X495585Y424104D01*
X495447Y424220D01*
X495215Y424359D01*
X494937Y424475D01*
X494613Y424590D01*
X494243Y424683D01*
X493827Y424706D01*
D02*
G37*
G36*
X508081Y423271D02*
X505489Y416908D01*
X510672D01*
X508081Y423271D01*
D02*
G37*
G36*
X525158Y423341D02*
X521316Y413507D01*
X528999D01*
X525158Y423341D01*
D02*
G37*
G36*
X459422Y438543D02*
X459380Y438523D01*
X459358Y438462D01*
X459271Y438319D01*
X459185Y438177D01*
X458902Y437687D01*
X458511Y436994D01*
X458074Y436178D01*
X457590Y435135D01*
X457081Y433928D01*
X456524Y432494D01*
X456502Y432432D01*
X456479Y432371D01*
X456345Y432001D01*
X456144Y431448D01*
X455897Y430771D01*
X455648Y429992D01*
X455377Y429150D01*
X455147Y428328D01*
X454918Y427506D01*
X454960Y427526D01*
X455024Y427607D01*
X455150Y427666D01*
X455340Y427805D01*
X455743Y428146D01*
X456333Y428524D01*
X456903Y428943D01*
X457516Y429381D01*
X458148Y429778D01*
X458673Y430075D01*
X458696Y430136D01*
X458679Y430281D01*
X458707Y430550D01*
X458696Y430902D01*
X458749Y431335D01*
X458783Y431811D01*
X458778Y432370D01*
X458836Y433010D01*
X458935Y434333D01*
X459055Y435716D01*
X459198Y437162D01*
X459422Y438543D01*
D02*
G37*
G36*
X434512Y419472D02*
X434282Y419416D01*
X434198Y419377D01*
X434092Y419276D01*
X433944Y419156D01*
X433815Y418994D01*
X433642Y418709D01*
X433427Y418404D01*
X433250Y418015D01*
X433186Y417934D01*
X433116Y417646D01*
X432917Y417196D01*
X432735Y416601D01*
X432551Y415902D01*
X432444Y415035D01*
X432315Y414107D01*
X432307Y413031D01*
X432349Y413050D01*
X432477Y413212D01*
X432690Y413414D01*
X432925Y413676D01*
X433459Y414283D01*
X433697Y414649D01*
X433893Y414996D01*
X433915Y415057D01*
X434024Y415261D01*
X434178Y415588D01*
X434334Y416019D01*
X434514Y416511D01*
X434673Y417045D01*
X434813Y417621D01*
X434934Y418238D01*
X434914Y418280D01*
X434936Y418342D01*
X434964Y418610D01*
X434931Y418901D01*
X434836Y419214D01*
X434816Y419256D01*
X434696Y419404D01*
X434512Y419472D01*
D02*
G37*
G36*
X425799Y415051D02*
X425611Y415015D01*
X425382Y414959D01*
X425214Y414881D01*
X425086Y414719D01*
X424873Y414518D01*
X424596Y414235D01*
X424336Y413807D01*
X424054Y413318D01*
X423788Y412684D01*
X423765Y412622D01*
X423676Y412376D01*
X423561Y411965D01*
X423424Y411493D01*
X423323Y410833D01*
X423158Y410092D01*
X423051Y409226D01*
X422984Y408275D01*
X423004Y408233D01*
X422981Y408172D01*
X422973Y407861D01*
X422962Y407447D01*
X422928Y406972D01*
X422891Y406393D01*
X422877Y405876D01*
X422844Y405401D01*
X422813Y405029D01*
X422916Y405026D01*
X423184Y404998D01*
X423598Y404987D01*
X424037Y405141D01*
X424121Y405180D01*
X424311Y405319D01*
X424630Y405621D01*
X424994Y406046D01*
X425209Y406351D01*
X425405Y406698D01*
X425623Y407106D01*
X425822Y407556D01*
X426001Y408048D01*
X426183Y408643D01*
X426345Y409281D01*
X426468Y410002D01*
X426491Y410063D01*
X426496Y410270D01*
X426566Y410558D01*
X426597Y410930D01*
X426631Y411405D01*
X426664Y411880D01*
X426673Y412957D01*
X426654Y412999D01*
X426637Y413144D01*
X426642Y413351D01*
X426629Y413600D01*
X426539Y414120D01*
X426483Y414349D01*
X426386Y414559D01*
X426366Y414601D01*
X426288Y414769D01*
X426145Y414855D01*
X425983Y414984D01*
X425922Y415006D01*
X425799Y415051D01*
D02*
G37*
G36*
X413941Y404671D02*
X413941Y404604D01*
X413961Y404629D01*
X413941Y404671D01*
D02*
G37*
G36*
X413902Y395666D02*
X413861Y395646D01*
X413838Y395585D01*
X413645Y395342D01*
X413385Y394914D01*
X412977Y394366D01*
X412585Y393673D01*
X412149Y392856D01*
X411648Y391959D01*
X411206Y390936D01*
X411164Y390916D01*
X411161Y390813D01*
X411027Y390444D01*
X410867Y389910D01*
X410705Y389273D01*
X410582Y388551D01*
X410540Y387766D01*
X410581Y387019D01*
X410676Y386706D01*
X410791Y386351D01*
X410810Y386309D01*
X410930Y386161D01*
X411070Y385971D01*
X411274Y385862D01*
X411336Y385839D01*
X411562Y385792D01*
X411892Y385741D01*
X412205Y385836D01*
X412289Y385875D01*
X412437Y385995D01*
X412672Y386258D01*
X412952Y386644D01*
X413083Y386910D01*
X413215Y387175D01*
X413349Y387544D01*
X413506Y387975D01*
X413601Y388428D01*
X413699Y388984D01*
X413820Y389602D01*
X413878Y390242D01*
X413859Y390284D01*
X413862Y390387D01*
X413909Y390614D01*
X413898Y390966D01*
X413870Y391464D01*
X413879Y391774D01*
X413910Y392146D01*
X413921Y392560D01*
X413893Y393057D01*
X413907Y393574D01*
X413882Y394176D01*
X413863Y394218D01*
X413885Y394279D01*
X413874Y394631D01*
X413908Y395107D01*
X413902Y395666D01*
D02*
G37*
%LPD*%
D10*
X455141Y999605D02*
G03*
X409461Y999602I-22841J16195D01*
G01*
X435541Y449605D02*
G03*
X389861Y449602I-22841J16195D01*
G01*
X446600Y999603D02*
X455141Y999605D01*
X409461Y999602D02*
X417600D01*
X389861Y449602D02*
X398000D01*
X427000Y449603D02*
X435541Y449605D01*
D11*
X262000Y915200D02*
G03*
X307000Y916200I22428J3733D01*
G01*
X307000Y985200D02*
G03*
X262000Y984200I-22428J-3733D01*
G01*
X533114Y1049390D02*
G03*
X573110Y1049390I19998J290D01*
G01*
X733844Y655944D02*
G03*
X736131Y650459I6656J-444D01*
G01*
X736287Y689485D02*
G03*
X734000Y684000I4369J-5041D01*
G01*
X755156Y684056D02*
G03*
X752869Y689541I-6656J444D01*
G01*
X753029Y650808D02*
G03*
X755290Y656304I-4393J5020D01*
G01*
X822029Y955000D02*
G03*
X822029Y955000I-17029J0D01*
G01*
X777029D02*
G03*
X777029Y955000I-17029J0D01*
G01*
X732029D02*
G03*
X732029Y955000I-17029J0D01*
G01*
X687029D02*
G03*
X687029Y955000I-17029J0D01*
G01*
X398844Y925944D02*
G03*
X401131Y920459I6656J-444D01*
G01*
X401287Y959485D02*
G03*
X399000Y954000I4369J-5041D01*
G01*
X420156Y954056D02*
G03*
X417869Y959541I-6656J444D01*
G01*
X418029Y920808D02*
G03*
X420290Y926304I-4393J5020D01*
G01*
X438844Y925944D02*
G03*
X441131Y920459I6656J-444D01*
G01*
X441287Y959485D02*
G03*
X439000Y954000I4369J-5041D01*
G01*
X460156Y954056D02*
G03*
X457869Y959541I-6656J444D01*
G01*
X458029Y920808D02*
G03*
X460290Y926304I-4393J5020D01*
G01*
X403029Y544000D02*
G03*
X403029Y544000I-17029J0D01*
G01*
X458029Y696000D02*
G03*
X458029Y696000I-17029J0D01*
G01*
X454299Y754538D02*
G03*
X456560Y760034I-4393J5020D01*
G01*
X456426Y787786D02*
G03*
X454139Y793271I-6656J444D01*
G01*
X437557Y793215D02*
G03*
X435270Y787730I4369J-5041D01*
G01*
X435114Y759674D02*
G03*
X437401Y754189I6656J-444D01*
G01*
X823029Y1046000D02*
G03*
X823029Y1046000I-17029J0D01*
G01*
X778029D02*
G03*
X778029Y1046000I-17029J0D01*
G01*
X753029Y560808D02*
G03*
X755290Y566304I-4393J5020D01*
G01*
X755156Y594056D02*
G03*
X752869Y599541I-6656J444D01*
G01*
X736287Y599485D02*
G03*
X734000Y594000I4369J-5041D01*
G01*
X733844Y565944D02*
G03*
X736131Y560459I6656J-444D01*
G01*
X753029Y825808D02*
G03*
X755290Y831304I-4393J5020D01*
G01*
X755156Y859056D02*
G03*
X752869Y864541I-6656J444D01*
G01*
X736287Y864485D02*
G03*
X734000Y859000I4369J-5041D01*
G01*
X733844Y830944D02*
G03*
X736131Y825459I6656J-444D01*
G01*
X753029Y740808D02*
G03*
X755290Y746304I-4393J5020D01*
G01*
X755156Y774056D02*
G03*
X752869Y779541I-6656J444D01*
G01*
X736287Y779485D02*
G03*
X734000Y774000I4369J-5041D01*
G01*
X733844Y745944D02*
G03*
X736131Y740459I6656J-444D01*
G01*
X403029Y594000D02*
G03*
X403029Y594000I-17029J0D01*
G01*
Y644000D02*
G03*
X403029Y644000I-17029J0D01*
G01*
Y694000D02*
G03*
X403029Y694000I-17029J0D01*
G01*
Y744000D02*
G03*
X403029Y744000I-17029J0D01*
G01*
Y794000D02*
G03*
X403029Y794000I-17029J0D01*
G01*
Y844000D02*
G03*
X403029Y844000I-17029J0D01*
G01*
Y894000D02*
G03*
X403029Y894000I-17029J0D01*
G01*
X733029Y1046000D02*
G03*
X733029Y1046000I-17029J0D01*
G01*
X688029D02*
G03*
X688029Y1046000I-17029J0D01*
G01*
X358844Y975944D02*
G03*
X361131Y970459I6656J-444D01*
G01*
X361287Y1009485D02*
G03*
X359000Y1004000I4369J-5041D01*
G01*
X380156Y1004056D02*
G03*
X377869Y1009541I-6656J444D01*
G01*
X378029Y970808D02*
G03*
X380290Y976304I-4393J5020D01*
G01*
X313844Y975944D02*
G03*
X316131Y970459I6656J-444D01*
G01*
X316287Y1009485D02*
G03*
X314000Y1004000I4369J-5041D01*
G01*
X335156Y1004056D02*
G03*
X332869Y1009541I-6656J444D01*
G01*
X333029Y970808D02*
G03*
X335290Y976304I-4393J5020D01*
G01*
X648844Y820944D02*
G03*
X651131Y815459I6656J-444D01*
G01*
X651287Y854485D02*
G03*
X649000Y849000I4369J-5041D01*
G01*
X670156Y849056D02*
G03*
X667869Y854541I-6656J444D01*
G01*
X668029Y815808D02*
G03*
X670290Y821304I-4393J5020D01*
G01*
X648844Y740566D02*
G03*
X651131Y735081I6656J-444D01*
G01*
X651287Y774107D02*
G03*
X649000Y768622I4369J-5041D01*
G01*
X670156Y768678D02*
G03*
X667869Y774163I-6656J444D01*
G01*
X668029Y735430D02*
G03*
X670290Y740926I-4393J5020D01*
G01*
X307000Y916200D02*
Y985200D01*
X262001Y916200D02*
Y984200D01*
X486750Y523610D02*
X617560D01*
X486750Y1049390D02*
X617560D01*
Y523610D02*
Y1049390D01*
X486750Y523610D02*
X488020D01*
X486750D02*
Y1049390D01*
X745000Y657000D02*
Y667000D01*
X735000Y668000D02*
X756000D01*
X735000Y673000D02*
X756000D01*
X745000Y674000D02*
Y684000D01*
X804000Y921000D02*
Y938000D01*
X759000Y921000D02*
Y938000D01*
X714000Y921000D02*
Y938000D01*
X669000Y921000D02*
Y938000D01*
X410000Y927000D02*
Y937000D01*
X400000Y938000D02*
X421000D01*
X400000Y943000D02*
X421000D01*
X410000Y944000D02*
Y954000D01*
X450000Y927000D02*
Y937000D01*
X440000Y938000D02*
X461000D01*
X440000Y943000D02*
X461000D01*
X450000Y944000D02*
Y954000D01*
X352000Y545000D02*
X368999D01*
X440000Y662000D02*
Y679000D01*
X446270Y777730D02*
Y787730D01*
X436270Y776730D02*
X457270D01*
X436270Y771730D02*
X457270D01*
X446270Y760730D02*
Y770730D01*
X805000Y1012000D02*
Y1029000D01*
X760000Y1012000D02*
Y1029000D01*
X745000Y584000D02*
Y594000D01*
X735000Y583000D02*
X756000D01*
X735000Y578000D02*
X756000D01*
X745000Y567000D02*
Y577000D01*
X745000Y849000D02*
Y859000D01*
X735000Y848000D02*
X756000D01*
X735000Y843000D02*
X756000D01*
X745000Y832000D02*
Y842000D01*
X745000Y764000D02*
Y774000D01*
X735000Y763000D02*
X756000D01*
X735000Y758000D02*
X756000D01*
X745000Y747000D02*
Y757000D01*
X352000Y595000D02*
X369000D01*
X352000Y645000D02*
X369000D01*
X352000Y695000D02*
X369000D01*
X352000Y745000D02*
X369000D01*
X352000Y795000D02*
X369000D01*
X352000Y845000D02*
X369000D01*
X352000Y895000D02*
X369000D01*
X715000Y1012000D02*
Y1029000D01*
X670000Y1012000D02*
Y1029000D01*
X370000Y977000D02*
Y987000D01*
X360000Y988000D02*
X381001D01*
X360000Y993000D02*
X381001D01*
X370000Y994000D02*
Y1004000D01*
X325000Y977000D02*
Y987000D01*
X315000Y988000D02*
X336000D01*
X315000Y993000D02*
X336000D01*
X325000Y994000D02*
Y1004000D01*
X660000Y822000D02*
Y832000D01*
X650000Y833000D02*
X671000D01*
X650000Y838000D02*
X671000D01*
X660000Y839000D02*
Y849000D01*
Y741623D02*
Y751623D01*
X650000Y752622D02*
X671000D01*
X650000Y757623D02*
X671000D01*
X660000Y758622D02*
Y768622D01*
X335000Y1030000D02*
Y1130000D01*
X365000Y1030000D02*
Y1050000D01*
X260000Y1080000D02*
X335000D01*
X365000Y1030000D02*
Y1130000D01*
X260000D02*
X365000D01*
X260000Y1030000D02*
Y1130000D01*
Y1030000D02*
X365000D01*
X382400Y1255600D02*
Y1261956D01*
X339400Y1255600D02*
X382400D01*
X339400D02*
Y1261956D01*
X258400Y1170516D02*
X461400D01*
X258400D02*
Y1262210D01*
X461400Y1170516D02*
Y1214600D01*
X258400Y1262210D02*
X411010D01*
X461400D01*
Y1215600D02*
Y1262210D01*
X379284Y1054903D02*
X378665Y1056141D01*
X377427Y1057378D01*
X376189Y1057997D01*
X373713D01*
X372476Y1057378D01*
X371238Y1056141D01*
X370619Y1054903D01*
X370000Y1053046D01*
Y1049951D01*
X370619Y1048095D01*
X371238Y1046857D01*
X372476Y1045619D01*
X373713Y1045000D01*
X376189D01*
X377427Y1045619D01*
X378665Y1046857D01*
X379284Y1048095D01*
Y1049951D01*
X376189D02*
X379284D01*
X382254Y1057997D02*
Y1045000D01*
Y1057997D02*
X390919Y1045000D01*
Y1057997D02*
Y1045000D01*
X394509Y1057997D02*
Y1045000D01*
Y1057997D02*
X398841D01*
X400698Y1057378D01*
X401936Y1056141D01*
X402555Y1054903D01*
X403174Y1053046D01*
Y1049951D01*
X402555Y1048095D01*
X401936Y1046857D01*
X400698Y1045619D01*
X398841Y1045000D01*
X394509D01*
X345570Y1146141D02*
Y1135000D01*
X340000Y1140570D02*
X351141D01*
X354978Y1147997D02*
X359929Y1135000D01*
X364880Y1147997D02*
X359929Y1135000D01*
X449284Y984903D02*
X448665Y986141D01*
X447427Y987378D01*
X446189Y987997D01*
X443713D01*
X442476Y987378D01*
X441238Y986141D01*
X440619Y984903D01*
X440000Y983046D01*
Y979951D01*
X440619Y978095D01*
X441238Y976857D01*
X442476Y975619D01*
X443713Y975000D01*
X446189D01*
X447427Y975619D01*
X448665Y976857D01*
X449284Y978095D01*
X452935Y985521D02*
X454173Y986141D01*
X456030Y987997D01*
Y975000D01*
X462467Y985521D02*
X463704Y986141D01*
X465561Y987997D01*
Y975000D01*
X404284Y984903D02*
X403665Y986140D01*
X402427Y987378D01*
X401189Y987997D01*
X398713D01*
X397476Y987378D01*
X396238Y986140D01*
X395619Y984903D01*
X395000Y983046D01*
Y979951D01*
X395619Y978095D01*
X396238Y976857D01*
X397476Y975619D01*
X398713Y975000D01*
X401189D01*
X402427Y975619D01*
X403665Y976857D01*
X404284Y978095D01*
X407935Y985521D02*
X409173Y986140D01*
X411030Y987997D01*
Y975000D01*
X421180Y987997D02*
X419323Y987378D01*
X418086Y985521D01*
X417467Y982427D01*
Y980570D01*
X418086Y977476D01*
X419323Y975619D01*
X421180Y975000D01*
X422418D01*
X424275Y975619D01*
X425513Y977476D01*
X426131Y980570D01*
Y982427D01*
X425513Y985521D01*
X424275Y987378D01*
X422418Y987997D01*
X421180D01*
X278665Y1022997D02*
X270000Y1010000D01*
Y1022997D02*
X278665D01*
X270000Y1010000D02*
X278665D01*
X285287Y1022997D02*
X284049Y1022378D01*
X282812Y1021141D01*
X282193Y1019903D01*
X281574Y1018046D01*
Y1014951D01*
X282193Y1013095D01*
X282812Y1011857D01*
X284049Y1010619D01*
X285287Y1010000D01*
X287763D01*
X289001Y1010619D01*
X290238Y1011857D01*
X290857Y1013095D01*
X291476Y1014951D01*
Y1018046D01*
X290857Y1019903D01*
X290238Y1021141D01*
X289001Y1022378D01*
X287763Y1022997D01*
X285287D01*
X287144Y1012476D02*
X290857Y1008762D01*
X294509Y1020522D02*
X295747Y1021141D01*
X297604Y1022997D01*
Y1010000D01*
X270000Y1147997D02*
X278665Y1135000D01*
Y1147997D02*
X270000Y1135000D01*
X290238Y1146141D02*
X289001Y1147378D01*
X287144Y1147997D01*
X284668D01*
X282812Y1147378D01*
X281574Y1146141D01*
Y1144903D01*
X282193Y1143665D01*
X282812Y1143046D01*
X284049Y1142427D01*
X287763Y1141189D01*
X289001Y1140570D01*
X289620Y1139951D01*
X290238Y1138714D01*
Y1136857D01*
X289001Y1135619D01*
X287144Y1135000D01*
X284668D01*
X282812Y1135619D01*
X281574Y1136857D01*
X293147Y1145521D02*
X294385Y1146141D01*
X296242Y1147997D01*
Y1135000D01*
X335000Y1167997D02*
X343665Y1155000D01*
Y1167997D02*
X335000Y1155000D01*
X346574Y1161189D02*
X352144D01*
X354001Y1161808D01*
X354620Y1162427D01*
X355238Y1163665D01*
Y1165521D01*
X354620Y1166759D01*
X354001Y1167378D01*
X352144Y1167997D01*
X346574D01*
Y1155000D01*
X358147Y1165521D02*
X359385Y1166141D01*
X361242Y1167997D01*
Y1155000D01*
X400000Y512997D02*
X404951Y500000D01*
X409903Y512997D02*
X404951Y500000D01*
X415906Y512997D02*
Y500000D01*
X411574Y512997D02*
X420238D01*
X421786Y510522D02*
X423024Y511141D01*
X424880Y512997D01*
Y500000D01*
X803665Y886141D02*
X802427Y887378D01*
X800570Y887997D01*
X798095D01*
X796238Y887378D01*
X795000Y886141D01*
Y884903D01*
X795619Y883665D01*
X796238Y883046D01*
X797476Y882427D01*
X801189Y881189D01*
X802427Y880570D01*
X803046Y879951D01*
X803665Y878714D01*
Y876857D01*
X802427Y875619D01*
X800570Y875000D01*
X798095D01*
X796238Y875619D01*
X795000Y876857D01*
X806574Y887997D02*
Y875000D01*
Y887997D02*
X812144D01*
X814001Y887378D01*
X814620Y886759D01*
X815238Y885521D01*
Y884284D01*
X814620Y883046D01*
X814001Y882427D01*
X812144Y881808D01*
X806574D02*
X812144D01*
X814001Y881189D01*
X814620Y880570D01*
X815238Y879332D01*
Y877476D01*
X814620Y876238D01*
X814001Y875619D01*
X812144Y875000D01*
X806574D01*
X825574Y887997D02*
X819385D01*
X818766Y882427D01*
X819385Y883046D01*
X821242Y883665D01*
X823099D01*
X824956Y883046D01*
X826193Y881808D01*
X826812Y879951D01*
Y878714D01*
X826193Y876857D01*
X824956Y875619D01*
X823099Y875000D01*
X821242D01*
X819385Y875619D01*
X818766Y876238D01*
X818147Y877476D01*
X803665Y801141D02*
X802427Y802378D01*
X800570Y802997D01*
X798095D01*
X796238Y802378D01*
X795000Y801141D01*
Y799903D01*
X795619Y798665D01*
X796238Y798046D01*
X797476Y797427D01*
X801189Y796189D01*
X802427Y795570D01*
X803046Y794951D01*
X803665Y793714D01*
Y791857D01*
X802427Y790619D01*
X800570Y790000D01*
X798095D01*
X796238Y790619D01*
X795000Y791857D01*
X806574Y802997D02*
Y790000D01*
Y802997D02*
X812144D01*
X814001Y802378D01*
X814620Y801759D01*
X815238Y800521D01*
Y799284D01*
X814620Y798046D01*
X814001Y797427D01*
X812144Y796808D01*
X806574D02*
X812144D01*
X814001Y796189D01*
X814620Y795570D01*
X815238Y794332D01*
Y792476D01*
X814620Y791238D01*
X814001Y790619D01*
X812144Y790000D01*
X806574D01*
X824337Y802997D02*
X818147Y794332D01*
X827431D01*
X824337Y802997D02*
Y790000D01*
X408665Y1166141D02*
X407427Y1167378D01*
X405570Y1167997D01*
X403095D01*
X401238Y1167378D01*
X400000Y1166141D01*
Y1164903D01*
X400619Y1163665D01*
X401238Y1163046D01*
X402476Y1162427D01*
X406189Y1161189D01*
X407427Y1160570D01*
X408046Y1159951D01*
X408665Y1158714D01*
Y1156857D01*
X407427Y1155619D01*
X405570Y1155000D01*
X403095D01*
X401238Y1155619D01*
X400000Y1156857D01*
X411574Y1167997D02*
Y1155000D01*
Y1167997D02*
X417144D01*
X419001Y1167378D01*
X419620Y1166759D01*
X420238Y1165521D01*
Y1164284D01*
X419620Y1163046D01*
X419001Y1162427D01*
X417144Y1161808D01*
X411574D02*
X417144D01*
X419001Y1161189D01*
X419620Y1160570D01*
X420238Y1159332D01*
Y1157476D01*
X419620Y1156238D01*
X419001Y1155619D01*
X417144Y1155000D01*
X411574D01*
X424385Y1167997D02*
X431193D01*
X427480Y1163046D01*
X429337D01*
X430574Y1162427D01*
X431193Y1161808D01*
X431812Y1159951D01*
Y1158714D01*
X431193Y1156857D01*
X429955Y1155619D01*
X428099Y1155000D01*
X426242D01*
X424385Y1155619D01*
X423766Y1156238D01*
X423147Y1157476D01*
X803665Y711141D02*
X802427Y712378D01*
X800570Y712997D01*
X798095D01*
X796238Y712378D01*
X795000Y711141D01*
Y709903D01*
X795619Y708665D01*
X796238Y708046D01*
X797476Y707427D01*
X801189Y706189D01*
X802427Y705570D01*
X803046Y704951D01*
X803665Y703714D01*
Y701857D01*
X802427Y700619D01*
X800570Y700000D01*
X798095D01*
X796238Y700619D01*
X795000Y701857D01*
X806574Y712997D02*
Y700000D01*
Y712997D02*
X812144D01*
X814001Y712378D01*
X814620Y711759D01*
X815238Y710521D01*
Y709284D01*
X814620Y708046D01*
X814001Y707427D01*
X812144Y706808D01*
X806574D02*
X812144D01*
X814001Y706189D01*
X814620Y705570D01*
X815238Y704332D01*
Y702476D01*
X814620Y701238D01*
X814001Y700619D01*
X812144Y700000D01*
X806574D01*
X818766Y709903D02*
Y710521D01*
X819385Y711759D01*
X820004Y712378D01*
X821242Y712997D01*
X823718D01*
X824956Y712378D01*
X825574Y711759D01*
X826193Y710521D01*
Y709284D01*
X825574Y708046D01*
X824337Y706189D01*
X818147Y700000D01*
X826812D01*
X803665Y621141D02*
X802427Y622378D01*
X800570Y622997D01*
X798095D01*
X796238Y622378D01*
X795000Y621141D01*
Y619903D01*
X795619Y618665D01*
X796238Y618046D01*
X797476Y617427D01*
X801189Y616189D01*
X802427Y615570D01*
X803046Y614951D01*
X803665Y613713D01*
Y611857D01*
X802427Y610619D01*
X800570Y610000D01*
X798095D01*
X796238Y610619D01*
X795000Y611857D01*
X806574Y622997D02*
Y610000D01*
Y622997D02*
X812144D01*
X814001Y622378D01*
X814620Y621759D01*
X815238Y620522D01*
Y619284D01*
X814620Y618046D01*
X814001Y617427D01*
X812144Y616808D01*
X806574D02*
X812144D01*
X814001Y616189D01*
X814620Y615570D01*
X815238Y614332D01*
Y612476D01*
X814620Y611238D01*
X814001Y610619D01*
X812144Y610000D01*
X806574D01*
X818147Y620522D02*
X819385Y621141D01*
X821242Y622997D01*
Y610000D01*
X720000Y537997D02*
Y525000D01*
Y537997D02*
X725570D01*
X727427Y537378D01*
X728046Y536759D01*
X728665Y535522D01*
Y534284D01*
X728046Y533046D01*
X727427Y532427D01*
X725570Y531808D01*
X720000D01*
X724332D02*
X728665Y525000D01*
X731574Y535522D02*
X732812Y536141D01*
X734668Y537997D01*
Y525000D01*
X744200Y537997D02*
X742343Y537378D01*
X741724Y536141D01*
Y534903D01*
X742343Y533665D01*
X743581Y533046D01*
X746056Y532427D01*
X747913Y531808D01*
X749151Y530570D01*
X749770Y529332D01*
Y527476D01*
X749151Y526238D01*
X748532Y525619D01*
X746675Y525000D01*
X744200D01*
X742343Y525619D01*
X741724Y526238D01*
X741105Y527476D01*
Y529332D01*
X741724Y530570D01*
X742962Y531808D01*
X744818Y532427D01*
X747294Y533046D01*
X748532Y533665D01*
X749151Y534903D01*
Y536141D01*
X748532Y537378D01*
X746675Y537997D01*
X744200D01*
X732003Y1005000D02*
X745000D01*
X732003D02*
Y1010570D01*
X732622Y1012427D01*
X733241Y1013046D01*
X734479Y1013665D01*
X735716D01*
X736954Y1013046D01*
X737573Y1012427D01*
X738192Y1010570D01*
Y1005000D01*
Y1009332D02*
X745000Y1013665D01*
X734479Y1016574D02*
X733859Y1017812D01*
X732003Y1019668D01*
X745000D01*
X732003Y1034770D02*
X745000Y1028581D01*
X732003Y1026105D02*
Y1034770D01*
X777003Y1005000D02*
X790000D01*
X777003D02*
Y1010570D01*
X777622Y1012427D01*
X778241Y1013046D01*
X779479Y1013665D01*
X780716D01*
X781954Y1013046D01*
X782573Y1012427D01*
X783192Y1010570D01*
Y1005000D01*
Y1009332D02*
X790000Y1013665D01*
X779479Y1016574D02*
X778859Y1017812D01*
X777003Y1019668D01*
X790000D01*
X778859Y1033532D02*
X777622Y1032913D01*
X777003Y1031056D01*
Y1029818D01*
X777622Y1027962D01*
X779479Y1026724D01*
X782573Y1026105D01*
X785668D01*
X788143Y1026724D01*
X789381Y1027962D01*
X790000Y1029818D01*
Y1030437D01*
X789381Y1032294D01*
X788143Y1033532D01*
X786286Y1034151D01*
X785668D01*
X783811Y1033532D01*
X782573Y1032294D01*
X781954Y1030437D01*
Y1029818D01*
X782573Y1027962D01*
X783811Y1026724D01*
X785668Y1026105D01*
X732003Y915000D02*
X745000D01*
X732003D02*
Y920570D01*
X732622Y922427D01*
X733241Y923046D01*
X734479Y923665D01*
X735716D01*
X736954Y923046D01*
X737573Y922427D01*
X738192Y920570D01*
Y915000D01*
Y919332D02*
X745000Y923665D01*
X734479Y926574D02*
X733859Y927812D01*
X732003Y929668D01*
X745000D01*
X732003Y943532D02*
Y937343D01*
X737573Y936724D01*
X736954Y937343D01*
X736335Y939200D01*
Y941056D01*
X736954Y942913D01*
X738192Y944151D01*
X740049Y944770D01*
X741286D01*
X743143Y944151D01*
X744381Y942913D01*
X745000Y941056D01*
Y939200D01*
X744381Y937343D01*
X743762Y936724D01*
X742524Y936105D01*
X642003Y915000D02*
X655000D01*
X642003D02*
Y920570D01*
X642622Y922427D01*
X643241Y923046D01*
X644479Y923665D01*
X645716D01*
X646954Y923046D01*
X647573Y922427D01*
X648192Y920570D01*
Y915000D01*
Y919332D02*
X655000Y923665D01*
X644479Y926574D02*
X643859Y927812D01*
X642003Y929668D01*
X655000D01*
X642003Y942294D02*
X650668Y936105D01*
Y945389D01*
X642003Y942294D02*
X655000D01*
X687003Y1005000D02*
X700000D01*
X687003D02*
Y1010570D01*
X687622Y1012427D01*
X688241Y1013046D01*
X689479Y1013665D01*
X690716D01*
X691954Y1013046D01*
X692573Y1012427D01*
X693192Y1010570D01*
Y1005000D01*
Y1009332D02*
X700000Y1013665D01*
X689479Y1016574D02*
X688859Y1017812D01*
X687003Y1019668D01*
X700000D01*
X687003Y1027343D02*
Y1034151D01*
X691954Y1030437D01*
Y1032294D01*
X692573Y1033532D01*
X693192Y1034151D01*
X695049Y1034770D01*
X696286D01*
X698143Y1034151D01*
X699381Y1032913D01*
X700000Y1031056D01*
Y1029200D01*
X699381Y1027343D01*
X698762Y1026724D01*
X697524Y1026105D01*
X425000Y727997D02*
Y715000D01*
Y727997D02*
X430570D01*
X432427Y727378D01*
X433046Y726759D01*
X433665Y725521D01*
Y724284D01*
X433046Y723046D01*
X432427Y722427D01*
X430570Y721808D01*
X425000D01*
X429332D02*
X433665Y715000D01*
X436574Y725521D02*
X437812Y726141D01*
X439668Y727997D01*
Y715000D01*
X446724Y724903D02*
Y725521D01*
X447343Y726759D01*
X447962Y727378D01*
X449200Y727997D01*
X451675D01*
X452913Y727378D01*
X453532Y726759D01*
X454151Y725521D01*
Y724284D01*
X453532Y723046D01*
X452294Y721189D01*
X446105Y715000D01*
X454770D01*
X687003Y915000D02*
X700000D01*
X687003D02*
Y920570D01*
X687622Y922427D01*
X688241Y923046D01*
X689479Y923665D01*
X690716D01*
X691954Y923046D01*
X692573Y922427D01*
X693192Y920570D01*
Y915000D01*
Y919332D02*
X700000Y923665D01*
X689479Y926574D02*
X688859Y927812D01*
X687003Y929668D01*
X700000D01*
X689479Y936105D02*
X688859Y937343D01*
X687003Y939200D01*
X700000D01*
X643003Y1006000D02*
X656000D01*
X643003D02*
Y1011570D01*
X643622Y1013427D01*
X644241Y1014046D01*
X645479Y1014665D01*
X646716D01*
X647954Y1014046D01*
X648573Y1013427D01*
X649192Y1011570D01*
Y1006000D01*
Y1010332D02*
X656000Y1014665D01*
X645479Y1017574D02*
X644859Y1018811D01*
X643003Y1020668D01*
X656000D01*
X643003Y1030818D02*
X643622Y1028962D01*
X645479Y1027724D01*
X648573Y1027105D01*
X650430D01*
X653524Y1027724D01*
X655381Y1028962D01*
X656000Y1030818D01*
Y1032056D01*
X655381Y1033913D01*
X653524Y1035151D01*
X650430Y1035770D01*
X648573D01*
X645479Y1035151D01*
X643622Y1033913D01*
X643003Y1032056D01*
Y1030818D01*
X777003Y915000D02*
X790000D01*
X777003D02*
Y920570D01*
X777622Y922427D01*
X778241Y923046D01*
X779479Y923665D01*
X780716D01*
X781954Y923046D01*
X782573Y922427D01*
X783192Y920570D01*
Y915000D01*
Y919332D02*
X790000Y923665D01*
X781335Y934620D02*
X783192Y934001D01*
X784430Y932763D01*
X785049Y930906D01*
Y930287D01*
X784430Y928430D01*
X783192Y927193D01*
X781335Y926574D01*
X780716D01*
X778859Y927193D01*
X777622Y928430D01*
X777003Y930287D01*
Y930906D01*
X777622Y932763D01*
X778859Y934001D01*
X781335Y934620D01*
X784430D01*
X787524Y934001D01*
X789381Y932763D01*
X790000Y930906D01*
Y929668D01*
X789381Y927812D01*
X788143Y927193D01*
X350000Y572997D02*
Y560000D01*
Y572997D02*
X355570D01*
X357427Y572378D01*
X358046Y571759D01*
X358665Y570522D01*
Y569284D01*
X358046Y568046D01*
X357427Y567427D01*
X355570Y566808D01*
X350000D01*
X354332D02*
X358665Y560000D01*
X364668Y572997D02*
X362812Y572378D01*
X362193Y571141D01*
Y569903D01*
X362812Y568665D01*
X364049Y568046D01*
X366525Y567427D01*
X368382Y566808D01*
X369620Y565570D01*
X370238Y564332D01*
Y562476D01*
X369620Y561238D01*
X369001Y560619D01*
X367144Y560000D01*
X364668D01*
X362812Y560619D01*
X362193Y561238D01*
X361574Y562476D01*
Y564332D01*
X362193Y565570D01*
X363430Y566808D01*
X365287Y567427D01*
X367763Y568046D01*
X369001Y568665D01*
X369620Y569903D01*
Y571141D01*
X369001Y572378D01*
X367144Y572997D01*
X364668D01*
X350000Y622997D02*
Y610000D01*
Y622997D02*
X355570D01*
X357427Y622378D01*
X358046Y621759D01*
X358665Y620522D01*
Y619284D01*
X358046Y618046D01*
X357427Y617427D01*
X355570Y616808D01*
X350000D01*
X354332D02*
X358665Y610000D01*
X370238Y622997D02*
X364049Y610000D01*
X361574Y622997D02*
X370238D01*
X350000Y672997D02*
Y660000D01*
Y672997D02*
X355570D01*
X357427Y672378D01*
X358046Y671759D01*
X358665Y670521D01*
Y669284D01*
X358046Y668046D01*
X357427Y667427D01*
X355570Y666808D01*
X350000D01*
X354332D02*
X358665Y660000D01*
X369001Y671141D02*
X368382Y672378D01*
X366525Y672997D01*
X365287D01*
X363430Y672378D01*
X362193Y670521D01*
X361574Y667427D01*
Y664332D01*
X362193Y661857D01*
X363430Y660619D01*
X365287Y660000D01*
X365906D01*
X367763Y660619D01*
X369001Y661857D01*
X369620Y663714D01*
Y664332D01*
X369001Y666189D01*
X367763Y667427D01*
X365906Y668046D01*
X365287D01*
X363430Y667427D01*
X362193Y666189D01*
X361574Y664332D01*
X350000Y722997D02*
Y710000D01*
Y722997D02*
X355570D01*
X357427Y722378D01*
X358046Y721759D01*
X358665Y720521D01*
Y719284D01*
X358046Y718046D01*
X357427Y717427D01*
X355570Y716808D01*
X350000D01*
X354332D02*
X358665Y710000D01*
X369001Y722997D02*
X362812D01*
X362193Y717427D01*
X362812Y718046D01*
X364668Y718665D01*
X366525D01*
X368382Y718046D01*
X369620Y716808D01*
X370238Y714951D01*
Y713714D01*
X369620Y711857D01*
X368382Y710619D01*
X366525Y710000D01*
X364668D01*
X362812Y710619D01*
X362193Y711238D01*
X361574Y712476D01*
X350000Y772997D02*
Y760000D01*
Y772997D02*
X355570D01*
X357427Y772378D01*
X358046Y771759D01*
X358665Y770521D01*
Y769284D01*
X358046Y768046D01*
X357427Y767427D01*
X355570Y766808D01*
X350000D01*
X354332D02*
X358665Y760000D01*
X367763Y772997D02*
X361574Y764332D01*
X370857D01*
X367763Y772997D02*
Y760000D01*
X350000Y822997D02*
Y810000D01*
Y822997D02*
X355570D01*
X357427Y822378D01*
X358046Y821759D01*
X358665Y820521D01*
Y819284D01*
X358046Y818046D01*
X357427Y817427D01*
X355570Y816808D01*
X350000D01*
X354332D02*
X358665Y810000D01*
X362812Y822997D02*
X369620D01*
X365906Y818046D01*
X367763D01*
X369001Y817427D01*
X369620Y816808D01*
X370238Y814951D01*
Y813714D01*
X369620Y811857D01*
X368382Y810619D01*
X366525Y810000D01*
X364668D01*
X362812Y810619D01*
X362193Y811238D01*
X361574Y812476D01*
X350000Y872997D02*
Y860000D01*
Y872997D02*
X355570D01*
X357427Y872378D01*
X358046Y871759D01*
X358665Y870522D01*
Y869284D01*
X358046Y868046D01*
X357427Y867427D01*
X355570Y866808D01*
X350000D01*
X354332D02*
X358665Y860000D01*
X362193Y869903D02*
Y870522D01*
X362812Y871759D01*
X363430Y872378D01*
X364668Y872997D01*
X367144D01*
X368382Y872378D01*
X369001Y871759D01*
X369620Y870522D01*
Y869284D01*
X369001Y868046D01*
X367763Y866189D01*
X361574Y860000D01*
X370238D01*
X350000Y922997D02*
Y910000D01*
Y922997D02*
X355570D01*
X357427Y922378D01*
X358046Y921759D01*
X358665Y920522D01*
Y919284D01*
X358046Y918046D01*
X357427Y917427D01*
X355570Y916808D01*
X350000D01*
X354332D02*
X358665Y910000D01*
X361574Y920522D02*
X362812Y921141D01*
X364668Y922997D01*
Y910000D01*
X322997Y560000D02*
X310000D01*
X322997Y551335D02*
X310000D01*
X316808Y560000D02*
Y551335D01*
X322997Y547746D02*
X310000D01*
Y540318D01*
X322997Y535800D02*
X322378Y537657D01*
X321141Y538276D01*
X319903D01*
X318665Y537657D01*
X318046Y536419D01*
X317427Y533944D01*
X316808Y532087D01*
X315570Y530849D01*
X314332Y530230D01*
X312476D01*
X311238Y530849D01*
X310619Y531468D01*
X310000Y533325D01*
Y535800D01*
X310619Y537657D01*
X311238Y538276D01*
X312476Y538895D01*
X314332D01*
X315570Y538276D01*
X316808Y537038D01*
X317427Y535182D01*
X318046Y532706D01*
X318665Y531468D01*
X319903Y530849D01*
X321141D01*
X322378Y531468D01*
X322997Y533325D01*
Y535800D01*
Y605000D02*
X310000D01*
X322997Y596335D02*
X310000D01*
X316808Y605000D02*
Y596335D01*
X322997Y592746D02*
X310000D01*
Y585318D01*
X322997Y575230D02*
X310000Y581419D01*
X322997Y583895D02*
Y575230D01*
Y650000D02*
X310000D01*
X322997Y641335D02*
X310000D01*
X316808Y650000D02*
Y641335D01*
X322997Y637746D02*
X310000D01*
Y630318D01*
X321141Y621468D02*
X322378Y622087D01*
X322997Y623944D01*
Y625182D01*
X322378Y627038D01*
X320522Y628276D01*
X317427Y628895D01*
X314332D01*
X311857Y628276D01*
X310619Y627038D01*
X310000Y625182D01*
Y624563D01*
X310619Y622706D01*
X311857Y621468D01*
X313713Y620849D01*
X314332D01*
X316189Y621468D01*
X317427Y622706D01*
X318046Y624563D01*
Y625182D01*
X317427Y627038D01*
X316189Y628276D01*
X314332Y628895D01*
X322997Y695000D02*
X310000D01*
X322997Y686335D02*
X310000D01*
X316808Y695000D02*
Y686335D01*
X322997Y682746D02*
X310000D01*
Y675319D01*
X322997Y666468D02*
Y672657D01*
X317427Y673276D01*
X318046Y672657D01*
X318665Y670800D01*
Y668944D01*
X318046Y667087D01*
X316808Y665849D01*
X314951Y665230D01*
X313713D01*
X311857Y665849D01*
X310619Y667087D01*
X310000Y668944D01*
Y670800D01*
X310619Y672657D01*
X311238Y673276D01*
X312476Y673895D01*
X322997Y740000D02*
X310000D01*
X322997Y731335D02*
X310000D01*
X316808Y740000D02*
Y731335D01*
X322997Y727746D02*
X310000D01*
Y720319D01*
X322997Y712706D02*
X314332Y718895D01*
Y709611D01*
X322997Y712706D02*
X310000D01*
X322997Y785000D02*
X310000D01*
X322997Y776335D02*
X310000D01*
X316808Y785000D02*
Y776335D01*
X322997Y772746D02*
X310000D01*
Y765319D01*
X322997Y762657D02*
Y755849D01*
X318046Y759563D01*
Y757706D01*
X317427Y756468D01*
X316808Y755849D01*
X314951Y755230D01*
X313713D01*
X311857Y755849D01*
X310619Y757087D01*
X310000Y758944D01*
Y760800D01*
X310619Y762657D01*
X311238Y763276D01*
X312476Y763895D01*
X322997Y831324D02*
X310000D01*
X322997Y822660D02*
X310000D01*
X316808Y831324D02*
Y822660D01*
X322997Y819070D02*
X310000D01*
Y811643D01*
X319903Y809600D02*
X320522D01*
X321759Y808981D01*
X322378Y808363D01*
X322997Y807125D01*
Y804649D01*
X322378Y803411D01*
X321759Y802792D01*
X320522Y802173D01*
X319284D01*
X318046Y802792D01*
X316189Y804030D01*
X310000Y810219D01*
Y801554D01*
X322997Y875000D02*
X310000D01*
X322997Y866335D02*
X310000D01*
X316808Y875000D02*
Y866335D01*
X322997Y862746D02*
X310000D01*
Y855319D01*
X320522Y853895D02*
X321141Y852657D01*
X322997Y850800D01*
X310000D01*
X467003Y1085000D02*
X480000D01*
X467003Y1093665D02*
X480000D01*
X473192Y1085000D02*
Y1093665D01*
X470097Y1106538D02*
X468859Y1105919D01*
X467622Y1104681D01*
X467003Y1103444D01*
Y1100968D01*
X467622Y1099730D01*
X468859Y1098492D01*
X470097Y1097873D01*
X471954Y1097254D01*
X475049D01*
X476905Y1097873D01*
X478143Y1098492D01*
X479381Y1099730D01*
X480000Y1100968D01*
Y1103444D01*
X479381Y1104681D01*
X478143Y1105919D01*
X476905Y1106538D01*
X475049D01*
Y1103444D02*
Y1106538D01*
X469478Y1109509D02*
X468859Y1110747D01*
X467003Y1112604D01*
X480000D01*
X535000Y1067997D02*
Y1055000D01*
Y1067997D02*
X539332D01*
X541189Y1067378D01*
X542427Y1066141D01*
X543046Y1064903D01*
X543665Y1063046D01*
Y1059951D01*
X543046Y1058095D01*
X542427Y1056857D01*
X541189Y1055619D01*
X539332Y1055000D01*
X535000D01*
X546574Y1067997D02*
Y1055000D01*
Y1067997D02*
X550906D01*
X552763Y1067378D01*
X554001Y1066141D01*
X554620Y1064903D01*
X555238Y1063046D01*
Y1059951D01*
X554620Y1058095D01*
X554001Y1056857D01*
X552763Y1055619D01*
X550906Y1055000D01*
X546574D01*
X558766Y1064903D02*
Y1065521D01*
X559385Y1066759D01*
X560004Y1067378D01*
X561242Y1067997D01*
X563718D01*
X564955Y1067378D01*
X565574Y1066759D01*
X566193Y1065521D01*
Y1064284D01*
X565574Y1063046D01*
X564337Y1061189D01*
X558147Y1055000D01*
X566812D01*
X419442Y1061618D02*
Y1048621D01*
Y1061618D02*
X423775D01*
X425631Y1060999D01*
X426869Y1059761D01*
X427488Y1058523D01*
X428107Y1056666D01*
Y1053572D01*
X427488Y1051715D01*
X426869Y1050477D01*
X425631Y1049240D01*
X423775Y1048621D01*
X419442D01*
X431016Y1061618D02*
Y1048621D01*
Y1061618D02*
X435348D01*
X437205Y1060999D01*
X438443Y1059761D01*
X439062Y1058523D01*
X439681Y1056666D01*
Y1053572D01*
X439062Y1051715D01*
X438443Y1050477D01*
X437205Y1049240D01*
X435348Y1048621D01*
X431016D01*
X442590Y1059142D02*
X443827Y1059761D01*
X445684Y1061618D01*
Y1048621D01*
X720097Y844284D02*
X718859Y843665D01*
X717622Y842427D01*
X717003Y841189D01*
Y838714D01*
X717622Y837476D01*
X718859Y836238D01*
X720097Y835619D01*
X721954Y835000D01*
X725049D01*
X726905Y835619D01*
X728143Y836238D01*
X729381Y837476D01*
X730000Y838714D01*
Y841189D01*
X729381Y842427D01*
X728143Y843665D01*
X726905Y844284D01*
X721335Y855981D02*
X723192Y855362D01*
X724430Y854125D01*
X725049Y852268D01*
Y851649D01*
X724430Y849792D01*
X723192Y848554D01*
X721335Y847935D01*
X720716D01*
X718859Y848554D01*
X717622Y849792D01*
X717003Y851649D01*
Y852268D01*
X717622Y854125D01*
X718859Y855362D01*
X721335Y855981D01*
X724430D01*
X727524Y855362D01*
X729381Y854125D01*
X730000Y852268D01*
Y851030D01*
X729381Y849173D01*
X728143Y848554D01*
X394903Y1005716D02*
X396141Y1006335D01*
X397378Y1007573D01*
X397997Y1008811D01*
Y1011286D01*
X397378Y1012524D01*
X396141Y1013762D01*
X394903Y1014381D01*
X393046Y1015000D01*
X389951D01*
X388095Y1014381D01*
X386857Y1013762D01*
X385619Y1012524D01*
X385000Y1011286D01*
Y1008811D01*
X385619Y1007573D01*
X386857Y1006335D01*
X388095Y1005716D01*
X397997Y998970D02*
X397378Y1000827D01*
X396141Y1001446D01*
X394903D01*
X393665Y1000827D01*
X393046Y999589D01*
X392427Y997113D01*
X391808Y995257D01*
X390570Y994019D01*
X389332Y993400D01*
X387476D01*
X386238Y994019D01*
X385619Y994638D01*
X385000Y996494D01*
Y998970D01*
X385619Y1000827D01*
X386238Y1001446D01*
X387476Y1002065D01*
X389332D01*
X390570Y1001446D01*
X391808Y1000208D01*
X392427Y998351D01*
X393046Y995875D01*
X393665Y994638D01*
X394903Y994019D01*
X396141D01*
X397378Y994638D01*
X397997Y996494D01*
Y998970D01*
X349903Y1005716D02*
X351141Y1006335D01*
X352378Y1007573D01*
X352997Y1008811D01*
Y1011286D01*
X352378Y1012524D01*
X351141Y1013762D01*
X349903Y1014381D01*
X348046Y1015000D01*
X344951D01*
X343095Y1014381D01*
X341857Y1013762D01*
X340619Y1012524D01*
X340000Y1011286D01*
Y1008811D01*
X340619Y1007573D01*
X341857Y1006335D01*
X343095Y1005716D01*
X352997Y993400D02*
X340000Y999589D01*
X352997Y1002065D02*
Y993400D01*
X720097Y759284D02*
X718859Y758665D01*
X717622Y757427D01*
X717003Y756189D01*
Y753714D01*
X717622Y752476D01*
X718859Y751238D01*
X720097Y750619D01*
X721954Y750000D01*
X725049D01*
X726905Y750619D01*
X728143Y751238D01*
X729381Y752476D01*
X730000Y753714D01*
Y756189D01*
X729381Y757427D01*
X728143Y758665D01*
X726905Y759284D01*
X718859Y770362D02*
X717622Y769743D01*
X717003Y767887D01*
Y766649D01*
X717622Y764792D01*
X719478Y763554D01*
X722573Y762935D01*
X725668D01*
X728143Y763554D01*
X729381Y764792D01*
X730000Y766649D01*
Y767268D01*
X729381Y769125D01*
X728143Y770362D01*
X726286Y770981D01*
X725668D01*
X723811Y770362D01*
X722573Y769125D01*
X721954Y767268D01*
Y766649D01*
X722573Y764792D01*
X723811Y763554D01*
X725668Y762935D01*
X720097Y669284D02*
X718859Y668665D01*
X717622Y667427D01*
X717003Y666189D01*
Y663714D01*
X717622Y662476D01*
X718859Y661238D01*
X720097Y660619D01*
X721954Y660000D01*
X725049D01*
X726905Y660619D01*
X728143Y661238D01*
X729381Y662476D01*
X730000Y663714D01*
Y666189D01*
X729381Y667427D01*
X728143Y668665D01*
X726905Y669284D01*
X717003Y680362D02*
Y674173D01*
X722573Y673554D01*
X721954Y674173D01*
X721335Y676030D01*
Y677887D01*
X721954Y679743D01*
X723192Y680981D01*
X725049Y681600D01*
X726286D01*
X728143Y680981D01*
X729381Y679743D01*
X730000Y677887D01*
Y676030D01*
X729381Y674173D01*
X728762Y673554D01*
X727524Y672935D01*
X720097Y579284D02*
X718859Y578665D01*
X717622Y577427D01*
X717003Y576189D01*
Y573713D01*
X717622Y572476D01*
X718859Y571238D01*
X720097Y570619D01*
X721954Y570000D01*
X725049D01*
X726905Y570619D01*
X728143Y571238D01*
X729381Y572476D01*
X730000Y573713D01*
Y576189D01*
X729381Y577427D01*
X728143Y578665D01*
X726905Y579284D01*
X717003Y589124D02*
X725668Y582935D01*
Y592219D01*
X717003Y589124D02*
X730000D01*
X684903Y835716D02*
X686141Y836335D01*
X687378Y837573D01*
X687997Y838811D01*
Y841286D01*
X687378Y842524D01*
X686141Y843762D01*
X684903Y844381D01*
X683046Y845000D01*
X679951D01*
X678095Y844381D01*
X676857Y843762D01*
X675619Y842524D01*
X675000Y841286D01*
Y838811D01*
X675619Y837573D01*
X676857Y836335D01*
X678095Y835716D01*
X687997Y830827D02*
Y824019D01*
X683046Y827732D01*
Y825875D01*
X682427Y824638D01*
X681808Y824019D01*
X679951Y823400D01*
X678714D01*
X676857Y824019D01*
X675619Y825257D01*
X675000Y827113D01*
Y828970D01*
X675619Y830827D01*
X676238Y831446D01*
X677476Y832065D01*
X684903Y755716D02*
X686141Y756335D01*
X687378Y757573D01*
X687997Y758811D01*
Y761286D01*
X687378Y762524D01*
X686141Y763762D01*
X684903Y764381D01*
X683046Y765000D01*
X679951D01*
X678095Y764381D01*
X676857Y763762D01*
X675619Y762524D01*
X675000Y761286D01*
Y758811D01*
X675619Y757573D01*
X676857Y756335D01*
X678095Y755716D01*
X684903Y751446D02*
X685521D01*
X686759Y750827D01*
X687378Y750208D01*
X687997Y748970D01*
Y746494D01*
X687378Y745257D01*
X686759Y744638D01*
X685521Y744019D01*
X684284D01*
X683046Y744638D01*
X681189Y745875D01*
X675000Y752065D01*
Y743400D01*
X445554Y818633D02*
X444935Y819870D01*
X443697Y821108D01*
X442459Y821727D01*
X439983D01*
X438746Y821108D01*
X437508Y819870D01*
X436889Y818633D01*
X436270Y816776D01*
Y813681D01*
X436889Y811824D01*
X437508Y810587D01*
X438746Y809349D01*
X439983Y808730D01*
X442459D01*
X443697Y809349D01*
X444935Y810587D01*
X445554Y811824D01*
X449205Y819251D02*
X450443Y819870D01*
X452300Y821727D01*
Y808730D01*
X305000Y517997D02*
Y505000D01*
Y517997D02*
X310570D01*
X312427Y517378D01*
X313046Y516759D01*
X313665Y515522D01*
Y514284D01*
X313046Y513046D01*
X312427Y512427D01*
X310570Y511808D01*
X305000D02*
X310570D01*
X312427Y511189D01*
X313046Y510570D01*
X313665Y509332D01*
Y507476D01*
X313046Y506238D01*
X312427Y505619D01*
X310570Y505000D01*
X305000D01*
X326476D02*
X321525Y517997D01*
X316574Y505000D01*
X318431Y509332D02*
X324620D01*
X329509Y515522D02*
X330747Y516141D01*
X332604Y517997D01*
Y505000D01*
D12*
X827500Y580000D02*
G03*
X827500Y580000I-17500J0D01*
G01*
X827500Y670000D02*
G03*
X827500Y670000I-17500J0D01*
G01*
X827500Y845000D02*
G03*
X827500Y845000I-17500J0D01*
G01*
X827500Y760000D02*
G03*
X827500Y760000I-17500J0D01*
G01*
X275000Y850000D02*
G03*
X300785Y849749I12985J9349D01*
G01*
Y870251D02*
G03*
X275000Y870000I-12800J-9600D01*
G01*
Y760000D02*
G03*
X300785Y759749I12985J9349D01*
G01*
Y780251D02*
G03*
X275000Y780000I-12800J-9600D01*
G01*
X275000Y670000D02*
G03*
X300785Y669749I12985J9349D01*
G01*
Y690251D02*
G03*
X275000Y690000I-12800J-9600D01*
G01*
X275000Y580000D02*
G03*
X300785Y579749I12985J9349D01*
G01*
Y600251D02*
G03*
X275000Y600000I-12800J-9600D01*
G01*
Y535000D02*
G03*
X300785Y534749I12985J9349D01*
G01*
Y555251D02*
G03*
X275000Y555000I-12800J-9600D01*
G01*
X275000Y805000D02*
G03*
X300785Y804749I12985J9349D01*
G01*
Y825251D02*
G03*
X275000Y825000I-12800J-9600D01*
G01*
X275000Y715000D02*
G03*
X300785Y714749I12985J9349D01*
G01*
Y735251D02*
G03*
X275000Y735000I-12800J-9600D01*
G01*
Y625000D02*
G03*
X300785Y624749I12985J9349D01*
G01*
Y645251D02*
G03*
X275000Y645000I-12800J-9600D01*
G01*
X378933Y440000D02*
G03*
X378933Y440000I-59933J0D01*
G01*
X432500Y1125000D02*
G03*
X432500Y1125000I-17500J0D01*
G01*
X798570Y609210D02*
X823570D01*
X798570Y550790D02*
X823570D01*
X798570Y699210D02*
X823570D01*
X798570Y640790D02*
X823570D01*
X798570Y874210D02*
X823570D01*
X798570Y815790D02*
X823570D01*
X798570Y789210D02*
X823570D01*
X798570Y730790D02*
X823570D01*
X264000Y852000D02*
Y868000D01*
Y762000D02*
Y778000D01*
Y672000D02*
Y688000D01*
Y582000D02*
Y598000D01*
Y537000D02*
Y553000D01*
Y807000D02*
Y823000D01*
Y717000D02*
Y733000D01*
Y627000D02*
Y643000D01*
X403570Y1095790D02*
X428570D01*
X403570Y1154210D02*
X428570D01*
D13*
X783000Y472000D02*
G03*
X775277Y443114I-13000J-12000D01*
G01*
X796000Y509000D02*
X828000D01*
Y413000D02*
Y509000D01*
X795000Y413000D02*
X828000D01*
X716000Y509000D02*
X748000D01*
X716000Y414000D02*
Y509000D01*
Y414000D02*
X748000D01*
X775765Y443059D02*
X783000Y472000D01*
X485000Y1079600D02*
Y1269600D01*
X861000D01*
Y1079600D02*
Y1269600D01*
X485000Y1079600D02*
X861000D01*
X390000Y1087997D02*
Y1075000D01*
Y1087997D02*
X395570D01*
X397427Y1087378D01*
X398046Y1086759D01*
X398665Y1085522D01*
Y1084284D01*
X398046Y1083046D01*
X397427Y1082427D01*
X395570Y1081808D01*
X390000D01*
X394332D02*
X398665Y1075000D01*
X409620Y1087997D02*
X401574D01*
Y1075000D01*
X409620D01*
X401574Y1081808D02*
X406525D01*
X420451Y1086141D02*
X419213Y1087378D01*
X417356Y1087997D01*
X414880D01*
X413024Y1087378D01*
X411786Y1086141D01*
Y1084903D01*
X412405Y1083665D01*
X413024Y1083046D01*
X414262Y1082427D01*
X417975Y1081189D01*
X419213Y1080570D01*
X419832Y1079951D01*
X420451Y1078714D01*
Y1076857D01*
X419213Y1075619D01*
X417356Y1075000D01*
X414880D01*
X413024Y1075619D01*
X411786Y1076857D01*
X431405Y1087997D02*
X423359D01*
Y1075000D01*
X431405D01*
X423359Y1081808D02*
X428311D01*
X437904Y1087997D02*
Y1075000D01*
X433572Y1087997D02*
X442236D01*
D14*
X548857Y518660D02*
X549111D01*
X549365D02*
X555715D01*
X547079Y518406D02*
X557747D01*
X558001D02*
X558255D01*
X545301Y518152D02*
X559779D01*
X544031Y517898D02*
X560795D01*
X542761Y517644D02*
X561811D01*
X541745Y517390D02*
X563081D01*
X540983Y517136D02*
X564097D01*
X539967Y516882D02*
X548857D01*
X555969D02*
X564859D01*
X538951Y516628D02*
X539205D01*
X539459D02*
X546571D01*
X558001D02*
X558255D01*
X558509D02*
X565621D01*
X538443Y516374D02*
X545047D01*
X559271D02*
X559525D01*
X559779D02*
X566383D01*
X537681Y516120D02*
X543777D01*
X561049D02*
X567145D01*
X537173Y515866D02*
X542761D01*
X561811D02*
X562065D01*
X562319D02*
X567653D01*
X536411Y515612D02*
X541745D01*
X562827D02*
X563081D01*
X563335D02*
X568415D01*
X535903Y515358D02*
X540983D01*
X563843D02*
X568923D01*
X535395Y515104D02*
X540221D01*
X564605D02*
X569431D01*
X534887Y514850D02*
X539205D01*
X565367D02*
X569939D01*
X534125Y514596D02*
X538697D01*
X566129D02*
X570701D01*
X533617Y514342D02*
X537935D01*
X566891D02*
X570955D01*
X533109Y514088D02*
X537427D01*
X567399D02*
X571717D01*
X532601Y513834D02*
X536665D01*
X568161D02*
X572225D01*
X532093Y513580D02*
X532347D01*
X532601D02*
X536157D01*
X568669D02*
X572479D01*
X531839Y513326D02*
X535649D01*
X569177D02*
X572987D01*
X531331Y513072D02*
X535141D01*
X569685D02*
X573495D01*
X531077Y512818D02*
X534379D01*
X570193D02*
X573749D01*
X530569Y512564D02*
X534125D01*
X570701D02*
X574257D01*
X530061Y512310D02*
X533617D01*
X571209D02*
X574765D01*
X529807Y512056D02*
X533109D01*
X571717D02*
X575019D01*
X529299Y511802D02*
X532855D01*
X571971D02*
X575527D01*
X529045Y511548D02*
X532347D01*
X572479D02*
X575781D01*
X528537Y511294D02*
X531839D01*
X572987D02*
X576289D01*
X528283Y511040D02*
X531331D01*
X573495D02*
X576543D01*
X527775Y510786D02*
X531077D01*
X573749D02*
X576797D01*
X527775Y510532D02*
X530569D01*
X574257D02*
X577305D01*
X527267Y510278D02*
X530061D01*
X574511D02*
X577559D01*
X526759Y510024D02*
X529807D01*
X575019D02*
X578067D01*
X526505Y509770D02*
X529553D01*
X543523D02*
X545301D01*
X559525D02*
X561303D01*
X575273D02*
X578321D01*
X526251Y509516D02*
X529045D01*
X542253D02*
X545301D01*
X559525D02*
X562319D01*
X575781D02*
X578575D01*
X525743Y509262D02*
X528791D01*
X541237D02*
X545301D01*
X559525D02*
X563335D01*
X576035D02*
X578829D01*
X525489Y509008D02*
X528283D01*
X540729D02*
X545301D01*
X559525D02*
X563843D01*
X576289D02*
X579083D01*
X525489Y508754D02*
X528283D01*
X540221D02*
X545301D01*
X559525D02*
X564605D01*
X576797D02*
X579337D01*
X524981Y508500D02*
X527775D01*
X539713D02*
X545301D01*
X559525D02*
X565113D01*
X577051D02*
X579845D01*
X524727Y508246D02*
X527521D01*
X539205D02*
X543523D01*
X561049D02*
X565367D01*
X577305D02*
X580099D01*
X524473Y507992D02*
X527013D01*
X538697D02*
X542507D01*
X562319D02*
X565875D01*
X577813D02*
X580353D01*
X524219Y507738D02*
X526759D01*
X538697D02*
X541745D01*
X563081D02*
X566383D01*
X578067D02*
X580607D01*
X523965Y507484D02*
X526505D01*
X537935D02*
X541237D01*
X563335D02*
X566637D01*
X578321D02*
X580861D01*
X523711Y507230D02*
X526251D01*
X537681D02*
X540729D01*
X564097D02*
X566891D01*
X578575D02*
X581115D01*
X523457Y506976D02*
X525997D01*
X537427D02*
X539967D01*
X564605D02*
X567145D01*
X578829D02*
X581369D01*
X523203Y506722D02*
X525743D01*
X537173D02*
X539713D01*
X564859D02*
X567399D01*
X579083D02*
X581623D01*
X522949Y506468D02*
X525235D01*
X536919D02*
X539205D01*
X565367D02*
X567653D01*
X579337D02*
X581877D01*
X522695Y506214D02*
X525235D01*
X536665D02*
X538951D01*
X565621D02*
X567907D01*
X579591D02*
X582131D01*
X522441Y505960D02*
X524727D01*
X536665D02*
X538697D01*
X545301D02*
X545809D01*
X546063D02*
X546825D01*
X558001D02*
X559271D01*
X566129D02*
X568161D01*
X579845D02*
X582385D01*
X522187Y505706D02*
X524727D01*
X536157D02*
X538443D01*
X544539D02*
X546825D01*
X558001D02*
X560287D01*
X566383D02*
X568415D01*
X580099D02*
X582639D01*
X521933Y505452D02*
X524473D01*
X535903D02*
X538189D01*
X543523D02*
X546825D01*
X558001D02*
X561049D01*
X566383D02*
X568669D01*
X580353D02*
X582893D01*
X521679Y505198D02*
X524219D01*
X535903D02*
X537935D01*
X543015D02*
X546571D01*
X558001D02*
X561557D01*
X566891D02*
X568923D01*
X580861D02*
X583147D01*
X521425Y504944D02*
X523711D01*
X535649D02*
X537681D01*
X542507D02*
X546825D01*
X558001D02*
X562065D01*
X566891D02*
X568923D01*
X580861D02*
X583401D01*
X521171Y504690D02*
X523711D01*
X535395D02*
X537173D01*
X542253D02*
X546825D01*
X558001D02*
X562573D01*
X567145D02*
X569177D01*
X581115D02*
X583655D01*
X520917Y504436D02*
X523203D01*
X535395D02*
X537173D01*
X541999D02*
X545301D01*
X559525D02*
X562827D01*
X567399D02*
X569431D01*
X581369D02*
X583909D01*
X520663Y504182D02*
X523203D01*
X535141D02*
X536919D01*
X541491D02*
X544285D01*
X560287D02*
X563081D01*
X567653D02*
X569685D01*
X581623D02*
X583909D01*
X520663Y503928D02*
X522949D01*
X534887D02*
X536919D01*
X541237D02*
X543777D01*
X560795D02*
X563335D01*
X567907D02*
X569685D01*
X581877D02*
X584163D01*
X520409Y503674D02*
X522695D01*
X534887D02*
X536665D01*
X540983D02*
X543269D01*
X561303D02*
X563589D01*
X568161D02*
X569685D01*
X582131D02*
X584417D01*
X520155Y503420D02*
X522441D01*
X534633D02*
X536411D01*
X540729D02*
X543015D01*
X561811D02*
X563843D01*
X568161D02*
X569939D01*
X582385D02*
X584671D01*
X519901Y503166D02*
X522187D01*
X534633D02*
X536411D01*
X540475D02*
X542507D01*
X562065D02*
X564097D01*
X568415D02*
X570193D01*
X582639D02*
X584925D01*
X519647Y502912D02*
X521933D01*
X534379D02*
X536157D01*
X540221D02*
X542507D01*
X562319D02*
X564351D01*
X568415D02*
X570193D01*
X582893D02*
X585179D01*
X519393Y502658D02*
X521933D01*
X534379D02*
X536157D01*
X540221D02*
X541999D01*
X562573D02*
X564605D01*
X568669D02*
X570447D01*
X583147D02*
X585179D01*
X519393Y502404D02*
X521679D01*
X534125D02*
X535903D01*
X539967D02*
X541999D01*
X562827D02*
X564859D01*
X568669D02*
X570447D01*
X583147D02*
X585433D01*
X519139Y502150D02*
X521425D01*
X534125D02*
X535903D01*
X539713D02*
X541491D01*
X563081D02*
X564859D01*
X568923D02*
X570447D01*
X583401D02*
X585687D01*
X518885Y501896D02*
X521171D01*
X534125D02*
X535649D01*
X539713D02*
X541491D01*
X546317D02*
X547841D01*
X556731D02*
X558001D01*
X563335D02*
X565113D01*
X568923D02*
X570701D01*
X583655D02*
X585941D01*
X518885Y501642D02*
X520917D01*
X533871D02*
X535649D01*
X539459D02*
X541237D01*
X545555D02*
X547841D01*
X556731D02*
X559017D01*
X563589D02*
X565113D01*
X569177D02*
X570701D01*
X583909D02*
X585941D01*
X518631Y501388D02*
X520663D01*
X533871D02*
X535395D01*
X539459D02*
X540983D01*
X545555D02*
X547841D01*
X556731D02*
X559271D01*
X563589D02*
X565367D01*
X569177D02*
X570701D01*
X583909D02*
X586195D01*
X518377Y501134D02*
X520663D01*
X533871D02*
X535395D01*
X539205D02*
X540983D01*
X545047D02*
X547841D01*
X556731D02*
X559525D01*
X563843D02*
X565367D01*
X569177D02*
X570955D01*
X584163D02*
X586449D01*
X518123Y500880D02*
X520155D01*
X533871D02*
X535395D01*
X539205D02*
X540729D01*
X544793D02*
X547841D01*
X556731D02*
X559779D01*
X564097D02*
X565621D01*
X569431D02*
X570955D01*
X584417D02*
X586703D01*
X518123Y500626D02*
X520155D01*
X533871D02*
X535395D01*
X538951D02*
X540729D01*
X544539D02*
X547841D01*
X556731D02*
X560033D01*
X564097D02*
X565621D01*
X569431D02*
X570955D01*
X584671D02*
X586703D01*
X517869Y500372D02*
X519901D01*
X533617D02*
X535141D01*
X538951D02*
X540475D01*
X544285D02*
X546825D01*
X558001D02*
X560287D01*
X564097D02*
X565621D01*
X569431D02*
X570955D01*
X584925D02*
X586957D01*
X517615Y500118D02*
X519901D01*
X533617D02*
X535141D01*
X538951D02*
X540475D01*
X544285D02*
X546317D01*
X558255D02*
X560541D01*
X564351D02*
X565875D01*
X569431D02*
X570955D01*
X584925D02*
X587211D01*
X517615Y499864D02*
X519647D01*
X533617D02*
X535141D01*
X538951D02*
X540221D01*
X544031D02*
X546063D01*
X558763D02*
X560541D01*
X564351D02*
X565875D01*
X569685D02*
X571209D01*
X585179D02*
X587211D01*
X517361Y499610D02*
X519393D01*
X533617D02*
X535141D01*
X538697D02*
X540221D01*
X544031D02*
X545809D01*
X559017D02*
X560795D01*
X564605D02*
X565875D01*
X569685D02*
X571209D01*
X585433D02*
X587465D01*
X517361Y499356D02*
X519393D01*
X533617D02*
X535141D01*
X538697D02*
X540221D01*
X543777D02*
X545555D01*
X551143D02*
X553429D01*
X559017D02*
X560795D01*
X564605D02*
X565875D01*
X569685D02*
X571209D01*
X585433D02*
X587719D01*
X517107Y499102D02*
X519139D01*
X533363D02*
X534887D01*
X538697D02*
X540221D01*
X543777D02*
X545555D01*
X550889D02*
X553937D01*
X559271D02*
X560795D01*
X564605D02*
X566129D01*
X569685D02*
X571209D01*
X585687D02*
X587719D01*
X516853Y498848D02*
X518885D01*
X533363D02*
X534887D01*
X538697D02*
X539967D01*
X543777D02*
X545301D01*
X550635D02*
X554191D01*
X559525D02*
X561049D01*
X564605D02*
X566129D01*
X569685D02*
X571209D01*
X585941D02*
X587973D01*
X516599Y498594D02*
X518885D01*
X533363D02*
X534887D01*
X538697D02*
X539967D01*
X543777D02*
X545301D01*
X550381D02*
X554445D01*
X559525D02*
X561049D01*
X564605D02*
X566129D01*
X569685D02*
X571209D01*
X585941D02*
X587973D01*
X516599Y498340D02*
X518631D01*
X533363D02*
X534887D01*
X538697D02*
X539967D01*
X543777D02*
X545301D01*
X550127D02*
X554699D01*
X559525D02*
X561049D01*
X564605D02*
X566129D01*
X569685D02*
X571209D01*
X586195D02*
X588227D01*
X516345Y498086D02*
X518377D01*
X533363D02*
X534887D01*
X538697D02*
X539967D01*
X543777D02*
X545301D01*
X549873D02*
X554699D01*
X559525D02*
X561049D01*
X564605D02*
X566129D01*
X569685D02*
X571209D01*
X586449D02*
X588481D01*
X516345Y497832D02*
X518377D01*
X533363D02*
X534887D01*
X538697D02*
X539967D01*
X543777D02*
X545301D01*
X549873D02*
X554953D01*
X559525D02*
X561049D01*
X564605D02*
X566129D01*
X569685D02*
X571209D01*
X586449D02*
X588481D01*
X516091Y497578D02*
X518123D01*
X533363D02*
X534887D01*
X538697D02*
X539967D01*
X543777D02*
X545301D01*
X549619D02*
X554953D01*
X559525D02*
X561049D01*
X564605D02*
X566129D01*
X569685D02*
X571209D01*
X586703D02*
X588735D01*
X516091Y497324D02*
X518123D01*
X533363D02*
X534887D01*
X538697D02*
X539967D01*
X543777D02*
X545301D01*
X549619D02*
X554953D01*
X559525D02*
X561049D01*
X564605D02*
X566129D01*
X569685D02*
X571209D01*
X586703D02*
X588735D01*
X515837Y497070D02*
X517869D01*
X533363D02*
X534887D01*
X538697D02*
X539967D01*
X543777D02*
X545301D01*
X549619D02*
X554953D01*
X559271D02*
X561049D01*
X564605D02*
X566129D01*
X569685D02*
X571209D01*
X586957D02*
X588989D01*
X515837Y496816D02*
X517615D01*
X533617D02*
X535141D01*
X538697D02*
X540221D01*
X543777D02*
X545555D01*
X549619D02*
X554953D01*
X559271D02*
X560795D01*
X564605D02*
X565875D01*
X569685D02*
X571209D01*
X587211D02*
X588989D01*
X515583Y496562D02*
X517615D01*
X533617D02*
X535141D01*
X538697D02*
X540221D01*
X543777D02*
X545555D01*
X549619D02*
X554953D01*
X559017D02*
X560795D01*
X564605D02*
X565875D01*
X569685D02*
X571209D01*
X587211D02*
X589243D01*
X515329Y496308D02*
X517361D01*
X533617D02*
X535141D01*
X538697D02*
X540221D01*
X544031D02*
X545809D01*
X549619D02*
X554953D01*
X559017D02*
X560795D01*
X564605D02*
X565875D01*
X569685D02*
X571209D01*
X587465D02*
X589243D01*
X515329Y496054D02*
X517361D01*
X533617D02*
X535141D01*
X538697D02*
X540221D01*
X544031D02*
X546063D01*
X549873D02*
X554953D01*
X558509D02*
X560541D01*
X564351D02*
X565875D01*
X569685D02*
X571209D01*
X587465D02*
X589497D01*
X515075Y495800D02*
X517107D01*
X533617D02*
X535141D01*
X538951D02*
X540475D01*
X544285D02*
X546317D01*
X549873D02*
X554699D01*
X558255D02*
X560541D01*
X564351D02*
X565875D01*
X569431D02*
X571209D01*
X587719D02*
X589497D01*
X515075Y495546D02*
X517107D01*
X533617D02*
X535141D01*
X538951D02*
X540475D01*
X544539D02*
X546825D01*
X550127D02*
X554699D01*
X558001D02*
X560287D01*
X564351D02*
X565875D01*
X569431D02*
X570955D01*
X587719D02*
X589751D01*
X515075Y495292D02*
X516853D01*
X533617D02*
X535395D01*
X538951D02*
X540475D01*
X544539D02*
X547841D01*
X550127D02*
X554445D01*
X556731D02*
X560033D01*
X564097D02*
X565621D01*
X569431D02*
X570955D01*
X587973D02*
X589751D01*
X514821Y495038D02*
X516853D01*
X533871D02*
X535395D01*
X539205D02*
X540729D01*
X544793D02*
X547841D01*
X550381D02*
X554191D01*
X556731D02*
X559779D01*
X564097D02*
X565621D01*
X569431D02*
X570955D01*
X587973D02*
X590005D01*
X514567Y494784D02*
X516599D01*
X533871D02*
X535395D01*
X539205D02*
X540729D01*
X545047D02*
X547841D01*
X550889D02*
X553683D01*
X556731D02*
X559525D01*
X563843D02*
X565621D01*
X569177D02*
X570955D01*
X588227D02*
X590005D01*
X514567Y494530D02*
X516599D01*
X533871D02*
X535649D01*
X539205D02*
X540983D01*
X545301D02*
X547841D01*
X550889D02*
X553683D01*
X556731D02*
X559271D01*
X563843D02*
X565367D01*
X569177D02*
X570701D01*
X588227D02*
X590259D01*
X514567Y494276D02*
X516345D01*
X534125D02*
X535649D01*
X539459D02*
X541237D01*
X545809D02*
X547841D01*
X550889D02*
X553683D01*
X556731D02*
X559017D01*
X563589D02*
X565367D01*
X569177D02*
X570701D01*
X588481D02*
X590259D01*
X514313Y494022D02*
X516345D01*
X534125D02*
X535649D01*
X539459D02*
X541237D01*
X546063D02*
X547841D01*
X550889D02*
X553683D01*
X556731D02*
X558509D01*
X563589D02*
X565113D01*
X568923D02*
X570701D01*
X588481D02*
X590513D01*
X514313Y493768D02*
X516091D01*
X534125D02*
X535903D01*
X539713D02*
X541491D01*
X547333D02*
X547841D01*
X550889D02*
X553683D01*
X556731D02*
X557493D01*
X563335D02*
X565113D01*
X568923D02*
X570447D01*
X588735D02*
X590513D01*
X514059Y493514D02*
X516091D01*
X534125D02*
X535903D01*
X539967D02*
X541745D01*
X550889D02*
X553683D01*
X563081D02*
X564859D01*
X568669D02*
X570447D01*
X588735D02*
X590767D01*
X514059Y493260D02*
X515837D01*
X534379D02*
X536157D01*
X539967D02*
X541999D01*
X550889D02*
X553683D01*
X562827D02*
X564605D01*
X568669D02*
X570447D01*
X588735D02*
X590767D01*
X513805Y493006D02*
X515837D01*
X534379D02*
X536157D01*
X540221D02*
X541999D01*
X550889D02*
X553683D01*
X562573D02*
X564605D01*
X568415D02*
X570193D01*
X588989D02*
X590767D01*
X513805Y492752D02*
X515837D01*
X534633D02*
X536411D01*
X540475D02*
X542507D01*
X550889D02*
X553937D01*
X562319D02*
X564351D01*
X568415D02*
X570193D01*
X588989D02*
X591021D01*
X513805Y492498D02*
X515837D01*
X534887D02*
X536665D01*
X540729D02*
X542761D01*
X550889D02*
X553937D01*
X562065D02*
X564097D01*
X568161D02*
X569939D01*
X589243D02*
X591021D01*
X513551Y492244D02*
X515329D01*
X534887D02*
X536665D01*
X540983D02*
X543015D01*
X550889D02*
X553937D01*
X561557D02*
X563843D01*
X567907D02*
X569685D01*
X589243D02*
X591275D01*
X513551Y491990D02*
X515583D01*
X534887D02*
X536919D01*
X541237D02*
X543523D01*
X550889D02*
X553937D01*
X561049D02*
X563589D01*
X567907D02*
X569685D01*
X589497D02*
X591275D01*
X513297Y491736D02*
X515329D01*
X535141D02*
X536919D01*
X541491D02*
X544031D01*
X550635D02*
X553937D01*
X560541D02*
X563335D01*
X567653D02*
X569685D01*
X589497D02*
X591275D01*
X513297Y491482D02*
X515329D01*
X535395D02*
X537173D01*
X541745D02*
X544793D01*
X550635D02*
X553937D01*
X560287D02*
X563081D01*
X567399D02*
X569431D01*
X589497D02*
X591529D01*
X513297Y491228D02*
X515075D01*
X535395D02*
X537427D01*
X541999D02*
X546063D01*
X546317D02*
X546571D01*
X550635D02*
X553937D01*
X559271D02*
X562573D01*
X567145D02*
X569431D01*
X589751D02*
X591529D01*
X513297Y490974D02*
X515075D01*
X535903D02*
X537681D01*
X542507D02*
X546825D01*
X550635D02*
X553937D01*
X558001D02*
X562319D01*
X566891D02*
X569177D01*
X589751D02*
X591783D01*
X513043Y490720D02*
X514821D01*
X535903D02*
X537935D01*
X542761D02*
X546825D01*
X550635D02*
X554191D01*
X558001D02*
X561811D01*
X566637D02*
X568923D01*
X590005D02*
X591783D01*
X513043Y490466D02*
X514821D01*
X536157D02*
X538189D01*
X543269D02*
X546825D01*
X550635D02*
X554191D01*
X558001D02*
X561557D01*
X566637D02*
X568669D01*
X590005D02*
X591783D01*
X512789Y490212D02*
X514567D01*
X536411D02*
X538443D01*
X544031D02*
X546825D01*
X550635D02*
X554191D01*
X558001D02*
X560541D01*
X566129D02*
X568415D01*
X590005D02*
X591783D01*
X512789Y489958D02*
X514567D01*
X536665D02*
X538697D01*
X544793D02*
X546825D01*
X550635D02*
X554191D01*
X558001D02*
X560033D01*
X565875D02*
X568161D01*
X590259D02*
X592037D01*
X512789Y489704D02*
X514567D01*
X536919D02*
X538951D01*
X550381D02*
X554445D01*
X565621D02*
X567907D01*
X590259D02*
X592037D01*
X512535Y489450D02*
X514313D01*
X537173D02*
X539459D01*
X550381D02*
X554445D01*
X565367D02*
X567653D01*
X590259D02*
X592037D01*
X512535Y489196D02*
X514313D01*
X537427D02*
X539967D01*
X550381D02*
X552159D01*
X552413D02*
X554191D01*
X564859D02*
X567399D01*
X590513D02*
X592291D01*
X512535Y488942D02*
X514313D01*
X537681D02*
X540221D01*
X550381D02*
X552159D01*
X552667D02*
X554445D01*
X564351D02*
X567145D01*
X590513D02*
X592291D01*
X512535Y488688D02*
X514313D01*
X537935D02*
X540729D01*
X550127D02*
X552159D01*
X552413D02*
X554445D01*
X563843D02*
X566891D01*
X590513D02*
X592291D01*
X512281Y488434D02*
X514059D01*
X538189D02*
X541491D01*
X550127D02*
X552159D01*
X552667D02*
X554445D01*
X563335D02*
X566383D01*
X590767D02*
X592545D01*
X512281Y488180D02*
X514059D01*
X538443D02*
X541999D01*
X550127D02*
X552159D01*
X552667D02*
X554445D01*
X562827D02*
X566129D01*
X590767D02*
X592545D01*
X512281Y487926D02*
X514059D01*
X538951D02*
X542761D01*
X550127D02*
X551905D01*
X552667D02*
X554699D01*
X561811D02*
X565875D01*
X590767D02*
X592545D01*
X512281Y487672D02*
X514059D01*
X539459D02*
X543777D01*
X544031D02*
X544539D01*
X544793D02*
X545047D01*
X550127D02*
X551905D01*
X552667D02*
X554699D01*
X560287D02*
X565113D01*
X590767D02*
X592545D01*
X512027Y487418D02*
X513805D01*
X539967D02*
X545301D01*
X550127D02*
X551905D01*
X552667D02*
X554699D01*
X559271D02*
X564859D01*
X591021D02*
X592799D01*
X512027Y487164D02*
X513805D01*
X540221D02*
X545301D01*
X550127D02*
X551905D01*
X552921D02*
X554699D01*
X559271D02*
X564351D01*
X591021D02*
X592799D01*
X512027Y486910D02*
X513805D01*
X541237D02*
X545301D01*
X549873D02*
X551651D01*
X552667D02*
X554699D01*
X559271D02*
X563843D01*
X591021D02*
X592799D01*
X511773Y486656D02*
X513551D01*
X541745D02*
X545301D01*
X549873D02*
X551905D01*
X552921D02*
X554953D01*
X559525D02*
X562827D01*
X591021D02*
X592799D01*
X511773Y486402D02*
X513551D01*
X542761D02*
X545301D01*
X549873D02*
X551651D01*
X552921D02*
X554953D01*
X559525D02*
X562065D01*
X591275D02*
X593053D01*
X511773Y486148D02*
X513551D01*
X544031D02*
X545301D01*
X549873D02*
X551651D01*
X552921D02*
X554953D01*
X559525D02*
X560287D01*
X591275D02*
X593053D01*
X511773Y485894D02*
X513551D01*
X549873D02*
X551651D01*
X552921D02*
X554953D01*
X591275D02*
X593053D01*
X511773Y485640D02*
X513297D01*
X549619D02*
X551651D01*
X553175D02*
X554953D01*
X591275D02*
X593053D01*
X511519Y485386D02*
X513297D01*
X549619D02*
X551651D01*
X553175D02*
X554953D01*
X591529D02*
X593307D01*
X511773Y485132D02*
X513297D01*
X549619D02*
X551397D01*
X553175D02*
X555207D01*
X591529D02*
X593307D01*
X511519Y484878D02*
X513297D01*
X549619D02*
X551397D01*
X553175D02*
X555207D01*
X591529D02*
X593307D01*
X511519Y484624D02*
X513297D01*
X549365D02*
X551397D01*
X553429D02*
X555207D01*
X591529D02*
X593307D01*
X511265Y484370D02*
X513297D01*
X549365D02*
X551143D01*
X553429D02*
X555207D01*
X591529D02*
X593307D01*
X511265Y484116D02*
X513043D01*
X549365D02*
X551397D01*
X553429D02*
X555207D01*
X591783D02*
X593307D01*
X511519Y483862D02*
X513043D01*
X549365D02*
X551143D01*
X553429D02*
X555461D01*
X591783D02*
X593561D01*
X511265Y483608D02*
X513043D01*
X549111D02*
X551143D01*
X553429D02*
X555461D01*
X591783D02*
X593561D01*
X511265Y483354D02*
X513043D01*
X549111D02*
X551143D01*
X553429D02*
X555461D01*
X591783D02*
X593561D01*
X511265Y483100D02*
X513043D01*
X549111D02*
X550889D01*
X553683D02*
X555461D01*
X591783D02*
X593561D01*
X511265Y482846D02*
X513043D01*
X549111D02*
X551143D01*
X553683D02*
X555715D01*
X591783D02*
X593561D01*
X511011Y482592D02*
X512789D01*
X549111D02*
X550889D01*
X553683D02*
X555715D01*
X592037D02*
X593561D01*
X511011Y482338D02*
X512789D01*
X548857D02*
X550889D01*
X553683D02*
X555715D01*
X592037D02*
X593815D01*
X511011Y482084D02*
X512789D01*
X548857D02*
X550889D01*
X553937D02*
X555715D01*
X592037D02*
X593815D01*
X511011Y481830D02*
X512789D01*
X548857D02*
X550635D01*
X553937D02*
X555969D01*
X592037D02*
X593815D01*
X511011Y481576D02*
X512789D01*
X548857D02*
X550635D01*
X553937D02*
X555969D01*
X592037D02*
X593815D01*
X511011Y481322D02*
X512789D01*
X548603D02*
X550635D01*
X554191D02*
X555969D01*
X592037D02*
X593815D01*
X511011Y481068D02*
X512789D01*
X548603D02*
X550635D01*
X554191D02*
X555969D01*
X592037D02*
X593815D01*
X511011Y480814D02*
X512789D01*
X548603D02*
X550381D01*
X554191D02*
X556223D01*
X592037D02*
X593815D01*
X511011Y480560D02*
X512789D01*
X548349D02*
X550381D01*
X554191D02*
X556223D01*
X592291D02*
X593815D01*
X511011Y480306D02*
X512535D01*
X548349D02*
X550381D01*
X554191D02*
X556223D01*
X592291D02*
X593815D01*
X511011Y480052D02*
X512535D01*
X548349D02*
X550381D01*
X554445D02*
X556223D01*
X592291D02*
X593815D01*
X511011Y479798D02*
X512535D01*
X548349D02*
X550127D01*
X554445D02*
X556477D01*
X571209D02*
X575781D01*
X578067D02*
X583401D01*
X592291D02*
X594069D01*
X510757Y479544D02*
X512535D01*
X521679D02*
X525743D01*
X528537D02*
X532601D01*
X548349D02*
X550127D01*
X554445D02*
X556477D01*
X571209D02*
X576035D01*
X578067D02*
X583401D01*
X592291D02*
X593815D01*
X510757Y479290D02*
X512535D01*
X521425D02*
X525997D01*
X528283D02*
X532855D01*
X548095D02*
X550127D01*
X554445D02*
X556477D01*
X571209D02*
X576289D01*
X578067D02*
X583401D01*
X592291D02*
X594069D01*
X511011Y479036D02*
X512535D01*
X521171D02*
X526251D01*
X528029D02*
X533109D01*
X548095D02*
X550127D01*
X554699D02*
X556477D01*
X571209D02*
X576543D01*
X578067D02*
X583401D01*
X592291D02*
X593815D01*
X510757Y478782D02*
X512535D01*
X520917D02*
X526251D01*
X527775D02*
X533109D01*
X547841D02*
X549873D01*
X554699D02*
X556731D01*
X571209D02*
X576797D01*
X578067D02*
X583401D01*
X592291D02*
X594069D01*
X510757Y478528D02*
X512535D01*
X520917D02*
X526251D01*
X527775D02*
X533109D01*
X547841D02*
X549873D01*
X554953D02*
X556731D01*
X571209D02*
X576797D01*
X578067D02*
X583401D01*
X592291D02*
X594069D01*
X510757Y478274D02*
X512535D01*
X520917D02*
X526251D01*
X527775D02*
X533109D01*
X547841D02*
X549873D01*
X554699D02*
X556731D01*
X571209D02*
X576797D01*
X578067D02*
X583401D01*
X592291D02*
X594069D01*
X510757Y478020D02*
X512535D01*
X520917D02*
X522695D01*
X524727D02*
X526251D01*
X527775D02*
X529553D01*
X531585D02*
X533109D01*
X547841D02*
X549619D01*
X554953D02*
X556985D01*
X571209D02*
X572987D01*
X575019D02*
X576797D01*
X578067D02*
X579845D01*
X592291D02*
X593815D01*
X510757Y477766D02*
X512535D01*
X520917D02*
X522695D01*
X524727D02*
X526251D01*
X527775D02*
X529553D01*
X531585D02*
X533109D01*
X547587D02*
X549619D01*
X554953D02*
X556985D01*
X571209D02*
X572987D01*
X575019D02*
X576797D01*
X578067D02*
X579845D01*
X592291D02*
X594069D01*
X510757Y477512D02*
X512535D01*
X520917D02*
X522695D01*
X524727D02*
X526251D01*
X527775D02*
X529553D01*
X531585D02*
X533109D01*
X547587D02*
X549619D01*
X555207D02*
X556985D01*
X571209D02*
X572987D01*
X575019D02*
X576797D01*
X578067D02*
X579845D01*
X592291D02*
X594069D01*
X510757Y477258D02*
X512535D01*
X520917D02*
X522695D01*
X524727D02*
X526251D01*
X527775D02*
X529553D01*
X531585D02*
X533109D01*
X547587D02*
X549619D01*
X555207D02*
X556985D01*
X571209D02*
X572987D01*
X575019D02*
X576797D01*
X578067D02*
X579845D01*
X592291D02*
X594069D01*
X510757Y477004D02*
X512535D01*
X520917D02*
X522695D01*
X527775D02*
X529553D01*
X531585D02*
X533109D01*
X547587D02*
X549365D01*
X555207D02*
X557239D01*
X571209D02*
X572987D01*
X575019D02*
X576797D01*
X578067D02*
X579845D01*
X592291D02*
X593815D01*
X510757Y476750D02*
X512535D01*
X520917D02*
X522695D01*
X527775D02*
X529553D01*
X531585D02*
X533109D01*
X547333D02*
X557239D01*
X571209D02*
X572987D01*
X575019D02*
X576797D01*
X578067D02*
X582385D01*
X592291D02*
X594069D01*
X510757Y476496D02*
X512535D01*
X520917D02*
X522695D01*
X527775D02*
X529553D01*
X531585D02*
X533109D01*
X547333D02*
X557239D01*
X571209D02*
X572987D01*
X575019D02*
X576797D01*
X578067D02*
X582639D01*
X592291D02*
X594069D01*
X510757Y476242D02*
X512535D01*
X520917D02*
X522695D01*
X527775D02*
X529553D01*
X531585D02*
X533109D01*
X547333D02*
X557493D01*
X571209D02*
X572987D01*
X575019D02*
X576797D01*
X578067D02*
X582639D01*
X592291D02*
X594069D01*
X510757Y475988D02*
X512535D01*
X520917D02*
X522695D01*
X527775D02*
X529553D01*
X531585D02*
X533109D01*
X547079D02*
X557493D01*
X571209D02*
X572987D01*
X575019D02*
X576797D01*
X578067D02*
X582639D01*
X592291D02*
X594069D01*
X510757Y475734D02*
X512535D01*
X520917D02*
X522695D01*
X527775D02*
X529553D01*
X531585D02*
X533109D01*
X547079D02*
X557493D01*
X571209D02*
X572987D01*
X575019D02*
X576797D01*
X578067D02*
X582639D01*
X592291D02*
X594069D01*
X510757Y475480D02*
X512535D01*
X520917D02*
X522695D01*
X527775D02*
X529553D01*
X531585D02*
X533109D01*
X547079D02*
X557493D01*
X571209D02*
X572987D01*
X575019D02*
X576797D01*
X578067D02*
X582639D01*
X592291D02*
X593815D01*
X510757Y475226D02*
X512535D01*
X520917D02*
X522695D01*
X527775D02*
X529553D01*
X531585D02*
X533109D01*
X546825D02*
X557747D01*
X571209D02*
X572987D01*
X575019D02*
X576797D01*
X578067D02*
X582385D01*
X592291D02*
X594069D01*
X510757Y474972D02*
X512535D01*
X520917D02*
X522695D01*
X527775D02*
X529553D01*
X531585D02*
X533109D01*
X546825D02*
X548857D01*
X555969D02*
X557747D01*
X571209D02*
X572987D01*
X575019D02*
X576797D01*
X578067D02*
X579845D01*
X592291D02*
X593815D01*
X511011Y474718D02*
X512535D01*
X520917D02*
X522695D01*
X524727D02*
X526251D01*
X527775D02*
X529553D01*
X530569D02*
X531077D01*
X531585D02*
X533109D01*
X546825D02*
X548603D01*
X555969D02*
X558001D01*
X571209D02*
X572987D01*
X575019D02*
X576797D01*
X578067D02*
X579845D01*
X592291D02*
X594069D01*
X510757Y474464D02*
X512535D01*
X520917D02*
X522695D01*
X524727D02*
X526505D01*
X527775D02*
X529553D01*
X530315D02*
X531331D01*
X531585D02*
X533109D01*
X546571D02*
X548603D01*
X555969D02*
X558001D01*
X571209D02*
X572987D01*
X575019D02*
X576797D01*
X578067D02*
X579845D01*
X592291D02*
X593815D01*
X510757Y474210D02*
X512535D01*
X520917D02*
X522695D01*
X524727D02*
X526505D01*
X527775D02*
X529553D01*
X530061D02*
X533109D01*
X546317D02*
X548603D01*
X555969D02*
X558001D01*
X571209D02*
X572987D01*
X575019D02*
X576797D01*
X578067D02*
X579845D01*
X592291D02*
X593815D01*
X510757Y473956D02*
X512535D01*
X520917D02*
X522695D01*
X524727D02*
X526251D01*
X527775D02*
X529553D01*
X530061D02*
X533109D01*
X546317D02*
X548349D01*
X556223D02*
X558255D01*
X571209D02*
X572987D01*
X575019D02*
X576797D01*
X578067D02*
X579845D01*
X592291D02*
X593815D01*
X511011Y473702D02*
X512789D01*
X520917D02*
X526505D01*
X527775D02*
X529553D01*
X529807D02*
X533109D01*
X546317D02*
X548349D01*
X556223D02*
X558255D01*
X571209D02*
X576797D01*
X578067D02*
X583401D01*
X592291D02*
X593815D01*
X511011Y473448D02*
X512789D01*
X520917D02*
X526251D01*
X527775D02*
X533109D01*
X546317D02*
X548095D01*
X556223D02*
X558255D01*
X571209D02*
X576797D01*
X578067D02*
X583401D01*
X592037D02*
X593815D01*
X511011Y473194D02*
X512789D01*
X520917D02*
X526251D01*
X527775D02*
X533109D01*
X546063D02*
X548095D01*
X556477D02*
X558509D01*
X571209D02*
X576543D01*
X578067D02*
X583401D01*
X592037D02*
X593561D01*
X511011Y472940D02*
X512789D01*
X521171D02*
X526251D01*
X528029D02*
X533109D01*
X546063D02*
X548095D01*
X556477D02*
X558509D01*
X571209D02*
X576543D01*
X578067D02*
X583401D01*
X592037D02*
X593561D01*
X511011Y472686D02*
X512789D01*
X521171D02*
X525997D01*
X528029D02*
X532855D01*
X545809D02*
X548095D01*
X556477D02*
X558509D01*
X571209D02*
X576289D01*
X578067D02*
X583401D01*
X592037D02*
X593561D01*
X511011Y472432D02*
X512789D01*
X521425D02*
X525743D01*
X528283D02*
X532855D01*
X545809D02*
X547841D01*
X556731D02*
X558763D01*
X571209D02*
X576035D01*
X578067D02*
X583401D01*
X592037D02*
X593561D01*
X511011Y472178D02*
X512789D01*
X522187D02*
X525489D01*
X528791D02*
X533109D01*
X545809D02*
X547841D01*
X556731D02*
X558763D01*
X571209D02*
X575527D01*
X578067D02*
X583401D01*
X592037D02*
X593561D01*
X511011Y471924D02*
X512789D01*
X531585D02*
X533109D01*
X545555D02*
X547587D01*
X556985D02*
X559017D01*
X591783D02*
X593561D01*
X511011Y471670D02*
X512789D01*
X531839D02*
X532855D01*
X545555D02*
X547587D01*
X556985D02*
X559017D01*
X591783D02*
X593561D01*
X511265Y471416D02*
X512789D01*
X532093D02*
X532601D01*
X545555D02*
X547333D01*
X556985D02*
X559017D01*
X591783D02*
X593561D01*
X511265Y471162D02*
X513043D01*
X545301D02*
X547333D01*
X557239D02*
X559271D01*
X591783D02*
X593561D01*
X511265Y470908D02*
X513043D01*
X545301D02*
X547079D01*
X557239D02*
X559271D01*
X591783D02*
X593561D01*
X511265Y470654D02*
X513043D01*
X545047D02*
X547079D01*
X557493D02*
X559271D01*
X591783D02*
X593561D01*
X511265Y470400D02*
X513043D01*
X545047D02*
X547079D01*
X557493D02*
X559525D01*
X591783D02*
X593561D01*
X511265Y470146D02*
X513297D01*
X544793D02*
X546825D01*
X557493D02*
X559525D01*
X591783D02*
X593307D01*
X511519Y469892D02*
X513297D01*
X544793D02*
X546825D01*
X557747D02*
X559779D01*
X591529D02*
X593307D01*
X511519Y469638D02*
X513297D01*
X544539D02*
X546571D01*
X557747D02*
X559779D01*
X591529D02*
X593307D01*
X511519Y469384D02*
X513297D01*
X544539D02*
X546571D01*
X558001D02*
X560033D01*
X591529D02*
X593307D01*
X511519Y469130D02*
X513297D01*
X544285D02*
X546571D01*
X558001D02*
X560033D01*
X591529D02*
X593053D01*
X511519Y468876D02*
X513297D01*
X544285D02*
X546317D01*
X558001D02*
X560287D01*
X591275D02*
X593053D01*
X511773Y468622D02*
X513297D01*
X544031D02*
X546317D01*
X558255D02*
X560287D01*
X591529D02*
X593053D01*
X511773Y468368D02*
X513551D01*
X544031D02*
X546063D01*
X558255D02*
X560541D01*
X591275D02*
X592799D01*
X511773Y468114D02*
X513551D01*
X543777D02*
X546063D01*
X558509D02*
X560541D01*
X591275D02*
X592799D01*
X511773Y467860D02*
X513551D01*
X543777D02*
X545809D01*
X558509D02*
X560795D01*
X591275D02*
X592799D01*
X512027Y467606D02*
X513805D01*
X543777D02*
X545809D01*
X558763D02*
X560795D01*
X591021D02*
X592799D01*
X512027Y467352D02*
X513805D01*
X543523D02*
X545555D01*
X558763D02*
X561049D01*
X591021D02*
X592799D01*
X512027Y467098D02*
X513805D01*
X543269D02*
X545555D01*
X559017D02*
X561049D01*
X591021D02*
X592545D01*
X512027Y466844D02*
X513805D01*
X543269D02*
X557493D01*
X557747D02*
X561303D01*
X591021D02*
X592545D01*
X512027Y466590D02*
X514059D01*
X543015D02*
X561303D01*
X590767D02*
X592545D01*
X512281Y466336D02*
X514059D01*
X543015D02*
X561557D01*
X590767D02*
X592545D01*
X512281Y466082D02*
X514059D01*
X542761D02*
X561557D01*
X590767D02*
X592545D01*
X512281Y465828D02*
X514059D01*
X542761D02*
X561811D01*
X590767D02*
X592545D01*
X512535Y465574D02*
X514313D01*
X542507D02*
X561811D01*
X590513D02*
X592291D01*
X512535Y465320D02*
X514313D01*
X542507D02*
X562065D01*
X590513D02*
X592291D01*
X512535Y465066D02*
X514313D01*
X542253D02*
X544285D01*
X544539D02*
X544793D01*
X545047D02*
X545301D01*
X545555D02*
X545809D01*
X546063D02*
X546317D01*
X546571D02*
X546825D01*
X547079D02*
X547587D01*
X547841D02*
X548095D01*
X548349D02*
X548603D01*
X548857D02*
X549111D01*
X549365D02*
X549619D01*
X549873D02*
X550127D01*
X550381D02*
X550635D01*
X550889D02*
X551143D01*
X551397D02*
X551651D01*
X551905D02*
X552159D01*
X552413D02*
X552667D01*
X552921D02*
X553175D01*
X553429D02*
X553683D01*
X553937D02*
X554191D01*
X554445D02*
X554953D01*
X555207D02*
X555461D01*
X555715D02*
X555969D01*
X556223D02*
X556477D01*
X556731D02*
X556985D01*
X557239D02*
X557747D01*
X558001D02*
X558255D01*
X558509D02*
X558763D01*
X559017D02*
X559271D01*
X559525D02*
X559779D01*
X560033D02*
X562319D01*
X590513D02*
X592291D01*
X512535Y464812D02*
X514567D01*
X541999D02*
X544285D01*
X560287D02*
X562319D01*
X590259D02*
X592291D01*
X512789Y464558D02*
X514567D01*
X541745D02*
X544031D01*
X560287D02*
X562573D01*
X590259D02*
X592037D01*
X512789Y464304D02*
X514567D01*
X541745D02*
X544031D01*
X560541D02*
X562827D01*
X590259D02*
X592037D01*
X512789Y464050D02*
X514821D01*
X541491D02*
X543777D01*
X560541D02*
X562827D01*
X590005D02*
X591783D01*
X513043Y463796D02*
X514821D01*
X541491D02*
X543777D01*
X560795D02*
X563081D01*
X590005D02*
X591783D01*
X513043Y463542D02*
X514821D01*
X541237D02*
X543523D01*
X561049D02*
X563335D01*
X590005D02*
X591783D01*
X513043Y463288D02*
X515075D01*
X540983D02*
X543269D01*
X561049D02*
X563335D01*
X589751D02*
X591783D01*
X513297Y463034D02*
X515075D01*
X540983D02*
X543269D01*
X561303D02*
X563589D01*
X589751D02*
X591529D01*
X513297Y462780D02*
X515329D01*
X540729D02*
X543015D01*
X561557D02*
X563843D01*
X589497D02*
X591529D01*
X513551Y462526D02*
X515329D01*
X540475D02*
X542761D01*
X561811D02*
X564097D01*
X589497D02*
X591275D01*
X513551Y462272D02*
X515329D01*
X540221D02*
X542761D01*
X561811D02*
X564351D01*
X589497D02*
X591275D01*
X513551Y462018D02*
X515583D01*
X540221D02*
X542507D01*
X562065D02*
X564605D01*
X589243D02*
X591275D01*
X513805Y461764D02*
X515583D01*
X539967D02*
X542253D01*
X562319D02*
X564859D01*
X589243D02*
X591021D01*
X513805Y461510D02*
X515837D01*
X539713D02*
X541999D01*
X562573D02*
X564859D01*
X588989D02*
X591021D01*
X513805Y461256D02*
X515837D01*
X539459D02*
X541999D01*
X562573D02*
X565367D01*
X588989D02*
X590767D01*
X514059Y461002D02*
X515837D01*
X539459D02*
X541745D01*
X562827D02*
X565367D01*
X588989D02*
X590767D01*
X514059Y460748D02*
X516091D01*
X539205D02*
X541491D01*
X563081D02*
X565367D01*
X588735D02*
X590767D01*
X514313Y460494D02*
X516091D01*
X539205D02*
X541237D01*
X563335D02*
X565367D01*
X588481D02*
X590513D01*
X514313Y460240D02*
X516345D01*
X539459D02*
X540983D01*
X563589D02*
X565367D01*
X588481D02*
X590513D01*
X514567Y459986D02*
X516345D01*
X539713D02*
X540729D01*
X563843D02*
X565113D01*
X588481D02*
X590259D01*
X514567Y459732D02*
X516599D01*
X539713D02*
X539967D01*
X540221D02*
X540475D01*
X564351D02*
X564605D01*
X588227D02*
X590259D01*
X514821Y459478D02*
X516599D01*
X588227D02*
X590005D01*
X514821Y459224D02*
X516853D01*
X587973D02*
X590005D01*
X514821Y458970D02*
X516853D01*
X587973D02*
X590005D01*
X515075Y458716D02*
X517107D01*
X587719D02*
X589751D01*
X515329Y458462D02*
X517107D01*
X587719D02*
X589497D01*
X515329Y458208D02*
X517361D01*
X587465D02*
X589497D01*
X515329Y457954D02*
X517361D01*
X587211D02*
X589243D01*
X515583Y457700D02*
X517615D01*
X587211D02*
X589243D01*
X515837Y457446D02*
X517615D01*
X587211D02*
X588989D01*
X515837Y457192D02*
X517869D01*
X586957D02*
X588989D01*
X516091Y456938D02*
X518123D01*
X586703D02*
X588735D01*
X516091Y456684D02*
X518123D01*
X586703D02*
X588735D01*
X516345Y456430D02*
X518377D01*
X586449D02*
X588481D01*
X516345Y456176D02*
X518631D01*
X586195D02*
X588227D01*
X516599Y455922D02*
X518631D01*
X586195D02*
X588227D01*
X516853Y455668D02*
X518885D01*
X585941D02*
X587973D01*
X516853Y455414D02*
X518885D01*
X585941D02*
X587973D01*
X517107Y455160D02*
X519139D01*
X585687D02*
X587719D01*
X517361Y454906D02*
X519393D01*
X585433D02*
X587465D01*
X517361Y454652D02*
X519393D01*
X585433D02*
X587465D01*
X517615Y454398D02*
X519647D01*
X532855D02*
X537427D01*
X539967D02*
X541491D01*
X543777D02*
X545809D01*
X547587D02*
X551397D01*
X555461D02*
X557493D01*
X560541D02*
X565875D01*
X567399D02*
X571971D01*
X585179D02*
X587211D01*
X517615Y454144D02*
X519901D01*
X532855D02*
X537935D01*
X539967D02*
X541491D01*
X543523D02*
X545555D01*
X547333D02*
X551651D01*
X555461D02*
X557493D01*
X560541D02*
X565875D01*
X567399D02*
X572225D01*
X584925D02*
X586957D01*
X517869Y453890D02*
X519901D01*
X532855D02*
X538189D01*
X539967D02*
X541491D01*
X543269D02*
X545301D01*
X547079D02*
X551905D01*
X555207D02*
X557493D01*
X560541D02*
X565875D01*
X567399D02*
X572479D01*
X584671D02*
X586957D01*
X518123Y453636D02*
X520155D01*
X532855D02*
X538443D01*
X539967D02*
X541491D01*
X543015D02*
X545047D01*
X546825D02*
X552159D01*
X555207D02*
X557747D01*
X560541D02*
X565875D01*
X567399D02*
X572733D01*
X584671D02*
X586703D01*
X518123Y453382D02*
X520409D01*
X532855D02*
X538443D01*
X539967D02*
X541491D01*
X543015D02*
X545047D01*
X546825D02*
X552159D01*
X555207D02*
X557747D01*
X560541D02*
X565875D01*
X567399D02*
X572733D01*
X584417D02*
X586703D01*
X518377Y453128D02*
X520663D01*
X532855D02*
X538443D01*
X539967D02*
X541491D01*
X542761D02*
X544793D01*
X546825D02*
X552159D01*
X554953D02*
X558001D01*
X560541D02*
X565875D01*
X567399D02*
X572733D01*
X584163D02*
X586449D01*
X518631Y452874D02*
X520663D01*
X532855D02*
X538443D01*
X539967D02*
X541491D01*
X542507D02*
X544539D01*
X546825D02*
X548603D01*
X550381D02*
X552159D01*
X554953D02*
X558001D01*
X563843D02*
X565875D01*
X567399D02*
X568923D01*
X570955D02*
X572733D01*
X584163D02*
X586195D01*
X518885Y452620D02*
X520917D01*
X532855D02*
X534633D01*
X536665D02*
X538443D01*
X539967D02*
X541491D01*
X542507D02*
X544285D01*
X546825D02*
X548349D01*
X550635D02*
X552159D01*
X554953D02*
X558001D01*
X563843D02*
X565621D01*
X567399D02*
X568923D01*
X571209D02*
X572733D01*
X583909D02*
X585941D01*
X518885Y452366D02*
X521171D01*
X532855D02*
X534633D01*
X536665D02*
X538443D01*
X539967D02*
X541491D01*
X542253D02*
X544285D01*
X546825D02*
X548349D01*
X550635D02*
X552159D01*
X554699D02*
X558001D01*
X563589D02*
X565621D01*
X567399D02*
X568923D01*
X571209D02*
X572733D01*
X583655D02*
X585941D01*
X519139Y452112D02*
X521425D01*
X532855D02*
X534633D01*
X536665D02*
X538443D01*
X539967D02*
X541491D01*
X541999D02*
X544031D01*
X546825D02*
X548349D01*
X550635D02*
X552159D01*
X554699D02*
X556223D01*
X556985D02*
X558255D01*
X563335D02*
X565367D01*
X567399D02*
X568923D01*
X571209D02*
X572733D01*
X583401D02*
X585687D01*
X519393Y451858D02*
X521679D01*
X532855D02*
X534633D01*
X536665D02*
X538443D01*
X539967D02*
X541491D01*
X541999D02*
X543777D01*
X550635D02*
X552159D01*
X554699D02*
X556223D01*
X556985D02*
X558255D01*
X563081D02*
X565113D01*
X567399D02*
X568923D01*
X571209D02*
X572733D01*
X583147D02*
X585433D01*
X519393Y451604D02*
X521679D01*
X532855D02*
X534633D01*
X536665D02*
X538443D01*
X539967D02*
X543523D01*
X550635D02*
X552159D01*
X554445D02*
X556223D01*
X556985D02*
X558255D01*
X563081D02*
X564859D01*
X567399D02*
X568923D01*
X570955D02*
X572733D01*
X582893D02*
X585179D01*
X519647Y451350D02*
X521933D01*
X532855D02*
X534633D01*
X536665D02*
X538443D01*
X539967D02*
X543269D01*
X549111D02*
X552159D01*
X554445D02*
X555969D01*
X557239D02*
X558509D01*
X562827D02*
X564859D01*
X567399D02*
X572733D01*
X582893D02*
X585179D01*
X519901Y451096D02*
X522187D01*
X532855D02*
X534633D01*
X536665D02*
X538443D01*
X539967D02*
X543523D01*
X549111D02*
X551905D01*
X554445D02*
X555969D01*
X557239D02*
X558509D01*
X562573D02*
X564605D01*
X567399D02*
X572479D01*
X582639D02*
X584671D01*
X520155Y450842D02*
X522441D01*
X532855D02*
X538443D01*
X539967D02*
X543777D01*
X549111D02*
X551651D01*
X554191D02*
X555969D01*
X557239D02*
X558763D01*
X562319D02*
X564351D01*
X567399D02*
X572225D01*
X582385D02*
X584671D01*
X520409Y450588D02*
X522695D01*
X532855D02*
X538443D01*
X539967D02*
X543777D01*
X549111D02*
X551651D01*
X554191D02*
X555715D01*
X557493D02*
X558763D01*
X562319D02*
X564097D01*
X567399D02*
X572225D01*
X582131D02*
X584417D01*
X520663Y450334D02*
X522949D01*
X532855D02*
X538189D01*
X539967D02*
X544031D01*
X549111D02*
X551905D01*
X554191D02*
X555715D01*
X557493D02*
X558763D01*
X562065D02*
X564097D01*
X567399D02*
X572479D01*
X581877D02*
X584163D01*
X520663Y450080D02*
X523203D01*
X532855D02*
X538189D01*
X539967D02*
X544031D01*
X549111D02*
X552159D01*
X553937D02*
X555715D01*
X557493D02*
X559017D01*
X561811D02*
X563843D01*
X567399D02*
X572733D01*
X581623D02*
X584163D01*
X520917Y449826D02*
X523457D01*
X532855D02*
X537935D01*
X539967D02*
X544285D01*
X550381D02*
X552159D01*
X553937D02*
X559017D01*
X561557D02*
X563589D01*
X567399D02*
X568923D01*
X570955D02*
X572733D01*
X581369D02*
X583909D01*
X521171Y449572D02*
X523711D01*
X532855D02*
X537427D01*
X539967D02*
X541999D01*
X542507D02*
X544285D01*
X550635D02*
X552159D01*
X553937D02*
X559017D01*
X561557D02*
X563335D01*
X567399D02*
X568923D01*
X571209D02*
X572733D01*
X581369D02*
X583401D01*
X521425Y449318D02*
X523965D01*
X532855D02*
X534633D01*
X535649D02*
X537681D01*
X539967D02*
X541745D01*
X542507D02*
X544539D01*
X546825D02*
X548349D01*
X550635D02*
X552159D01*
X553683D02*
X559017D01*
X561303D02*
X563335D01*
X567399D02*
X568923D01*
X571209D02*
X572733D01*
X580861D02*
X583401D01*
X521679Y449064D02*
X524219D01*
X532855D02*
X534633D01*
X535903D02*
X537681D01*
X539967D02*
X541745D01*
X542761D02*
X544539D01*
X546825D02*
X548349D01*
X550635D02*
X552159D01*
X553683D02*
X559271D01*
X561049D02*
X563081D01*
X567399D02*
X568923D01*
X571209D02*
X572733D01*
X580607D02*
X583147D01*
X521933Y448810D02*
X524473D01*
X532855D02*
X534633D01*
X535903D02*
X537935D01*
X539967D02*
X541491D01*
X542761D02*
X544793D01*
X546825D02*
X548349D01*
X550635D02*
X552159D01*
X553683D02*
X559271D01*
X560795D02*
X562827D01*
X567399D02*
X568923D01*
X571209D02*
X572733D01*
X580607D02*
X582893D01*
X522187Y448556D02*
X524727D01*
X532855D02*
X534633D01*
X536157D02*
X537935D01*
X539967D02*
X541491D01*
X543015D02*
X545047D01*
X546825D02*
X548603D01*
X550381D02*
X552159D01*
X553429D02*
X559525D01*
X560795D02*
X562573D01*
X567399D02*
X568923D01*
X570955D02*
X572733D01*
X580099D02*
X582639D01*
X522441Y448302D02*
X524981D01*
X532855D02*
X534633D01*
X536157D02*
X537935D01*
X539967D02*
X541491D01*
X543269D02*
X545047D01*
X546825D02*
X552159D01*
X553429D02*
X555207D01*
X557747D02*
X559525D01*
X560541D02*
X565875D01*
X567399D02*
X572733D01*
X579845D02*
X582385D01*
X522695Y448048D02*
X525235D01*
X532855D02*
X534633D01*
X536411D02*
X538189D01*
X539967D02*
X541491D01*
X543269D02*
X545301D01*
X546825D02*
X552159D01*
X553429D02*
X554953D01*
X558001D02*
X559525D01*
X560541D02*
X565875D01*
X567399D02*
X572733D01*
X579591D02*
X582131D01*
X522949Y447794D02*
X525489D01*
X532855D02*
X534633D01*
X536411D02*
X538189D01*
X539967D02*
X541491D01*
X543523D02*
X545301D01*
X546825D02*
X552159D01*
X553175D02*
X554953D01*
X558001D02*
X559525D01*
X560541D02*
X565875D01*
X567399D02*
X572733D01*
X579337D02*
X581877D01*
X523203Y447540D02*
X525743D01*
X532855D02*
X534633D01*
X536665D02*
X538443D01*
X539967D02*
X541491D01*
X543523D02*
X545555D01*
X547079D02*
X551905D01*
X553175D02*
X554953D01*
X558001D02*
X559779D01*
X560541D02*
X565875D01*
X567399D02*
X572479D01*
X579083D02*
X581623D01*
X523457Y447286D02*
X525997D01*
X532855D02*
X534633D01*
X536665D02*
X538443D01*
X539967D02*
X541491D01*
X543777D02*
X545555D01*
X547333D02*
X551651D01*
X553175D02*
X554699D01*
X558001D02*
X559779D01*
X560541D02*
X565875D01*
X567399D02*
X572225D01*
X578829D02*
X581369D01*
X523711Y447032D02*
X526251D01*
X532855D02*
X534633D01*
X536919D02*
X538697D01*
X539967D02*
X541491D01*
X544031D02*
X545809D01*
X547587D02*
X551397D01*
X552921D02*
X554699D01*
X558255D02*
X559779D01*
X560541D02*
X565875D01*
X567399D02*
X571971D01*
X578575D02*
X581115D01*
X523965Y446778D02*
X526505D01*
X578321D02*
X580861D01*
X524219Y446524D02*
X526759D01*
X577813D02*
X580607D01*
X524473Y446270D02*
X527013D01*
X577559D02*
X580353D01*
X524727Y446016D02*
X527521D01*
X577305D02*
X580099D01*
X524981Y445762D02*
X527775D01*
X577051D02*
X579591D01*
X525235Y445508D02*
X528283D01*
X576797D02*
X579591D01*
X525743Y445254D02*
X528537D01*
X576289D02*
X579083D01*
X525997Y445000D02*
X528791D01*
X576035D02*
X578829D01*
X526251Y444746D02*
X529045D01*
X575781D02*
X578575D01*
X526505Y444492D02*
X529553D01*
X575273D02*
X578321D01*
X527013Y444238D02*
X529807D01*
X575019D02*
X577813D01*
X527267Y443984D02*
X530315D01*
X574511D02*
X577559D01*
X527521Y443730D02*
X530569D01*
X574003D02*
X577051D01*
X528029Y443476D02*
X531077D01*
X573749D02*
X576797D01*
X528283Y443222D02*
X531331D01*
X573495D02*
X576543D01*
X528537Y442968D02*
X531839D01*
X572987D02*
X576035D01*
X529045Y442714D02*
X532347D01*
X572479D02*
X575781D01*
X529299Y442460D02*
X532601D01*
X571971D02*
X575273D01*
X529807Y442206D02*
X533109D01*
X571463D02*
X575019D01*
X530315Y441952D02*
X533617D01*
X571209D02*
X574765D01*
X530569Y441698D02*
X534125D01*
X570701D02*
X574003D01*
X531077Y441444D02*
X534633D01*
X570193D02*
X574003D01*
X531331Y441190D02*
X535141D01*
X569685D02*
X573495D01*
X531839Y440936D02*
X535649D01*
X569177D02*
X572987D01*
X532347Y440682D02*
X536411D01*
X568415D02*
X572225D01*
X532601Y440428D02*
X536919D01*
X567907D02*
X571971D01*
X533363Y440174D02*
X537427D01*
X567399D02*
X571717D01*
X533617Y439920D02*
X538189D01*
X566637D02*
X570955D01*
X534125Y439666D02*
X538697D01*
X566129D02*
X570447D01*
X534887Y439412D02*
X539459D01*
X565367D02*
X569939D01*
X535395Y439158D02*
X540221D01*
X564351D02*
X569431D01*
X535903Y438904D02*
X540983D01*
X563589D02*
X568669D01*
X536665Y438650D02*
X541745D01*
X563081D02*
X568415D01*
X537173Y438396D02*
X543015D01*
X561811D02*
X567399D01*
X537935Y438142D02*
X543777D01*
X560795D02*
X566891D01*
X538697Y437888D02*
X545301D01*
X559525D02*
X566129D01*
X539205Y437634D02*
X547079D01*
X557747D02*
X565367D01*
X539967Y437380D02*
X548857D01*
X555969D02*
X564605D01*
X540983Y437126D02*
X563589D01*
X541999Y436872D02*
X562827D01*
X543015Y436618D02*
X561811D01*
X544285Y436364D02*
X560541D01*
X545301Y436110D02*
X545555D01*
X545809D02*
X559271D01*
X546825Y435856D02*
X547079D01*
X547333D02*
X557493D01*
X557747D02*
X558001D01*
X549365Y435602D02*
X549619D01*
X549873D02*
X550127D01*
X550381D02*
X551397D01*
X551651D02*
X554699D01*
X554953D02*
X555207D01*
D15*
X333000Y432000D02*
Y448000D01*
X325000Y440000D02*
X341000D01*
D16*
X785000Y1119600D02*
X795000Y1129600D01*
X705000Y1119600D02*
X715000Y1129600D01*
X625000Y1119600D02*
X635000Y1129600D01*
X575000Y1229600D02*
X605000Y1229600D01*
X565000Y1189600D02*
Y1219600D01*
X575000Y1179600D02*
X605000D01*
X615000Y1189600D02*
Y1219600D01*
Y1139600D02*
Y1169600D01*
X575000Y1129600D02*
X605000D01*
X565000Y1139600D02*
Y1169600D01*
X645000Y1139600D02*
Y1169600D01*
X655000Y1129600D02*
X685000D01*
X695000Y1139600D02*
Y1169600D01*
Y1189600D02*
Y1219600D01*
X655000Y1179600D02*
X685000D01*
X645000Y1189600D02*
Y1219600D01*
X655000Y1229600D02*
X685000Y1229600D01*
X725000Y1139600D02*
Y1169600D01*
X735000Y1129600D02*
X765000D01*
X775000Y1139600D02*
Y1169600D01*
Y1189600D02*
Y1219600D01*
X735000Y1179600D02*
X765000D01*
X725000Y1189600D02*
Y1219600D01*
X735000Y1229600D02*
X765000Y1229600D01*
M02*
